<svg width="352" height="836" viewBox="0 0 352 836" fill="none" xmlns="http://www.w3.org/2000/svg">
<g clip-path="url(#clip0_231_173)">
<path d="M17.53 802.95C17.63 799.29 17.67 795.56 17.85 791.85C18.09 786.82 18.34 781.78 18.77 776.76C19.17 772.08 19.66 767.39 20.56 762.77C21.2 759.51 22.03 756.32 23.74 753.44C24.13 752.78 23.9 752.41 23.43 751.97C21.73 750.38 20.27 748.6 19.19 746.52C18.04 744.3 17.25 741.95 16.76 739.52C15.65 733.98 15.37 728.36 15.8 722.75C16.11 718.64 16.68 714.54 17.34 710.46C18.35 704.19 19.77 697.97 20.45 691.65C20.89 687.54 20.86 683.39 20.47 679.27C20.09 675.24 19.6 671.22 19.17 667.2C18.89 664.57 18.55 661.95 18.35 659.31C17.98 654.36 17.87 649.42 18.51 644.47C19.01 640.61 19.65 636.8 20.87 633.1C21.06 632.53 20.93 632.43 20.26 632.55C18.07 632.95 17.38 632.47 17.09 630.35C17.05 630.02 17.11 629.67 17.01 629.37C16.95 629.19 16.67 628.96 16.5 628.96C16.09 628.96 15.69 629.15 15.29 629.17C13.31 629.3 12.13 627.78 12.88 625.95C13.25 625.05 13.91 624.27 14.44 623.43C14.81 622.85 14.79 622.64 14.22 622.2C13.43 621.6 12.62 621.02 11.85 620.4C5.88001 615.59 2.27001 609.36 0.750012 601.88C-0.829988 594.08 0.0800123 586.59 3.63001 579.46C7.12001 572.45 12.42 567.35 19.68 564.31C22.21 563.25 24.78 562.45 27.53 562.16C33.76 561.5 39.53 562.85 44.84 566.07C51.57 570.15 55.91 576.12 58.26 583.57C59.11 586.26 59.54 589.03 59.81 591.83C60.08 594.66 59.71 597.46 59.2 600.22C57.8 607.87 54.22 614.33 48.37 619.51C44.9 622.58 40.87 624.59 36.43 625.84C36.11 625.93 35.78 625.97 35.46 626.06C34.94 626.21 34.6 626.52 34.62 627.12C34.67 628.55 34.34 629.92 33.8 631.22C33.46 632.04 33.01 632.86 32.43 633.54C31.12 635.08 29.65 635.13 28.14 633.8C27.95 633.64 27.78 633.45 27.63 633.26C27.23 632.77 26.83 632.76 26.4 633.21C26.34 633.27 26.27 633.32 26.21 633.37C25 634.35 24.15 634.59 22.89 633C22.44 632.44 22.34 632.49 22.13 633.09C21.24 635.59 20.7 638.19 20.34 640.8C19.92 643.82 19.65 646.87 19.38 649.92C19.29 650.99 19.33 652.07 19.4 653.14C19.61 656.11 19.84 659.07 20.14 662.03C20.54 665.97 20.95 669.92 21.45 673.85C22.19 679.6 22.54 685.38 22.08 691.16C21.79 694.77 21.17 698.37 20.53 701.94C19.55 707.38 18.51 712.82 17.85 718.31C17.2 723.65 16.97 729.01 17.61 734.39C17.95 737.27 18.36 740.12 19.26 742.88C20.27 746 21.95 748.72 24.39 750.95C24.82 751.34 25.2 751.38 25.71 751.06C26.33 750.66 26.96 750.21 27.66 750.02C28.9 749.69 30.09 749.98 31.23 750.63C32.69 751.47 32.39 753.25 31.59 754.02C30.73 754.84 29.7 755.04 28.6 754.76C27.72 754.54 26.88 754.18 26.03 753.85C25.55 753.66 25.28 753.85 25.02 754.24C23.59 756.43 22.89 758.91 22.34 761.4C21.51 765.11 20.96 768.87 20.66 772.66C20.25 777.84 19.81 783.03 19.41 788.21C19.31 789.44 19.31 790.69 19.28 791.93C19.12 798.37 18.55 804.81 18.87 811.26C19.13 816.56 19.8 821.8 21.8 826.77C22.35 828.14 23.1 829.44 23.8 830.75C24.07 831.26 24.42 831.74 24.8 832.16C26.62 834.17 29.33 835.01 32.37 832.97C33.26 832.37 34.09 831.68 34.96 831.05C35.23 830.86 35.61 830.71 35.82 831.05C35.96 831.29 35.99 831.7 35.88 831.95C35.68 832.39 35.39 832.83 35.03 833.15C33.15 834.83 30.88 835.53 28.42 835.47C26.19 835.41 24.53 834.21 23.29 832.41C21.63 830.01 20.43 827.39 19.6 824.6C18.1 819.57 17.52 814.42 17.52 809.19C17.52 807.13 17.52 805.06 17.52 802.94L17.53 802.95ZM58.01 593.89C57.88 585.28 55.21 577.64 49 571.52C42.82 565.43 35.35 562.71 26.66 563.84C24.55 564.11 22.44 564.64 20.41 565.31C17.96 566.12 15.8 567.55 13.8 569.16C8.34001 573.53 4.69001 579.08 2.81001 585.84C1.10001 591.98 1.15001 598.13 2.99001 604.16C5.45001 612.27 10.33 618.53 18.04 622.33C25.21 625.86 32.52 625.9 39.85 622.86C45.46 620.54 49.71 616.56 52.94 611.5C56.36 606.15 58.04 600.26 58.02 593.88L58.01 593.89ZM18.7 629.27C18.7 629.39 18.68 629.8 18.7 630.22C18.74 631.09 19.25 631.37 20.03 630.9C20.73 630.47 21.37 629.95 22.06 629.5C22.86 628.98 23.49 629.23 23.83 630.04C24.14 630.78 23.78 631.97 24.59 632.24C25.65 632.59 25.89 631.22 26.58 630.71C26.98 630.42 27.6 630.44 27.9 630.85C28.37 631.52 28.78 632.24 29.29 632.88C29.65 633.33 30.42 633.36 30.86 632.97C31.23 632.65 31.59 632.29 31.86 631.89C32.6 630.76 32.86 629.45 33.05 628.15C33.29 626.49 32.81 626.39 31.45 626.54C28.8 626.83 26.2 626.54 23.6 626.03C21.31 625.58 19.17 624.79 17.09 623.77C16.11 623.28 15.92 623.35 15.32 624.31C15.1 624.66 14.9 625.02 14.73 625.39C14.44 626.05 13.89 626.75 14.53 627.43C15.1 628.03 15.77 627.51 16.37 627.32C18.66 626.6 18.77 626.67 18.71 629.26L18.7 629.27ZM28.71 751.3C28.25 751.47 27.64 751.66 27.05 751.92C26.74 752.05 26.74 752.56 27.01 752.72C27.86 753.25 28.77 753.58 29.79 753.47C30.31 753.41 30.72 753.14 30.92 752.65C31.06 752.32 30.62 751.76 30.09 751.6C29.7 751.49 29.3 751.43 28.71 751.31V751.3Z" fill="white"/>
<path d="M29.1 568.72C30.72 568.95 32.12 569.08 33.49 569.36C34.84 569.64 35.87 570.47 36.64 571.61C37.64 573.1 37.36 574.74 35.86 575.71C35.18 576.15 34.39 576.46 33.62 576.73C32.92 576.98 32.19 577.14 31.46 577.29C29.17 577.76 27.04 578.63 25.07 579.89C24.37 580.33 23.65 580.74 22.92 581.13C22.49 581.36 22.04 581.61 21.56 581.71C18.96 582.26 17.17 581.28 17.05 578.35C17 577.07 17.27 575.9 17.95 574.81C19.69 571.97 22.3 570.34 25.42 569.46C26.68 569.11 28 568.94 29.09 568.73L29.1 568.72ZM29.92 569.77C26.3 570.18 23.23 571.22 20.68 573.5C19.81 574.27 19.16 575.22 18.67 576.28C18.28 577.14 18.19 578.02 18.38 578.93C18.67 580.27 19.6 580.87 20.94 580.53C21.41 580.41 21.86 580.18 22.29 579.95C23.23 579.44 24.16 578.92 25.07 578.36C26.77 577.32 28.61 576.63 30.55 576.19C31.35 576.01 32.16 575.84 32.94 575.6C33.56 575.41 34.19 575.18 34.76 574.86C36.09 574.1 36.31 573.2 35.37 572.06C34.86 571.44 34.22 570.78 33.51 570.53C32.29 570.1 30.96 569.97 29.92 569.77Z" fill="white"/>
<path d="M14.68 584.53C17.88 584.38 19.39 586.12 19.18 589.12C18.97 592.02 17.85 594.55 15.44 596.31C13.05 598.06 10.03 597.13 8.94998 594.41C7.70998 591.29 8.99998 587.63 10.98 585.8C12.06 584.8 13.34 584.32 14.68 584.53ZM9.72998 591.42C9.68998 592.43 9.84998 593.39 10.31 594.3C10.75 595.18 11.47 595.65 12.4 595.87C13.17 596.05 13.87 595.81 14.52 595.42C17.09 593.87 18.47 589.77 17.72 587.45C17.6 587.07 17.43 586.66 17.16 586.38C16.22 585.38 14.29 585.07 13.07 585.74C10.84 586.97 9.94998 589 9.74998 591.41L9.72998 591.42Z" fill="white"/>
</g>
<g clip-path="url(#clip1_231_173)">
<path d="M325.121 103.072C319.302 104.569 313.532 105.113 307.67 104.653C306.159 104.542 304.716 104.243 303.388 103.545C301.782 102.702 300.8 101.618 300.92 99.5064C301.384 91.9895 301.613 84.4451 302.017 76.9146C302.806 62.5284 304.515 48.2283 306.254 33.935C306.343 33.2569 306.401 32.5721 306.477 31.8974C306.529 31.3569 306.089 31.3088 305.823 31.4459C304.815 31.9808 303.873 32.6132 302.871 33.175C301.439 33.9573 299.933 34.444 298.275 34.2555C296.073 34.0019 295.057 32.1426 296.266 30.2886C297.001 29.1655 298.091 28.2682 299.067 27.3135C299.605 26.7808 299.33 26.6492 298.824 26.4466C297.653 25.9805 296.476 25.5446 295.362 24.9644C294.021 24.2696 292.959 23.2061 292.351 21.7877C291.596 20.0063 292.551 18.2726 294.429 17.8505C295.618 17.5847 296.882 18.37 298.032 17.6004C297.709 16.411 297.232 15.2313 297.087 14.0121C296.896 12.4335 296.866 10.815 297.393 9.2582C298.083 7.26194 299.807 6.62128 301.416 7.93457C302.451 8.77644 303.228 9.95347 304.125 10.9864C304.467 11.3868 304.933 11.314 305.19 10.7941C305.736 9.6605 306.179 8.45274 306.867 7.42687C307.554 6.401 308.419 5.45949 309.358 4.64239C310.377 3.74825 311.784 4.01344 312.695 5.04305C313.488 5.94478 313.68 7.06673 313.943 8.18548C314.166 9.14296 314.029 10.2608 314.947 10.9748C315.714 10.4998 316.477 10.0113 317.257 9.53298C318.643 8.67663 320.188 8.17994 321.784 8.05607C324.417 7.86076 326.07 10.2184 324.973 12.6435C324.554 13.5458 323.851 14.3332 323.184 15.0972C322.662 15.697 321.973 16.1387 321.434 16.7284C321.3 16.8758 321.349 17.4199 321.493 17.5411C322.036 17.9486 322.747 18.1719 323.22 18.6398C323.873 19.2625 324.489 19.9657 324.883 20.7523C325.465 21.892 325.116 23.0764 324.047 23.769C323.186 24.3244 322.198 24.6545 321.294 25.1493C320.517 25.584 319.454 24.92 318.824 25.8319C319.249 26.5111 319.734 27.1469 320.095 27.8562C320.737 29.1236 320.012 30.5154 318.608 30.6632C317.829 30.742 317.02 30.5856 316.224 30.5972C315.482 30.5955 314.735 29.996 314.005 30.6189C314.319 31.1971 314.589 31.829 314.978 32.3605C319.667 38.8586 323.431 45.9422 327.69 52.7181C332.49 60.3582 337.318 67.9916 342.071 75.6719C344.168 79.0748 346.165 82.5313 348.124 86.0111C349.445 88.3512 349.319 89.224 347.421 91.1771C345.435 93.2375 343.258 95.0456 340.753 96.5071C333.981 100.437 330.211 101.855 325.114 103.045L325.121 103.072ZM310.375 102.272C312.652 100.981 315.488 99.7084 317.967 97.9111C322.515 94.6177 326.613 90.7792 330.334 86.5639C333.539 82.9181 336.177 78.942 337.723 74.2951C337.949 73.5972 338.061 73.0132 337.643 72.3608C336.027 69.8656 334.448 67.3469 332.819 64.855C332.732 64.7339 332.188 64.7259 332.063 64.8566C331.76 65.1883 331.568 65.621 331.352 66.0167C327.791 72.3747 323.175 77.8673 317.697 82.646C313.858 85.978 309.652 88.688 304.595 89.8111C304.38 89.8643 304.155 89.9343 303.93 90.0043C303.188 90.2309 302.797 90.7269 302.745 91.4957C302.567 94.1211 302.417 96.7398 302.182 99.365C302.086 100.473 302.678 101.196 303.483 101.567C305.496 102.495 307.658 102.645 310.372 102.258L310.375 102.272ZM320.31 23.4816C321.09 23.2316 321.641 23.0952 322.175 22.8916C323.641 22.3007 323.795 20.9647 322.461 20.0113C321.821 19.5565 321.083 19.2257 320.348 18.9084C319.546 18.5506 318.273 18.7659 318.034 17.7412C317.748 16.5284 319.008 16.1452 319.792 15.509C320.932 14.5849 322.08 13.6307 323.066 12.545C323.864 11.6772 323.853 10.596 323.33 10.0408C322.63 9.28699 321.7 9.33183 320.787 9.44385C320.467 9.48004 320.145 9.67404 319.862 9.85806C318.537 10.728 317.219 11.6248 315.897 12.5081C315.336 12.8896 314.817 13.3316 314.229 13.6627C313.765 13.9201 312.933 13.5555 312.847 13.0349C312.668 11.9096 312.587 10.7745 312.412 9.66267C312.223 8.55417 312.031 7.43223 311.704 6.34355C311.488 5.64127 310.588 5.52164 310.02 5.9904C308.267 7.43685 307.396 9.3924 306.793 11.5097C306.509 12.4929 306.315 13.4964 306.001 14.4728C305.791 15.1237 304.703 15.2219 304.301 14.6367C303.92 14.0751 303.622 13.4498 303.238 12.8748C302.538 11.8356 301.849 10.7796 301.042 9.82412C300.717 9.43386 300.053 8.99916 299.63 9.0754C298.864 9.20792 298.859 10.0507 298.74 10.722C298.474 12.2424 298.871 13.6704 299.28 15.0951C299.637 16.3047 300.124 17.4676 300.491 18.6605C300.734 19.4703 299.97 20.2441 299.087 20.1346C297.744 19.9535 296.395 19.6885 295.046 19.5946C294.696 19.567 294.138 19.9619 293.993 20.2973C293.855 20.6025 294.011 21.1771 294.232 21.4932C295.36 23.0539 297.034 23.7663 298.812 24.3245C299.896 24.6695 301 24.981 302.057 25.3897C302.717 25.6398 302.876 26.6844 302.355 27.113C301.837 27.555 301.255 27.9129 300.697 28.3078C299.957 28.8333 299.18 29.325 298.483 29.911C297.706 30.574 297.378 31.6108 297.76 32.0012C298.39 32.644 299.202 32.6426 299.989 32.4194C300.526 32.2864 301.061 32.0257 301.541 31.7213C303.344 30.5335 305.257 29.4467 306.875 28.0335C308.191 26.8949 309.38 26.6862 310.927 27.2304C312.319 27.7272 313.759 28.1268 315.212 28.4089C316.051 28.5721 316.961 28.4466 317.844 28.4419C318.24 27.2744 317.072 26.9358 316.637 26.2163C316.467 25.9305 316.172 25.7182 315.988 25.4358C315.482 24.7194 315.918 23.7131 316.798 23.6379C318.04 23.53 319.3 23.4893 320.314 23.4379L320.31 23.4816ZM304.426 79.0423C304.796 78.8652 305.229 78.7151 305.596 78.4675C312.396 73.9034 318.137 68.2322 322.72 61.4501C323.919 59.6699 324.74 57.627 325.735 55.712C326.13 54.944 326.175 54.2054 325.717 53.4488C324.245 51.0177 322.794 48.5531 321.308 46.1253C320.991 45.5907 320.601 45.6301 320.301 46.1465C320.193 46.3443 320.085 46.5422 319.981 46.7535C316.675 53.2766 312.183 58.8098 306.28 63.1376C305.133 63.9777 304.737 64.974 304.657 66.3203C304.416 70.1879 304.088 74.0485 303.804 77.9127C303.787 78.1309 303.779 78.3894 303.87 78.581C303.956 78.7592 304.181 78.8604 304.429 79.0558L304.426 79.0423ZM316.02 37.3223C314.083 34.279 312.492 31.2499 309.885 28.9572C309.523 28.6474 308.952 28.8744 308.833 29.3745C308.653 30.1463 308.49 30.9283 308.388 31.7239C307.762 36.7993 307.152 41.8849 306.556 46.9672C306.347 48.7732 306.138 50.5792 305.972 52.3886C305.945 52.6807 306.179 52.9935 306.283 53.296C306.451 53.1688 306.673 53.0853 306.804 52.9245C308.4 50.8464 310.05 48.8121 311.56 46.67C313.268 44.2362 314.627 41.6036 315.648 38.8123C315.833 38.2956 315.925 37.7452 316.02 37.3223ZM346.943 87.2306C346.321 86.158 345.712 85.0821 345.07 84.0431C344.816 83.6496 344.241 83.749 344.029 84.2152C342.129 88.2938 339.377 91.756 336.318 95.0092C335.853 95.495 335.462 96.0481 335.038 96.581C335.897 96.996 336.509 96.3595 337.138 96.0185C340.342 94.2698 343.432 92.3497 346.101 89.8208C346.841 89.1242 347.102 88.3323 346.96 87.2407L346.943 87.2306Z" fill="white"/>
</g>
<g clip-path="url(#clip2_231_173)">
<path d="M264.405 487.382C263.832 483.623 263.269 479.863 262.686 476.106C262.57 475.324 262.623 474.632 263.236 474.049C263.504 473.795 263.615 473.52 263.066 473.41C260.784 472.963 259.759 471.405 259.465 469.242C259.354 468.429 259.185 467.585 259.267 466.776C259.514 464.4 259.862 462.025 260.19 459.654C260.231 459.331 260.355 459.013 260.482 458.714C260.775 457.998 261.44 457.853 262.102 458.349C262.233 458.447 262.391 458.529 262.487 458.664C264.64 461.302 266.499 464.107 267.334 467.471C267.83 469.464 267.695 471.239 265.939 472.616C265.691 472.815 265.553 473.167 266.098 473.248C267.566 473.481 268.071 474.546 268.43 475.812C269.522 479.626 270.4 483.49 271.161 487.387C271.521 489.252 271.891 491.116 272.283 492.986C272.399 493.554 272.518 494.132 272.757 494.647C272.862 494.882 273.258 495.092 273.524 495.103C273.924 495.12 274.327 494.932 274.73 494.857C278.065 494.252 281.386 493.568 284.736 493.092C286.767 492.802 288.85 492.839 290.904 492.728C291.558 492.687 291.826 492.433 291.745 491.787C291.561 490.316 291.355 488.839 291.112 487.378C290.463 483.542 289.777 479.723 289.149 475.883C288.971 474.828 288.972 473.749 288.863 472.681C288.774 471.823 288.887 471.018 289.408 470.32C289.878 469.683 289.463 469.587 288.958 469.336C287.196 468.456 286.249 467.097 286.304 465.001C286.375 462.343 286.782 459.743 287.208 457.13C287.259 456.805 287.361 456.48 287.467 456.176C287.67 455.578 288.327 455.231 288.845 455.551C289.466 455.933 290.136 456.357 290.568 456.927C291.821 458.564 292.986 460.268 294.132 461.986C294.487 462.52 294.7 463.172 294.899 463.796C295.48 465.702 295.291 467.406 293.531 468.651C293.216 468.873 293.096 469.099 293.352 469.438C294.305 470.663 294.589 472.126 294.815 473.6C295.47 478.014 296.086 482.437 296.761 486.848C297.021 488.559 297.341 490.269 297.682 491.976C297.861 492.929 298.02 493.072 298.976 493.178C300.866 493.383 302.727 493.705 304.554 494.278C308.423 495.486 311.464 497.703 313.568 501.216C314.756 503.211 315.719 505.309 316.552 507.473C318.182 511.715 319.85 515.94 320.791 520.413C321.253 522.605 321.564 524.806 321.527 527.051C321.487 529.063 321.364 531.009 320.03 532.684C319.815 532.948 319.838 533.452 319.849 533.837C319.864 534.241 320.001 534.643 320.088 535.054C320.612 537.306 321.136 539.558 321.662 541.819C321.774 542.307 321.894 542.783 322.025 543.267C322.357 544.436 322.372 544.464 323.528 544.389C325.004 544.285 326.491 544.129 327.963 544.005C331.622 543.715 335.239 543.902 338.713 545.173C339.717 545.534 340.684 546.025 341.585 546.598C345.717 549.211 347.056 554.993 344.414 559.294C343.284 561.134 341.915 562.785 340.303 564.227C335.959 568.135 331.034 571.114 325.783 573.604C319.867 576.403 313.699 578.506 307.432 580.353C300.048 582.532 292.543 584.184 284.943 585.376C280.781 586.024 276.594 586.484 272.403 586.924C268.792 587.306 265.171 587.64 261.546 587.841C253.529 588.277 245.523 588.12 237.605 586.696C235.098 586.24 232.63 585.502 230.181 584.761C228.272 584.183 226.536 583.176 225.036 581.85C222.024 579.189 221.426 576.056 223.279 572.483C224.393 570.341 225.966 568.53 227.732 566.876C230.534 564.244 233.821 562.346 237.19 560.564C238.578 559.826 240.002 559.172 241.389 558.433C242.37 557.914 242.419 557.793 242.185 556.656C241.647 554.061 241.072 551.483 240.525 548.889C240.415 548.36 240.183 547.987 239.595 547.893C238.213 547.685 237.42 546.765 236.938 545.553C236.573 544.635 236.203 543.697 236.025 542.744C235.02 537.55 234.053 532.339 233.117 527.132C232.508 523.777 232.423 520.394 232.785 517.01C233.138 513.688 234.404 510.835 237.133 508.675C238.426 507.649 239.579 506.476 241.169 505.893C241.778 505.667 241.697 505.235 241.593 504.684C240.625 499.738 239.645 494.784 238.774 489.819C238.393 487.622 238.239 485.392 237.997 483.179C237.97 482.929 237.897 482.648 237.98 482.439C238.472 481.157 238.282 480.358 236.763 479.961C235.767 479.7 235.174 478.764 234.953 477.747C234.712 476.622 234.443 475.462 234.465 474.328C234.519 471.256 235.116 468.254 235.883 465.292C235.924 465.132 235.975 464.969 236.028 464.817C236.48 463.593 237.345 463.38 238.304 464.258C238.426 464.367 238.55 464.486 238.637 464.623C240.412 467.2 242.397 469.646 243.313 472.74C243.649 473.877 243.71 475.016 243.741 476.159C243.776 477.486 243.069 478.544 242.058 479.334C241.525 479.75 241.756 479.95 242.114 480.229C242.895 480.815 243.208 481.672 243.376 482.567C244.398 488.012 245.419 493.457 246.401 498.909C246.664 500.366 246.731 501.859 246.936 503.336C247.007 503.822 247.371 504.028 247.852 503.877C248.718 503.613 249.577 503.309 250.437 503.015C255.289 501.383 260.142 499.75 264.994 498.118C265.309 498.008 265.609 497.87 265.897 497.724C266.576 497.383 266.694 497.148 266.51 496.328C266.105 494.552 265.654 492.795 265.259 491.017C264.991 489.806 264.802 488.58 264.573 487.361C264.524 487.37 264.475 487.379 264.426 487.388L264.405 487.382ZM261.457 471.127L261.56 471.24L261.427 471.184C261.351 470.781 261.245 470.373 261.198 469.965C260.959 467.985 261.026 466.009 261.506 464.067C261.669 463.416 262.392 463.199 262.865 463.66C264.273 464.983 265.277 466.595 265.922 468.407C266.074 468.837 265.962 469.377 265.921 469.863C265.894 470.101 265.752 470.321 265.653 470.554C265.553 470.776 265.399 470.988 265.32 471.216C265.281 471.336 265.371 471.492 265.399 471.639C265.537 471.613 265.709 471.611 265.806 471.532C266.92 470.581 266.819 469.338 266.565 468.093C265.909 464.92 263.984 462.412 262.125 459.881C262.042 459.764 261.801 459.616 261.716 459.653C261.529 459.739 261.307 459.913 261.27 460.092C260.712 462.598 260.376 465.144 260.419 467.71C260.44 468.906 260.44 470.209 261.469 471.135L261.457 471.127ZM242.021 477.835C242.908 477.252 242.984 476.301 242.881 475.425C242.742 474.302 242.495 473.148 242.066 472.109C241.067 469.661 239.382 467.617 237.862 465.48C237.752 465.328 237.466 465.27 237.26 465.257C237.168 465.254 237.007 465.478 236.972 465.617C236.319 468.323 235.722 471.05 235.729 473.857C235.734 474.914 235.812 475.978 235.958 477.029C236.055 477.764 236.357 478.45 237.138 478.762C237.2 478.77 237.263 478.779 237.318 478.799C237.249 478.812 237.17 478.827 237.1 478.83C237.227 476.527 237.324 474.219 237.482 471.921C237.519 471.354 237.7 470.801 237.85 470.244C237.915 469.998 238.521 469.864 238.701 470.064C238.972 470.369 239.253 470.673 239.46 471.021C240.765 473.147 241.841 475.356 242.091 477.883C242.125 477.795 241.876 478.096 242.032 477.843L242.021 477.835ZM235.609 534.56C235.609 534.56 235.56 534.569 235.53 534.575C235.958 536.855 236.384 539.125 236.811 541.406C237.071 542.791 237.264 544.2 238.003 545.425C238.285 545.901 238.736 546.295 239.151 546.664C239.444 546.925 239.998 546.678 240.187 546.328C240.562 545.616 240.453 544.874 240.317 544.146C240.001 542.354 239.597 540.578 239.33 538.776C239.147 537.478 239.071 536.149 239.079 534.835C239.083 534.203 239.309 533.51 239.633 532.961C240.412 531.634 242.079 531.576 242.872 532.872C243.33 533.63 243.609 534.524 243.803 535.393C244.086 536.683 244.172 538.01 244.454 539.3C244.592 539.926 244.9 540.539 245.255 541.073C245.696 541.743 246.56 541.632 246.797 540.886C247.037 540.108 247.249 539.285 247.261 538.479C247.296 536.498 247.2 534.522 247.185 532.541C247.174 530.966 247.191 529.376 247.962 527.949C249.22 525.597 251.922 525.466 253.339 527.704C253.772 528.385 254.074 529.183 254.302 529.965C254.97 532.281 255.293 534.652 255.427 537.049C255.562 539.394 256.124 541.629 257.363 543.625C258.308 545.136 259.844 545.245 261.116 543.999C262.321 542.827 262.754 541.342 262.682 539.707C262.645 538.971 262.495 538.226 262.339 537.502C261.95 535.642 261.491 533.795 261.161 531.924C260.99 530.959 260.955 529.958 261.035 528.976C261.125 527.83 261.81 526.979 262.875 526.525C263.685 526.18 265.213 526.789 265.94 527.731C266.289 528.184 266.561 528.713 266.792 529.24C266.989 529.691 267.073 530.194 267.213 530.667C267.557 531.853 267.865 533.057 268.257 534.225C268.438 534.761 268.738 535.274 269.07 535.741C269.405 536.228 269.901 536.592 270.546 536.451C271.278 536.283 271.605 535.693 271.742 535.016C271.815 534.697 271.791 534.356 271.772 534.034C271.702 532.795 271.654 531.563 271.543 530.322C271.409 528.903 271.44 527.493 271.901 526.155C272.493 524.426 273.573 522.972 275.467 522.708C277.43 522.432 278.98 523.484 280.065 525.091C280.57 525.831 280.915 526.692 281.256 527.534C282.13 529.7 282.438 531.992 282.728 534.298C283.036 536.754 283.484 539.193 283.911 541.636C284.139 542.957 284.701 544.164 285.575 545.19C286.579 546.365 287.942 546.364 289.024 545.245C289.731 544.512 290.215 543.618 290.333 542.619C290.459 541.558 290.48 540.475 290.393 539.413C290.298 538.261 289.986 537.139 289.822 535.99C289.458 533.453 289.023 530.92 288.83 528.372C288.713 526.827 288.883 525.238 289.123 523.698C289.27 522.744 289.771 521.836 290.151 520.931C290.278 520.632 290.48 520.35 290.687 520.098C292.144 518.268 294.494 518.213 296.041 519.948C297.165 521.223 297.646 522.811 298.24 524.348C298.63 525.343 298.966 526.379 299.477 527.311C299.865 528.021 300.44 528.646 301.033 529.206C301.539 529.681 302.289 529.612 302.861 529.189C303.896 528.415 304.624 527.414 304.822 526.135C304.975 525.16 304.981 524.162 304.999 523.172C305.021 522.099 304.911 521.021 304.965 519.953C305.044 518.371 305.314 516.825 306.197 515.459C307.474 513.479 309.786 513.168 311.501 514.769C312.476 515.685 313.268 516.757 313.692 518.041C314.269 519.764 314.808 521.495 315.279 523.248C315.801 525.164 316.235 527.098 316.708 529.023C316.929 529.928 317.294 530.735 318.055 531.324C318.483 531.651 319.035 531.558 319.312 531.079C319.818 530.2 319.961 529.227 320.038 528.226C320.229 525.555 319.79 522.941 319.183 520.358C317.868 514.704 315.799 509.313 313.442 504.017C313.176 503.415 312.826 502.85 312.476 502.285C312.043 501.603 311.804 501.577 311.131 502.11C308.4 504.26 305.512 506.166 302.412 507.754C302.291 507.818 302.104 507.741 301.949 507.729C301.996 507.598 302.004 507.424 302.093 507.356C302.693 506.918 303.307 506.508 303.909 506.08C306.209 504.458 308.513 502.856 310.79 501.218C311.336 500.82 311.333 500.475 310.927 499.992C309.852 498.708 308.573 497.696 307.098 496.884C304.896 495.669 302.521 494.995 300.046 494.656C299.565 494.584 299.033 494.459 298.59 494.593C298.001 494.765 298.282 495.445 298.121 495.892C298.032 496.122 298 496.383 297.887 496.597C297.268 497.741 296.231 498.18 294.99 498.128C293.863 498.085 293.186 497.408 292.885 496.345C292.795 496.026 292.655 495.717 292.624 495.387C292.51 494.289 291.827 494.01 290.922 494.017C285.689 494.053 280.533 494.664 275.443 495.842C274.956 495.954 274.485 496.103 274.011 496.233C273.537 496.363 273.335 496.696 273.411 497.159C273.574 498.136 273.776 499.105 273.949 500.08C274.055 500.701 273.833 501.252 273.342 501.619C272.335 502.377 271.209 502.884 269.922 502.911C268.808 502.937 268.031 502.432 267.64 501.376C267.412 500.757 267.298 500.097 267.11 499.471C266.921 498.845 266.646 498.683 266.006 498.905C261.544 500.393 257.084 501.891 252.625 503.398C251.143 503.9 249.669 504.452 248.171 504.926C247.527 505.128 247.207 505.432 247.271 506.153C247.332 506.803 247.307 507.479 247.214 508.127C247.048 509.247 246.227 509.808 245.222 510.088C244.381 510.327 243.494 509.883 242.97 508.933C242.694 508.436 242.536 507.865 242.295 507.341C242.138 506.994 241.826 506.9 241.473 507.027C238.771 507.971 236.947 509.962 235.368 512.232C235.007 512.747 235.153 513.31 235.47 513.861C236.164 515.063 237.164 515.893 238.429 516.399C239.506 516.827 240.615 517.149 241.725 517.48C242.911 517.837 244.117 518.14 245.31 518.476C245.74 518.599 246.283 518.568 246.443 519.148C245.976 519.154 245.479 519.268 245.031 519.159C243.096 518.718 241.176 518.244 239.26 517.738C237.708 517.328 236.356 516.574 235.306 515.316C235.149 515.132 234.963 514.953 234.756 514.829C234.686 514.781 234.419 514.872 234.41 514.934C234.197 515.809 233.936 516.692 233.839 517.585C233.526 520.472 233.652 523.369 234.077 526.23C234.487 529.012 235.093 531.757 235.611 534.519L235.609 534.56ZM289.612 583.147C289.612 583.147 289.595 583.058 289.588 583.019C290.64 582.822 291.701 582.622 292.753 582.425C299.327 581.131 305.762 579.313 312.154 577.321C319.133 575.147 325.777 572.273 332.055 568.531C334.901 566.837 337.499 564.793 339.921 562.518C341.193 561.323 342.328 560.001 343.17 558.469C344.833 555.451 344.821 552.462 342.808 549.594C341.616 547.905 339.916 546.921 337.994 546.275C333.389 544.727 328.711 544.954 324.022 545.721C323.026 545.888 322.933 546.047 323.114 547.062C323.206 547.553 323.316 548.031 323.418 548.521C323.528 549.11 323.904 549.325 324.481 549.308C325.058 549.291 325.637 549.285 326.213 549.319C327.693 549.397 329.191 549.411 330.646 549.627C331.609 549.772 332.571 550.131 333.447 550.567C335.364 551.509 336.141 553.103 335.88 555.238C335.682 556.842 335.085 558.267 334.079 559.524C332.719 561.223 331.048 562.565 329.135 563.595C323.75 566.508 318.156 568.961 312.421 571.095C311.584 571.405 310.655 571.497 309.774 571.683C309.705 571.696 309.63 571.618 309.552 571.582C309.612 571.469 309.659 571.338 309.732 571.243C309.782 571.183 309.88 571.164 309.957 571.14C315.771 568.777 321.423 566.039 327.048 563.264C328.976 562.312 330.796 561.167 332.352 559.644C333.433 558.576 334.252 557.354 334.613 555.862C335.088 553.891 334.438 552.436 332.637 551.563C331.898 551.203 331.095 550.937 330.294 550.792C329.157 550.588 328.004 550.458 326.855 550.409C323.45 550.264 323.807 549.892 323.884 553.337C323.884 553.5 323.895 553.671 323.895 553.834C323.827 557.051 322.53 559.574 319.719 561.24C319.004 561.659 318.322 562.144 317.571 562.478C314.469 563.843 311.383 565.236 308.24 566.487C303.404 568.421 298.445 569.972 293.451 571.448C289.43 572.63 285.341 572.959 281.237 573.373C277.712 573.729 274.151 573.786 270.613 574.125C266.806 574.493 263.014 574.4 259.241 573.979C256.613 573.688 254.035 573.073 251.529 572.19C249.164 571.351 247.386 569.844 246.145 567.675C245.814 567.106 245.539 566.507 245.216 565.926C244.895 565.356 244.525 565.171 244.018 565.398C242.222 566.234 240.408 567.032 238.661 567.97C237.885 568.39 237.169 569.023 236.583 569.693C235.546 570.894 235.575 572.568 236.606 573.778C237.076 574.331 237.674 574.86 238.321 575.166C239.437 575.689 240.601 576.142 241.801 576.416C245.532 577.262 249.348 577.32 253.143 577.157C259.826 576.881 266.502 576.452 273.17 576.097C273.322 576.089 273.473 576.193 273.616 576.247C273.493 576.352 273.395 576.533 273.257 576.559C271.137 576.916 269.034 577.371 266.902 577.558C263.37 577.874 259.818 578.032 256.27 578.209C252.229 578.417 248.182 578.485 244.146 578.011C242.17 577.781 240.195 577.45 238.423 576.52C237.487 576.035 236.539 575.429 235.837 574.665C234.266 572.966 234.146 570.699 235.553 569.031C236.186 568.282 236.889 567.529 237.711 567.029C238.971 566.263 240.366 565.727 241.712 565.088C242.524 564.702 243.591 564.532 244.095 563.908C244.722 563.129 243.646 562.273 243.531 561.389C243.455 560.823 243.23 560.276 243.037 559.732C242.834 559.139 242.477 559.023 241.888 559.357C239.303 560.819 236.662 562.199 234.153 563.789C232.206 565.019 230.355 566.435 228.561 567.88C226.739 569.341 225.33 571.213 224.275 573.293C222.723 576.352 223.464 578.95 225.738 580.874C226.732 581.725 227.875 582.447 229.058 583.008C230.396 583.632 231.825 584.086 233.254 584.49C239.03 586.103 244.954 586.548 250.91 586.682C258.267 586.849 265.61 586.397 272.914 585.526C278.496 584.855 284.048 583.966 289.606 583.168L289.612 583.147ZM281.406 552.148C284.148 551.522 286.963 550.851 289.792 550.26C293.355 549.51 296.904 548.742 300.369 547.635C304.547 546.312 308.685 544.884 312.561 542.824C314.671 541.706 316.655 540.347 318.698 539.089C319.346 538.693 319.537 538.138 319.358 537.398C319.111 536.356 318.902 535.296 318.705 534.245C318.593 533.645 318.361 533.17 317.794 532.859C316.307 532.039 315.618 530.642 315.233 529.076C314.96 527.947 314.756 526.805 314.475 525.688C313.953 523.608 313.438 521.517 312.82 519.466C312.542 518.531 312.104 517.606 311.573 516.78C310.951 515.798 310.149 514.778 308.819 515.008C307.538 515.228 306.987 516.358 306.661 517.498C306.274 518.853 306.22 520.246 306.293 521.667C306.373 523.229 306.313 524.808 306.176 526.359C306.043 527.819 305.29 529.008 304.137 529.916C302.525 531.195 300.925 531.068 299.54 529.547C298.578 528.487 297.976 527.226 297.464 525.908C297.072 524.903 296.776 523.87 296.319 522.897C295.943 522.083 295.485 521.273 294.917 520.576C294.14 519.633 292.952 519.591 292.069 520.418C291.653 520.802 291.265 521.281 291.056 521.799C290.689 522.712 290.348 523.661 290.193 524.626C289.889 526.586 289.885 528.571 290.246 530.548C290.642 532.661 291.078 534.767 291.395 536.895C291.619 538.359 291.776 539.845 291.79 541.328C291.798 543.107 291.231 544.75 289.962 546.066C288.43 547.666 286.21 547.655 284.724 546.021C283.762 544.961 283.137 543.694 282.874 542.288C282.264 539.035 281.714 535.781 281.104 532.527C280.846 531.151 280.613 529.75 280.21 528.412C279.755 526.91 279.095 525.507 277.738 524.511C276.239 523.408 274.374 524.094 273.635 525.311C273.107 526.183 272.739 527.096 272.725 528.106C272.707 529.259 272.821 530.408 272.854 531.562C272.893 532.796 273.046 534.049 272.877 535.261C272.726 536.358 272.051 537.258 270.863 537.541C269.791 537.793 268.89 537.383 268.233 536.539C267.831 536.024 267.442 535.467 267.225 534.856C266.779 533.617 266.428 532.34 266.078 531.073C265.8 530.026 265.465 529 264.686 528.21C263.782 527.291 262.479 527.617 262.227 528.875C262.07 529.667 262.048 530.526 262.188 531.324C262.411 532.625 262.783 533.899 263.152 535.162C263.65 536.839 263.957 538.532 263.881 540.296C263.796 542.123 263.119 543.664 261.762 544.895C259.978 546.502 257.8 546.28 256.43 544.349C256.099 543.882 255.828 543.363 255.597 542.837C254.74 540.922 254.45 538.89 254.245 536.823C254.028 534.686 253.651 532.569 253.237 530.47C253.089 529.684 252.716 528.889 252.293 528.205C251.452 526.867 249.892 526.905 249.086 528.247C248.8 528.728 248.573 529.31 248.513 529.86C248.392 531.002 248.376 532.165 248.378 533.314C248.372 535.289 248.48 537.273 248.403 539.252C248.368 540.042 248.078 540.879 247.702 541.591C247.032 542.846 245.538 543.014 244.603 541.938C244.083 541.334 243.672 540.556 243.458 539.792C243.14 538.692 243.052 537.518 242.838 536.378C242.701 535.651 242.563 534.914 242.34 534.213C242.113 533.492 241.519 533.034 241.129 533.179C240.489 533.4 240.344 533.987 240.237 534.556C240.175 534.873 240.218 535.211 240.198 535.541C240.115 537.377 240.538 539.14 240.944 540.925C241.386 542.847 241.851 544.784 241.25 546.789C241.146 547.155 241.209 547.601 241.302 547.99C241.549 549.033 242.003 550.046 242.109 551.095C242.261 552.613 243.112 553.247 244.459 553.483C244.87 553.558 245.267 553.667 245.67 553.754C252.454 555.045 259.298 555.298 266.141 554.462C271.225 553.844 276.276 552.948 281.408 552.158L281.406 552.148ZM288.962 571.059C293.62 570.287 297.97 568.688 302.353 567.214C306.278 565.898 310.038 564.196 313.839 562.598C315.735 561.805 317.672 561.065 319.379 559.859C321.104 558.641 322.143 557.021 322.384 554.941C322.711 552.021 322.178 549.18 321.408 546.374C321.306 545.997 320.96 545.939 320.627 546.175C320.222 546.454 319.818 546.744 319.417 547.043C317.235 548.703 314.847 550.016 312.327 551.069C305.208 554.012 297.845 556.197 290.278 557.626C287.281 558.189 284.236 558.556 281.218 559.01C275.33 559.891 269.421 560.501 263.475 560.751C257.266 561.01 251.094 561.029 245.041 559.295C244.491 559.133 244.204 559.391 244.361 559.901C245.175 562.505 245.997 565.098 247.434 567.443C248.459 569.113 249.842 570.41 251.743 571C253.557 571.555 255.38 572.108 257.231 572.484C261.725 573.391 266.267 573.251 270.803 572.858C273.184 572.645 275.57 572.401 277.965 572.257C281.676 572.029 285.389 571.862 288.964 571.069L288.962 571.059ZM285.189 557.126C285.189 557.126 285.206 557.214 285.213 557.254C286.767 557.023 288.322 556.854 289.862 556.545C291.48 556.221 293.055 555.722 294.669 555.378C299.611 554.329 304.374 552.713 309.112 551.011C312.305 549.862 315.406 548.497 318.176 546.502C319.1 545.841 319.937 545.043 320.816 544.308C320.587 543.354 320.357 542.4 320.127 541.446C320.047 541.125 320.021 540.774 319.878 540.496C319.797 540.338 319.479 540.163 319.326 540.212C319.027 540.299 318.752 540.514 318.481 540.697C313.823 543.748 308.759 545.929 303.519 547.776C298.519 549.538 293.368 550.718 288.21 551.859C280.228 553.621 272.149 554.922 263.999 555.627C257.132 556.223 250.317 555.853 243.602 554.173C243.058 554.04 242.871 554.238 242.958 554.812C243.398 557.751 243.612 558.027 246.547 558.646C251.176 559.62 255.884 559.825 260.587 559.675C263.632 559.582 266.676 559.266 269.722 559.071C274.095 558.79 278.434 558.271 282.751 557.583C283.561 557.452 284.373 557.279 285.189 557.126ZM265.39 485.966C265.39 485.966 265.331 485.977 265.302 485.983C266.306 490.577 267.308 495.16 268.32 499.742C268.406 500.143 268.523 500.549 268.685 500.925C268.984 501.653 269.606 501.933 270.537 501.687C271.477 501.439 272.511 501.256 272.778 500.076C272.826 499.843 272.767 499.58 272.732 499.342C272.657 498.939 272.569 498.528 272.464 498.131C272.032 496.37 271.541 494.621 271.158 492.851C270.705 490.759 270.387 488.631 269.912 486.532C269.132 483.077 268.292 479.633 267.433 476.192C267.303 475.657 266.946 475.164 266.625 474.706C266.527 474.561 266.194 474.573 265.969 474.513C265.927 474.725 265.846 474.943 265.845 475.157C265.845 475.371 265.987 475.751 265.96 475.766C265.599 475.905 265.203 476.071 264.832 476.049C264.411 476.026 264.457 475.621 264.465 475.284C264.472 475.16 264.378 475.036 264.334 474.912C264.202 474.967 264.035 474.998 263.932 475.099C263.418 475.562 263.568 476.144 263.675 476.714C264.254 479.8 264.831 482.876 265.41 485.963L265.39 485.966ZM243.954 491.127C243.862 490.635 243.772 490.154 243.68 489.662C243.239 487.476 242.828 485.284 242.33 483.119C242.194 482.503 241.823 481.932 241.522 481.358C241.493 481.312 241.237 481.36 241.103 481.406C241.044 481.417 240.948 481.557 240.966 481.594C241.08 481.878 241.154 482.22 241.362 482.405C241.752 482.749 241.57 482.916 241.263 483.126C240.65 483.546 239.573 483.117 239.308 483.879C239.081 484.512 239.387 485.329 239.443 486.062C239.501 486.804 239.468 487.553 239.585 488.284C240.596 494.646 241.781 500.966 243.487 507.188C243.617 507.662 243.816 508.124 244.048 508.548C244.333 509.095 245.056 509.204 245.522 508.76C245.808 508.493 246.085 508.125 246.169 507.764C246.285 507.294 246.26 506.78 246.191 506.305C245.975 504.666 245.581 503.051 245.496 501.409C245.303 497.935 244.566 494.553 243.946 491.138L243.954 491.127ZM291.86 484.318C291.801 484.329 291.742 484.34 291.683 484.351C292.306 487.673 292.928 490.985 293.551 494.308C293.673 494.956 293.863 495.592 294.099 496.199C294.354 496.853 295.086 497.123 295.752 496.876C296.42 496.639 296.935 496.186 296.93 495.454C296.923 494.55 296.836 493.651 296.68 492.764C295.863 487.973 294.947 483.2 294.415 478.355C294.179 476.232 293.714 474.132 293.268 472.028C293.159 471.499 292.757 471.035 292.472 470.549C292.455 470.512 292.31 470.498 292.255 470.529C292.128 470.614 291.966 470.725 291.939 470.853C291.914 470.99 292 471.177 292.075 471.305C292.281 471.643 292.279 471.959 291.899 472.102C291.536 472.231 291.095 472.374 290.753 472.286C290.315 472.175 290.608 471.784 290.653 471.481C290.68 471.302 290.512 471.11 290.426 470.923C290.273 471.084 289.989 471.249 289.981 471.423C289.956 472.486 289.865 473.572 290.039 474.607C290.578 477.864 291.234 481.088 291.842 484.332L291.86 484.318ZM292.524 465.727C292.619 466.615 292.631 466.948 292.7 467.261C292.724 467.389 292.898 467.559 293 467.561C293.134 467.566 293.302 467.433 293.413 467.32C294.029 466.696 294.342 465.925 294.14 465.068C293.927 464.202 293.703 463.278 293.239 462.541C292.097 460.74 290.808 459.018 289.566 457.278C289.427 457.08 289.217 456.936 289.024 456.779C288.757 456.544 288.322 456.666 288.245 457.017C287.646 459.845 287.306 462.697 287.37 465.585C287.377 466.112 287.761 466.641 287.98 467.159C288.003 467.226 288.122 467.316 288.159 467.299C288.263 467.259 288.412 467.18 288.426 467.096C288.477 466.771 288.477 466.445 288.507 466.114C288.643 464.725 288.779 463.336 288.945 461.942C288.996 461.454 289.075 460.9 289.69 460.815C290.277 460.746 290.567 461.261 290.77 461.691C291.466 463.178 292.095 464.688 292.54 465.704L292.524 465.727ZM240.831 476.105C240.501 474.722 239.872 473.487 239.001 472.368C238.959 472.305 238.824 472.239 238.798 472.264C238.699 472.333 238.557 472.442 238.556 472.544C238.421 474.268 238.277 475.994 238.225 477.723C238.215 478.051 238.559 478.475 238.849 478.715C239.245 479.038 239.567 478.642 239.925 478.432C240.849 477.882 241.045 477.082 240.841 476.103L240.831 476.105ZM262.097 469.115C262.257 469.695 262.274 470.058 262.453 470.309C262.677 470.634 263.003 470.908 263.338 471.12C263.42 471.176 263.828 470.967 263.853 470.83C263.918 470.523 263.769 470.164 263.844 469.855C263.997 469.155 264.545 469.907 264.801 469.645C264.936 469.498 265.049 469.232 265.022 469.034C264.813 467.486 263.829 466.358 262.889 465.201C262.849 465.148 262.706 465.093 262.671 465.12C262.564 465.201 262.413 465.321 262.402 465.425C262.281 466.73 262.19 468.039 262.107 469.113L262.097 469.115ZM289.471 466.808C289.628 467.155 289.686 467.409 289.832 467.595C289.979 467.781 290.21 467.982 290.418 468.004C290.573 468.016 290.92 467.696 290.89 467.59C290.71 466.851 291.734 466.882 291.683 466.393C291.63 465.844 291.317 465.312 291.106 464.782C290.884 464.254 290.671 463.714 290.403 463.205C290.307 463.019 290.081 462.899 289.912 462.758C289.871 462.918 289.808 463.072 289.798 463.237C289.684 464.469 289.579 465.699 289.473 466.818L289.471 466.808ZM240.2 481.799C239.833 481.685 239.478 481.528 239.446 481.574C239.282 481.839 239.186 482.142 239.079 482.437C239.276 482.512 239.566 482.701 239.645 482.636C239.853 482.444 239.982 482.155 240.2 481.799Z" fill="white"/>
<path d="M270.553 518.858C267.093 519.67 263.599 520.244 260.039 520.464C256.9 520.656 253.776 520.489 250.661 520.046C250.254 519.99 249.861 519.85 249.477 519.698C249.346 519.652 249.228 519.46 249.203 519.322C249.19 519.254 249.408 519.06 249.512 519.071C250.826 519.191 252.134 519.383 253.445 519.483C257.58 519.776 261.701 519.562 265.766 518.83C269.83 518.098 273.901 517.345 277.912 516.379C281.757 515.454 285.5 514.142 289.16 512.611C291.131 511.783 293.152 511.058 295.156 510.296C295.28 510.252 295.461 510.35 295.62 510.382C295.54 510.498 295.481 510.672 295.359 510.726C293.652 511.554 291.975 512.429 290.234 513.183C286.07 515.012 281.773 516.459 277.357 517.541C275.11 518.095 272.82 518.413 270.539 518.84L270.553 518.858Z" fill="white"/>
<path d="M294.083 507.882C294.007 507.856 293.929 507.819 293.852 507.793C293.871 507.729 293.887 507.654 293.929 507.606C294.112 507.439 294.279 507.245 294.492 507.134C298.075 505.139 301.649 503.146 305.237 501.171C305.357 501.107 305.528 501.096 305.679 501.088C305.74 501.087 305.827 501.172 305.858 501.227C305.89 501.292 305.928 501.438 305.902 501.463C305.203 502.022 304.536 502.645 303.778 503.103C300.826 504.888 297.733 506.404 294.572 507.78C294.432 507.847 294.258 507.839 294.101 507.869L294.083 507.882Z" fill="white"/>
<path d="M249.256 516.352C247.74 517.002 246.172 516.727 244.631 516.538C244.411 516.508 244.213 516.209 244.007 516.034C244.239 515.97 244.472 515.855 244.698 515.864C246.092 515.918 247.491 516.001 248.892 516.094C249.016 516.102 249.123 516.295 249.234 516.397L249.266 516.35L249.256 516.352Z" fill="white"/>
<path d="M257.113 507.471C257.044 507.698 257.011 507.846 256.944 507.981C256.928 508.004 256.795 507.999 256.729 507.97C256.315 507.824 256.071 507.555 256.068 507.107C256.065 507.037 256.094 506.919 256.141 506.9C256.254 506.849 256.445 506.782 256.515 506.83C256.746 507.031 256.933 507.271 257.113 507.471Z" fill="white"/>
<path d="M285.233 506.103C284.962 506.012 284.775 505.996 284.718 505.905C284.529 505.604 284.771 505.213 285.232 505.066C285.348 505.034 285.509 505.136 285.648 505.171C285.513 505.481 285.368 505.793 285.233 506.103Z" fill="white"/>
<path d="M287.57 506.52C287.363 506.772 287.187 507.029 286.951 507.236C286.872 507.302 286.633 507.275 286.528 507.203C286.433 507.13 286.353 506.87 286.405 506.819C286.619 506.606 286.857 506.409 287.124 506.257C287.179 506.227 287.362 506.386 287.57 506.52Z" fill="white"/>
<path d="M258.846 506.566C258.632 506.728 258.428 506.888 258.417 506.88C258.237 506.68 258.065 506.468 257.93 506.239C257.925 506.21 258.167 505.981 258.19 505.997C258.415 506.168 258.615 506.365 258.848 506.576L258.846 506.566Z" fill="white"/>
<path d="M249.226 516.408C249.373 516.381 249.531 516.3 249.674 516.304C249.766 516.307 249.851 516.433 249.936 516.509C249.885 516.559 249.801 516.656 249.778 516.64C249.6 516.562 249.427 516.452 249.256 516.352L249.224 516.398L249.226 516.408Z" fill="white"/>
<path d="M281.446 575.684C280.543 575.64 279.801 576.349 279.076 575.63C279.755 575.401 280.426 575.072 281.119 574.972C281.921 574.852 282.753 574.462 283.581 574.917C282.819 575.193 282.065 575.456 281.446 575.684Z" fill="white"/>
<path d="M308.994 540.024C308.707 539.905 308.499 539.883 308.428 539.774C308.357 539.665 308.356 539.391 308.447 539.333C308.758 539.092 309.096 538.886 309.441 538.719C309.524 538.673 309.762 538.801 309.831 538.9C309.893 539.011 309.898 539.254 309.81 539.332C309.546 539.605 309.222 539.829 308.984 540.026L308.994 540.024Z" fill="white"/>
<path d="M305.046 538.72C305.164 538.809 305.383 538.89 305.39 538.981C305.405 539.497 305.18 539.925 304.698 540.118C304.566 540.173 304.207 539.996 304.171 539.86C304.009 539.321 304.455 538.769 305.054 538.708L305.046 538.72Z" fill="white"/>
<path d="M271.742 543.369C272.079 543.703 272.348 543.886 272.478 544.147C272.541 544.267 272.357 544.638 272.205 544.697C271.779 544.868 271.625 544.48 271.538 544.181C271.485 544.008 271.635 543.776 271.752 543.367L271.742 543.369Z" fill="white"/>
<path d="M268.806 546.647C269.177 546.618 269.619 547.074 269.532 547.426C269.51 547.522 269.229 547.656 269.193 547.622C268.973 547.429 268.77 547.213 268.602 546.97C268.573 546.924 268.744 546.75 268.804 546.637L268.806 546.647Z" fill="white"/>
<path d="M287.19 563.455C287.763 563.47 288.294 563.971 288.321 564.546C288.325 564.677 287.982 564.965 287.875 564.935C287.403 564.809 286.987 564.542 286.964 563.986C286.951 563.806 287.118 563.612 287.19 563.455Z" fill="white"/>
<path d="M283.812 566.328C283.596 566.531 283.45 566.731 283.405 566.709C283.058 566.54 282.727 566.348 282.42 566.121C282.336 566.055 282.324 565.721 282.364 565.714C282.553 565.638 282.825 565.516 282.953 565.603C283.273 565.788 283.522 566.087 283.815 566.347L283.812 566.328Z" fill="white"/>
</g>
<g clip-path="url(#clip3_231_173)">
<path d="M28.7447 54C34.0553 53.8026 37.8857 55.6245 40.3274 60.1034C42.6013 64.309 44.6309 68.6208 46.157 73.1301C48.8428 81.0857 51.4219 89.0718 54.0772 97.0427C54.4282 98.1054 55.0081 99.0923 55.3744 100.155C56.2137 102.645 56.5952 105.089 54.0162 106.927C53.3142 107.428 53.2684 108.172 53.1921 108.931C52.6275 114.412 52.0323 119.892 51.4524 125.373C51.254 127.256 50.7962 127.696 48.8581 127.894C46.7064 128.121 44.6004 127.879 42.4792 127.423C33.3686 125.48 25.5552 121.016 18.6421 114.973C15.239 111.998 12.1869 108.627 8.9822 105.423C8.44808 104.892 7.99026 104.285 7.48666 103.723C4.89236 100.808 4.00725 97.3919 4.61767 93.581C5.16705 90.2409 5.80799 86.9159 6.40316 83.5909C6.50998 82.9684 6.66259 82.3611 6.73889 81.7386C6.81519 81.0706 6.64733 80.6454 5.89956 80.3114C3.32052 79.2335 2.83218 78.3832 3.04583 75.8477C3.07635 75.4682 3.10687 75.0886 3.2137 74.7394C4.9534 68.3779 8.11234 62.9577 13.4841 58.9191C16.6888 56.5203 20.3361 55.2601 24.197 54.5162C25.7994 54.2125 27.4475 54.1518 28.7447 54.0152V54ZM27.9664 79.446C27.9664 78.9602 27.7832 78.6262 27.2339 78.6565C27.1423 77.1383 25.8604 76.3488 25.0668 75.2708C22.3505 71.5663 18.8558 68.3172 18.0622 63.4739C17.9859 63.0033 17.2229 62.9577 16.8414 63.3373C16.2615 63.9142 15.941 64.6126 16.1699 65.3718C16.4599 66.3131 16.8567 67.2544 17.3603 68.1198C19.8019 72.2647 23.1898 75.5896 26.8981 78.5958C26.9744 78.6565 27.1423 78.6262 27.2644 78.6413C27.5238 78.8843 27.7832 79.1424 28.0427 79.3853C28.0732 79.4916 28.0884 79.5978 28.1342 79.6889C28.1647 79.7345 28.2716 79.7345 28.3479 79.7497C28.2258 79.6586 28.0884 79.5523 27.9664 79.4612V79.446ZM46.9963 116.264C47.3626 116.583 47.8051 116.841 48.0645 117.22C48.7208 118.131 49.2854 119.118 49.8958 120.059C49.9416 120.135 50.1095 120.166 50.2316 120.166C50.3079 120.166 50.4452 120.075 50.4452 120.014C50.4757 118.648 50.491 117.281 50.5062 115.93C49.6211 115.505 48.7665 115.034 47.8662 114.654C47.1794 114.351 46.4469 114.153 45.7449 113.88C45.043 113.607 44.3715 113.258 43.6695 113C43.4711 112.924 43.1506 112.954 43.0133 113.075C42.9065 113.167 42.937 113.501 42.998 113.713C43.0896 114.078 43.2117 114.442 43.3948 114.761C44.2647 116.279 45.0735 117.828 46.0654 119.27C46.3554 119.695 47.271 120.075 47.6983 119.923C48.6597 119.574 47.7746 118.951 47.622 118.48C47.4236 117.767 47.1337 117.084 46.8895 116.4L46.981 116.325L46.9963 116.264ZM21.2364 100.428C20.275 99.6389 19.3289 98.8342 18.3522 98.0751C18.1843 97.9384 17.8333 97.817 17.696 97.8929C17.5281 97.984 17.406 98.3484 17.4518 98.5457C17.8333 100.231 18.1843 101.931 18.6879 103.586C19.0389 104.725 20.0461 105.332 21.0686 105.818C21.1601 105.864 21.5417 105.59 21.5264 105.545C21.2364 104.467 20.9007 103.404 20.6108 102.326C20.3971 101.522 20.7023 100.869 21.2975 100.322C21.3738 102.615 22.5031 104.604 23.2661 106.684C23.5408 107.428 24.2886 108.065 24.9448 108.597C25.3873 108.961 26.1961 109.401 26.5929 109.234C27.3407 108.931 26.7608 108.187 26.6387 107.625C26.5624 107.261 26.4556 106.881 26.4861 106.517C26.5166 106.167 26.6845 105.833 26.8066 105.499C26.9439 105.697 27.127 105.879 27.2033 106.091C27.5391 107.033 27.9053 107.959 28.1342 108.931C28.592 110.874 30.0571 111.724 31.751 112.347C32.2851 112.544 32.3919 112.104 32.453 111.77C32.5445 111.284 32.5445 110.783 32.5751 110.282L32.4988 110.343C33.277 110.479 33.3686 111.178 33.5212 111.739C34.0553 113.607 35.4288 114.579 37.1227 115.231C37.3364 115.307 37.6416 115.383 37.8094 115.292C37.9468 115.216 38.0078 114.882 37.9926 114.67C37.9468 113.941 37.84 113.212 37.7484 112.468C39.0303 112.939 38.9387 114.229 39.3355 115.201C39.6865 116.051 40.129 116.75 40.9684 117.129C41.7467 117.478 42.5402 117.782 43.3338 118.116C43.9747 117.16 42.9675 116.552 42.7996 115.778C42.6623 115.186 42.2503 114.639 42.1587 114.047C41.8535 111.952 40.2206 111.345 38.5419 110.798C38.4351 110.768 38.0994 111.223 37.9926 111.496C37.8705 111.831 37.8857 112.225 37.84 112.59C37.6416 112.453 37.3058 112.347 37.2906 112.195C37.0617 110.449 36.085 109.341 34.5131 108.566C29.8434 106.243 25.5552 103.313 21.2059 100.459L21.2364 100.428ZM15.3764 78.1251C15.5442 76.7891 14.8423 76.0755 13.6825 76.288C11.9885 76.5917 10.3404 77.4116 9.60788 78.7628C8.73803 80.3418 8.52438 82.3155 8.23443 84.1526C8.0513 85.3521 8.96694 86.2326 9.68418 87.1132C14.4913 93.0041 20.1987 97.8777 26.5471 102.053C33.6128 106.699 41.182 110.358 49.0412 113.47C50.7046 114.123 51.1624 114.032 51.3608 112.013C51.5134 110.525 51.7576 109.037 51.9255 107.549C52.0018 106.805 51.0404 105.773 50.2621 105.803C49.7737 105.818 49.3007 106.046 48.8276 106.152C47.0268 106.593 46.2943 106.289 45.516 104.68C45.3024 104.239 45.2108 103.723 45.0277 103.268C44.7072 102.478 44.2341 102.235 43.2727 102.417C40.7395 102.903 40.2511 102.584 39.2134 100.322C39.1676 100.216 39.1371 100.079 39.0913 99.9729C38.5521 98.7583 37.5449 98.3231 36.0697 98.6672C35.9476 98.6976 35.8408 98.7735 35.7187 98.7887C34.0096 99.1379 32.7124 98.485 32.2088 96.7846C31.8578 95.6003 31.8425 94.325 31.5984 93.0952C31.4916 92.579 31.11 92.2298 30.4996 92.4575C30.1486 92.5942 29.7976 92.7612 29.5077 92.9737C27.9358 94.1124 26.5929 93.7177 25.2195 92.1387C24.5633 91.3947 24.1054 90.4838 23.6476 89.588C22.3199 86.931 22.3352 86.931 19.5578 87.6446C16.582 88.4038 14.9338 87.341 14.5523 84.3196C14.4455 83.4694 14.5828 82.5736 14.7202 81.7082C14.9033 80.4784 15.1933 79.2486 15.4222 78.11L15.3764 78.1251ZM47.3473 126.117C47.7288 126.117 48.1103 126.133 48.4766 126.117C49.7432 126.041 50.3536 125.495 50.5215 124.356C50.6894 123.233 50.3079 122.732 49.0107 122.231C40.2053 118.83 31.7662 114.7 23.7392 109.735C17.696 106 12.3853 101.461 8.23443 95.6459C7.88343 95.16 7.73083 93.9758 6.75415 94.5375C6.3879 94.7501 6.22003 95.7066 6.32685 96.2532C6.58628 97.5892 6.87624 98.9708 7.50192 100.155C8.24969 101.582 9.22637 102.949 10.3556 104.087C13.8961 107.64 17.4518 111.208 21.2364 114.503C26.013 118.647 31.4916 121.76 37.4584 123.916C40.6479 125.07 43.9137 126.011 47.3626 126.102L47.3473 126.117ZM33.8569 70.0935C35.4746 70.0632 36.9701 68.2868 36.9396 66.4345C36.9091 65.0074 35.1541 63.5802 33.4754 63.6258C32.2241 63.6561 30.4844 65.7058 30.5149 67.0874C30.5454 68.5297 32.3309 70.1239 33.8569 70.1087V70.0935ZM11.9733 96.3291C11.8054 95.6155 11.4239 94.7956 11.4239 93.9606C11.4239 91.501 10.0352 89.8157 8.44808 88.1912C8.00552 87.7509 7.71557 87.9027 7.42562 88.5556C6.8915 89.7854 6.84571 90.9696 7.66979 92.0628C8.86011 93.6418 10.081 95.2056 11.3018 96.7542C11.3781 96.8605 11.6681 96.8301 11.8359 96.7997C11.8817 96.7997 11.897 96.5872 11.9733 96.3139V96.3291ZM12.7973 95.2663H12.7516C13.0263 96.3594 13.2704 97.4526 13.6062 98.5154C13.7893 99.0923 14.0945 99.6541 14.4455 100.14C15.1933 101.157 16.3683 101.78 16.4141 101.415C16.5209 100.702 16.5209 99.9425 16.4141 99.229C16.0784 96.8301 15.2848 94.6742 13.072 93.3381C12.9805 93.2774 12.7668 93.2318 12.721 93.2774C12.5837 93.4444 12.37 93.6721 12.4006 93.8391C12.4769 94.325 12.66 94.7956 12.7973 95.2663Z" fill="white"/>
</g>
<defs>
<clipPath id="clip0_231_173">
<rect width="59.9" height="273.47" fill="white" transform="translate(0 562)"/>
</clipPath>
<clipPath id="clip1_231_173">
<rect width="49.646" height="99.555" fill="white" transform="translate(279 11.9283) rotate(-13.9023)"/>
</clipPath>
<clipPath id="clip2_231_173">
<rect width="125.76" height="129.56" fill="white" transform="translate(202 469.185) rotate(-10.624)"/>
</clipPath>
<clipPath id="clip3_231_173">
<rect width="53" height="74" fill="white" transform="translate(3 54)"/>
</clipPath>
</defs>
</svg>
