<svg width="1006" height="600" viewBox="0 0 1006 600" fill="none" xmlns="http://www.w3.org/2000/svg">
<g clip-path="url(#clip0_239_34)">
<path d="M819.405 490.382C818.832 486.623 818.269 482.863 817.686 479.106C817.57 478.324 817.623 477.632 818.236 477.049C818.504 476.795 818.615 476.52 818.066 476.41C815.784 475.963 814.759 474.405 814.465 472.242C814.354 471.429 814.185 470.585 814.267 469.776C814.514 467.4 814.862 465.025 815.19 462.654C815.231 462.331 815.355 462.013 815.482 461.714C815.775 460.998 816.44 460.853 817.102 461.349C817.233 461.447 817.391 461.529 817.487 461.664C819.64 464.302 821.499 467.107 822.334 470.471C822.83 472.464 822.695 474.239 820.939 475.616C820.691 475.815 820.553 476.167 821.098 476.248C822.566 476.481 823.071 477.546 823.43 478.812C824.522 482.626 825.4 486.49 826.161 490.387C826.521 492.252 826.891 494.116 827.283 495.986C827.399 496.554 827.518 497.132 827.757 497.647C827.862 497.882 828.258 498.092 828.524 498.103C828.924 498.12 829.327 497.932 829.73 497.857C833.065 497.252 836.386 496.568 839.736 496.092C841.767 495.802 843.85 495.839 845.904 495.728C846.558 495.687 846.826 495.433 846.745 494.787C846.561 493.316 846.355 491.839 846.112 490.378C845.463 486.542 844.777 482.723 844.149 478.883C843.971 477.828 843.972 476.749 843.863 475.681C843.774 474.823 843.887 474.018 844.408 473.32C844.878 472.683 844.463 472.587 843.958 472.336C842.196 471.456 841.249 470.097 841.304 468.001C841.375 465.343 841.782 462.743 842.208 460.13C842.259 459.805 842.361 459.48 842.467 459.176C842.67 458.578 843.327 458.231 843.845 458.551C844.466 458.933 845.136 459.357 845.568 459.927C846.821 461.564 847.986 463.268 849.132 464.986C849.487 465.52 849.7 466.172 849.899 466.796C850.48 468.702 850.291 470.406 848.531 471.651C848.216 471.873 848.096 472.099 848.352 472.438C849.305 473.663 849.589 475.126 849.815 476.6C850.47 481.014 851.086 485.437 851.761 489.848C852.021 491.559 852.341 493.269 852.682 494.976C852.861 495.929 853.02 496.072 853.976 496.178C855.866 496.383 857.727 496.705 859.554 497.278C863.423 498.486 866.464 500.703 868.568 504.216C869.756 506.211 870.719 508.309 871.552 510.473C873.182 514.715 874.85 518.94 875.791 523.413C876.253 525.605 876.564 527.806 876.527 530.051C876.487 532.063 876.364 534.009 875.03 535.684C874.815 535.948 874.838 536.452 874.849 536.837C874.864 537.241 875.001 537.643 875.088 538.054C875.612 540.306 876.136 542.558 876.662 544.819C876.774 545.307 876.894 545.783 877.025 546.267C877.357 547.436 877.372 547.464 878.528 547.389C880.004 547.285 881.491 547.129 882.963 547.005C886.622 546.715 890.239 546.902 893.713 548.173C894.717 548.534 895.684 549.025 896.585 549.598C900.717 552.211 902.056 557.993 899.414 562.294C898.284 564.134 896.915 565.785 895.303 567.227C890.959 571.135 886.034 574.114 880.783 576.604C874.867 579.403 868.699 581.506 862.432 583.353C855.048 585.532 847.543 587.184 839.943 588.376C835.781 589.024 831.594 589.484 827.403 589.924C823.792 590.306 820.171 590.64 816.546 590.841C808.529 591.277 800.523 591.12 792.605 589.696C790.098 589.24 787.63 588.502 785.181 587.761C783.272 587.183 781.536 586.176 780.036 584.85C777.024 582.189 776.426 579.056 778.279 575.483C779.393 573.341 780.966 571.53 782.732 569.876C785.534 567.244 788.821 565.346 792.19 563.564C793.578 562.826 795.002 562.172 796.389 561.433C797.37 560.914 797.419 560.793 797.185 559.656C796.647 557.061 796.072 554.483 795.525 551.889C795.415 551.36 795.183 550.987 794.595 550.893C793.213 550.685 792.42 549.765 791.938 548.553C791.573 547.635 791.203 546.697 791.025 545.744C790.02 540.55 789.053 535.339 788.117 530.132C787.508 526.777 787.423 523.394 787.785 520.01C788.138 516.688 789.404 513.835 792.133 511.675C793.426 510.649 794.579 509.476 796.169 508.893C796.778 508.667 796.697 508.235 796.593 507.684C795.625 502.738 794.645 497.784 793.774 492.819C793.393 490.622 793.239 488.392 792.997 486.179C792.97 485.929 792.897 485.648 792.98 485.439C793.472 484.157 793.282 483.358 791.763 482.961C790.767 482.7 790.174 481.764 789.953 480.747C789.712 479.622 789.443 478.462 789.465 477.328C789.519 474.256 790.116 471.254 790.883 468.292C790.924 468.132 790.975 467.969 791.028 467.817C791.48 466.593 792.345 466.38 793.304 467.258C793.426 467.367 793.55 467.486 793.637 467.623C795.412 470.2 797.397 472.646 798.313 475.74C798.649 476.877 798.71 478.016 798.741 479.159C798.776 480.486 798.069 481.544 797.058 482.334C796.525 482.75 796.756 482.95 797.114 483.229C797.895 483.815 798.208 484.672 798.376 485.567C799.398 491.012 800.419 496.457 801.401 501.909C801.664 503.366 801.731 504.859 801.936 506.336C802.007 506.822 802.371 507.028 802.852 506.877C803.718 506.613 804.577 506.309 805.437 506.015C810.289 504.383 815.142 502.75 819.994 501.118C820.309 501.008 820.609 500.87 820.897 500.724C821.576 500.383 821.694 500.148 821.51 499.328C821.105 497.552 820.654 495.795 820.259 494.017C819.991 492.806 819.802 491.58 819.573 490.361C819.524 490.37 819.475 490.379 819.426 490.388L819.405 490.382ZM816.457 474.127L816.56 474.24L816.427 474.184C816.351 473.781 816.245 473.373 816.198 472.965C815.959 470.985 816.026 469.009 816.506 467.067C816.669 466.416 817.392 466.199 817.865 466.66C819.273 467.983 820.277 469.595 820.922 471.407C821.074 471.837 820.962 472.377 820.921 472.863C820.894 473.101 820.752 473.321 820.653 473.554C820.553 473.776 820.399 473.988 820.32 474.216C820.281 474.336 820.371 474.492 820.399 474.639C820.537 474.613 820.709 474.611 820.806 474.532C821.92 473.581 821.819 472.338 821.565 471.093C820.909 467.92 818.984 465.412 817.125 462.881C817.042 462.764 816.801 462.616 816.716 462.653C816.529 462.739 816.307 462.913 816.27 463.092C815.712 465.598 815.376 468.144 815.419 470.71C815.44 471.906 815.44 473.209 816.469 474.135L816.457 474.127ZM797.021 480.835C797.908 480.252 797.984 479.301 797.881 478.425C797.742 477.302 797.495 476.148 797.066 475.109C796.067 472.661 794.382 470.617 792.862 468.48C792.752 468.328 792.466 468.27 792.26 468.257C792.168 468.254 792.007 468.478 791.972 468.617C791.319 471.323 790.722 474.05 790.729 476.857C790.734 477.914 790.812 478.978 790.958 480.029C791.055 480.764 791.357 481.45 792.138 481.762C792.2 481.77 792.263 481.779 792.318 481.799C792.249 481.812 792.17 481.827 792.1 481.83C792.227 479.527 792.324 477.219 792.482 474.921C792.519 474.354 792.7 473.801 792.85 473.244C792.915 472.998 793.521 472.864 793.701 473.064C793.972 473.369 794.253 473.673 794.46 474.021C795.765 476.147 796.841 478.356 797.091 480.883C797.125 480.795 796.876 481.096 797.032 480.843L797.021 480.835ZM790.609 537.56C790.609 537.56 790.56 537.569 790.53 537.575C790.958 539.855 791.384 542.125 791.811 544.406C792.071 545.791 792.264 547.2 793.003 548.425C793.285 548.901 793.736 549.295 794.151 549.664C794.444 549.925 794.998 549.678 795.187 549.328C795.562 548.616 795.453 547.874 795.317 547.146C795.001 545.354 794.597 543.578 794.33 541.776C794.147 540.478 794.071 539.149 794.079 537.835C794.083 537.203 794.309 536.51 794.633 535.961C795.412 534.634 797.079 534.576 797.872 535.872C798.33 536.631 798.609 537.524 798.803 538.393C799.086 539.683 799.172 541.01 799.454 542.3C799.592 542.926 799.9 543.539 800.255 544.073C800.696 544.743 801.56 544.632 801.797 543.886C802.037 543.108 802.249 542.285 802.261 541.479C802.296 539.498 802.2 537.522 802.185 535.541C802.174 533.966 802.191 532.376 802.962 530.949C804.22 528.597 806.922 528.466 808.339 530.704C808.772 531.385 809.074 532.183 809.302 532.965C809.97 535.281 810.293 537.652 810.427 540.049C810.562 542.394 811.124 544.629 812.363 546.625C813.308 548.136 814.844 548.245 816.116 546.999C817.321 545.827 817.754 544.342 817.682 542.707C817.645 541.971 817.495 541.226 817.339 540.502C816.95 538.642 816.491 536.795 816.161 534.924C815.99 533.959 815.955 532.958 816.035 531.976C816.125 530.83 816.81 529.979 817.875 529.525C818.685 529.18 820.213 529.789 820.94 530.731C821.289 531.184 821.561 531.713 821.792 532.24C821.989 532.691 822.073 533.194 822.213 533.667C822.557 534.853 822.865 536.057 823.257 537.225C823.438 537.761 823.738 538.274 824.07 538.741C824.405 539.228 824.901 539.592 825.546 539.451C826.278 539.283 826.605 538.693 826.742 538.016C826.815 537.697 826.791 537.356 826.772 537.034C826.702 535.795 826.654 534.563 826.543 533.322C826.409 531.903 826.44 530.493 826.901 529.155C827.493 527.426 828.573 525.972 830.467 525.708C832.43 525.432 833.98 526.484 835.065 528.091C835.57 528.831 835.915 529.692 836.256 530.534C837.13 532.7 837.438 534.992 837.728 537.298C838.036 539.754 838.484 542.193 838.911 544.636C839.139 545.957 839.701 547.164 840.575 548.19C841.579 549.365 842.942 549.364 844.024 548.245C844.731 547.512 845.215 546.618 845.333 545.619C845.459 544.558 845.48 543.475 845.393 542.413C845.298 541.261 844.986 540.139 844.822 538.99C844.458 536.453 844.023 533.92 843.83 531.372C843.713 529.827 843.883 528.238 844.123 526.698C844.27 525.744 844.771 524.836 845.151 523.931C845.278 523.632 845.48 523.35 845.687 523.098C847.144 521.268 849.494 521.213 851.041 522.948C852.165 524.223 852.646 525.811 853.24 527.348C853.63 528.343 853.966 529.379 854.477 530.311C854.865 531.021 855.44 531.646 856.033 532.206C856.539 532.681 857.289 532.612 857.861 532.189C858.896 531.415 859.624 530.414 859.822 529.135C859.975 528.16 859.981 527.162 859.999 526.172C860.021 525.099 859.911 524.021 859.965 522.953C860.044 521.371 860.314 519.825 861.197 518.459C862.474 516.479 864.786 516.168 866.501 517.769C867.476 518.685 868.268 519.757 868.692 521.041C869.269 522.764 869.808 524.495 870.279 526.248C870.801 528.164 871.235 530.098 871.708 532.023C871.929 532.928 872.294 533.735 873.055 534.324C873.483 534.651 874.035 534.558 874.312 534.079C874.818 533.2 874.961 532.227 875.038 531.226C875.229 528.555 874.79 525.941 874.183 523.358C872.868 517.704 870.799 512.313 868.442 507.017C868.176 506.415 867.826 505.85 867.476 505.285C867.043 504.603 866.804 504.577 866.131 505.11C863.4 507.26 860.512 509.166 857.412 510.754C857.291 510.818 857.104 510.741 856.949 510.729C856.996 510.598 857.004 510.424 857.093 510.356C857.693 509.918 858.307 509.508 858.909 509.08C861.209 507.458 863.513 505.856 865.79 504.218C866.336 503.82 866.333 503.475 865.927 502.992C864.852 501.708 863.573 500.696 862.098 499.884C859.896 498.669 857.521 497.995 855.046 497.656C854.565 497.584 854.033 497.459 853.59 497.593C853.001 497.765 853.282 498.445 853.121 498.892C853.032 499.122 853 499.383 852.887 499.597C852.268 500.741 851.231 501.18 849.99 501.128C848.863 501.085 848.186 500.408 847.885 499.345C847.795 499.026 847.655 498.717 847.624 498.387C847.51 497.289 846.827 497.01 845.922 497.017C840.689 497.053 835.533 497.664 830.443 498.842C829.956 498.954 829.485 499.103 829.011 499.233C828.537 499.363 828.335 499.696 828.411 500.159C828.574 501.136 828.776 502.105 828.949 503.08C829.055 503.701 828.833 504.252 828.342 504.619C827.335 505.377 826.209 505.884 824.922 505.911C823.808 505.937 823.031 505.432 822.64 504.376C822.412 503.757 822.298 503.097 822.11 502.471C821.921 501.845 821.646 501.683 821.006 501.905C816.544 503.393 812.084 504.891 807.625 506.398C806.143 506.9 804.669 507.452 803.171 507.926C802.527 508.128 802.207 508.432 802.271 509.153C802.332 509.803 802.307 510.479 802.214 511.127C802.048 512.247 801.227 512.808 800.222 513.088C799.381 513.327 798.494 512.883 797.97 511.933C797.694 511.436 797.536 510.865 797.295 510.341C797.138 509.994 796.826 509.9 796.473 510.027C793.771 510.971 791.947 512.962 790.368 515.232C790.007 515.747 790.153 516.31 790.47 516.861C791.164 518.063 792.164 518.893 793.429 519.399C794.506 519.827 795.615 520.149 796.725 520.48C797.911 520.837 799.117 521.14 800.31 521.476C800.74 521.599 801.283 521.568 801.443 522.148C800.976 522.154 800.479 522.268 800.031 522.159C798.096 521.718 796.176 521.244 794.26 520.738C792.708 520.328 791.356 519.574 790.306 518.316C790.149 518.132 789.963 517.953 789.756 517.829C789.686 517.781 789.419 517.872 789.41 517.934C789.197 518.809 788.936 519.692 788.839 520.585C788.526 523.472 788.652 526.369 789.077 529.23C789.487 532.012 790.093 534.757 790.611 537.519L790.609 537.56ZM844.612 586.147C844.612 586.147 844.595 586.058 844.588 586.019C845.64 585.822 846.701 585.622 847.753 585.425C854.327 584.131 860.762 582.313 867.154 580.321C874.133 578.147 880.777 575.273 887.055 571.531C889.901 569.837 892.499 567.793 894.921 565.518C896.193 564.323 897.328 563.001 898.17 561.469C899.833 558.451 899.821 555.462 897.808 552.594C896.616 550.905 894.916 549.921 892.994 549.275C888.389 547.727 883.711 547.954 879.022 548.721C878.026 548.888 877.933 549.047 878.114 550.062C878.206 550.553 878.316 551.031 878.418 551.521C878.528 552.11 878.904 552.325 879.481 552.308C880.058 552.291 880.637 552.285 881.213 552.319C882.693 552.397 884.191 552.411 885.646 552.627C886.609 552.772 887.571 553.131 888.447 553.567C890.364 554.509 891.141 556.103 890.88 558.238C890.682 559.842 890.085 561.267 889.079 562.524C887.719 564.223 886.048 565.565 884.135 566.595C878.75 569.508 873.156 571.961 867.421 574.095C866.584 574.405 865.655 574.497 864.774 574.683C864.705 574.696 864.63 574.618 864.552 574.582C864.612 574.469 864.659 574.338 864.732 574.243C864.782 574.183 864.88 574.164 864.957 574.14C870.771 571.777 876.423 569.039 882.048 566.264C883.976 565.312 885.796 564.167 887.352 562.644C888.433 561.576 889.252 560.354 889.613 558.862C890.088 556.891 889.438 555.436 887.637 554.563C886.898 554.203 886.095 553.937 885.294 553.792C884.157 553.588 883.004 553.458 881.855 553.409C878.45 553.264 878.807 552.892 878.884 556.337C878.884 556.5 878.895 556.671 878.895 556.834C878.827 560.051 877.53 562.574 874.719 564.24C874.004 564.659 873.322 565.144 872.571 565.478C869.469 566.843 866.383 568.236 863.24 569.487C858.404 571.421 853.445 572.972 848.451 574.448C844.43 575.63 840.341 575.959 836.237 576.373C832.712 576.729 829.151 576.786 825.613 577.125C821.806 577.493 818.014 577.4 814.241 576.979C811.613 576.688 809.035 576.073 806.529 575.19C804.164 574.351 802.386 572.844 801.145 570.675C800.814 570.106 800.539 569.507 800.216 568.926C799.895 568.356 799.525 568.171 799.018 568.398C797.222 569.234 795.408 570.032 793.661 570.97C792.885 571.39 792.169 572.023 791.583 572.693C790.546 573.894 790.575 575.568 791.606 576.778C792.076 577.331 792.674 577.86 793.321 578.166C794.437 578.689 795.601 579.142 796.801 579.416C800.532 580.262 804.348 580.32 808.143 580.157C814.826 579.881 821.502 579.452 828.17 579.097C828.322 579.089 828.473 579.193 828.616 579.247C828.493 579.352 828.395 579.533 828.257 579.559C826.137 579.916 824.034 580.371 821.902 580.558C818.37 580.874 814.818 581.032 811.27 581.209C807.229 581.417 803.182 581.485 799.146 581.011C797.17 580.781 795.195 580.45 793.423 579.52C792.487 579.035 791.539 578.429 790.837 577.665C789.266 575.966 789.146 573.699 790.553 572.031C791.186 571.282 791.889 570.529 792.711 570.029C793.971 569.263 795.366 568.727 796.712 568.088C797.524 567.702 798.591 567.532 799.095 566.908C799.722 566.129 798.646 565.273 798.531 564.389C798.455 563.823 798.23 563.276 798.037 562.732C797.834 562.139 797.477 562.023 796.888 562.357C794.303 563.819 791.662 565.199 789.153 566.789C787.206 568.019 785.355 569.435 783.561 570.88C781.739 572.341 780.33 574.213 779.275 576.293C777.723 579.352 778.464 581.95 780.738 583.874C781.732 584.725 782.875 585.447 784.058 586.008C785.396 586.632 786.825 587.086 788.254 587.49C794.03 589.103 799.954 589.548 805.91 589.682C813.267 589.849 820.61 589.397 827.914 588.526C833.496 587.855 839.048 586.966 844.606 586.168L844.612 586.147ZM836.406 555.148C839.148 554.522 841.963 553.851 844.792 553.26C848.355 552.51 851.904 551.742 855.369 550.635C859.547 549.312 863.685 547.884 867.561 545.824C869.671 544.706 871.655 543.347 873.698 542.089C874.346 541.693 874.537 541.138 874.358 540.398C874.111 539.356 873.902 538.296 873.705 537.245C873.593 536.645 873.361 536.17 872.794 535.859C871.307 535.039 870.618 533.642 870.233 532.076C869.96 530.947 869.756 529.805 869.475 528.688C868.953 526.608 868.438 524.517 867.82 522.466C867.542 521.531 867.104 520.606 866.573 519.78C865.951 518.798 865.149 517.778 863.819 518.008C862.538 518.228 861.987 519.358 861.661 520.498C861.274 521.853 861.22 523.246 861.293 524.667C861.373 526.229 861.313 527.808 861.176 529.359C861.043 530.819 860.29 532.008 859.137 532.916C857.525 534.195 855.925 534.068 854.54 532.547C853.578 531.487 852.976 530.226 852.464 528.908C852.072 527.903 851.776 526.87 851.319 525.897C850.943 525.083 850.485 524.273 849.917 523.576C849.14 522.633 847.952 522.591 847.069 523.418C846.653 523.802 846.265 524.281 846.056 524.799C845.689 525.712 845.348 526.661 845.193 527.626C844.889 529.586 844.885 531.571 845.246 533.548C845.642 535.661 846.078 537.767 846.395 539.895C846.619 541.359 846.776 542.845 846.79 544.328C846.798 546.107 846.231 547.75 844.962 549.066C843.43 550.666 841.21 550.655 839.724 549.021C838.762 547.961 838.137 546.694 837.874 545.288C837.264 542.035 836.714 538.781 836.104 535.527C835.846 534.151 835.613 532.75 835.21 531.412C834.755 529.91 834.095 528.507 832.738 527.511C831.239 526.408 829.374 527.094 828.635 528.311C828.107 529.183 827.739 530.096 827.725 531.106C827.707 532.259 827.821 533.408 827.854 534.562C827.893 535.796 828.046 537.049 827.877 538.261C827.726 539.358 827.051 540.258 825.863 540.541C824.791 540.793 823.89 540.383 823.233 539.539C822.831 539.024 822.442 538.467 822.225 537.856C821.779 536.617 821.428 535.34 821.078 534.073C820.8 533.026 820.465 532 819.686 531.21C818.782 530.291 817.479 530.617 817.227 531.875C817.07 532.667 817.048 533.526 817.188 534.324C817.411 535.625 817.783 536.899 818.152 538.162C818.65 539.839 818.957 541.532 818.881 543.296C818.796 545.123 818.119 546.664 816.762 547.895C814.978 549.502 812.8 549.28 811.43 547.349C811.099 546.882 810.828 546.363 810.597 545.837C809.74 543.922 809.45 541.89 809.245 539.823C809.028 537.686 808.651 535.569 808.237 533.47C808.089 532.684 807.716 531.889 807.293 531.205C806.452 529.867 804.892 529.905 804.086 531.247C803.8 531.728 803.573 532.31 803.513 532.86C803.392 534.002 803.376 535.165 803.378 536.314C803.372 538.289 803.48 540.273 803.403 542.252C803.368 543.042 803.078 543.879 802.702 544.591C802.032 545.846 800.538 546.014 799.603 544.938C799.083 544.334 798.672 543.556 798.458 542.792C798.14 541.692 798.052 540.518 797.838 539.378C797.701 538.651 797.563 537.914 797.34 537.213C797.113 536.492 796.519 536.034 796.129 536.179C795.489 536.4 795.344 536.987 795.237 537.556C795.175 537.873 795.218 538.211 795.198 538.541C795.115 540.377 795.538 542.14 795.944 543.925C796.386 545.847 796.851 547.784 796.25 549.789C796.146 550.155 796.209 550.601 796.302 550.99C796.549 552.033 797.003 553.046 797.109 554.095C797.261 555.613 798.112 556.247 799.459 556.483C799.87 556.558 800.267 556.667 800.67 556.754C807.454 558.045 814.298 558.298 821.141 557.462C826.225 556.844 831.276 555.948 836.408 555.158L836.406 555.148ZM843.962 574.059C848.62 573.287 852.97 571.688 857.353 570.214C861.278 568.898 865.038 567.196 868.839 565.598C870.735 564.805 872.672 564.065 874.379 562.859C876.104 561.641 877.143 560.021 877.384 557.941C877.711 555.021 877.178 552.18 876.408 549.374C876.306 548.997 875.96 548.939 875.627 549.175C875.222 549.454 874.818 549.744 874.417 550.043C872.235 551.703 869.847 553.016 867.327 554.069C860.208 557.012 852.845 559.197 845.278 560.626C842.281 561.189 839.236 561.556 836.218 562.01C830.33 562.891 824.421 563.501 818.475 563.751C812.266 564.01 806.094 564.029 800.041 562.295C799.491 562.133 799.204 562.391 799.361 562.901C800.175 565.505 800.997 568.098 802.434 570.443C803.459 572.113 804.842 573.41 806.743 574C808.557 574.555 810.38 575.108 812.231 575.484C816.725 576.391 821.267 576.251 825.803 575.858C828.184 575.645 830.57 575.401 832.965 575.257C836.676 575.029 840.389 574.862 843.964 574.069L843.962 574.059ZM840.189 560.126C840.189 560.126 840.206 560.214 840.213 560.254C841.767 560.023 843.322 559.854 844.862 559.545C846.48 559.221 848.055 558.722 849.669 558.378C854.611 557.329 859.374 555.713 864.112 554.011C867.305 552.862 870.406 551.497 873.176 549.502C874.1 548.841 874.937 548.043 875.816 547.308C875.587 546.354 875.357 545.4 875.127 544.446C875.047 544.125 875.021 543.774 874.878 543.496C874.797 543.338 874.479 543.163 874.326 543.212C874.027 543.299 873.752 543.514 873.481 543.697C868.823 546.748 863.759 548.929 858.519 550.776C853.519 552.538 848.368 553.718 843.21 554.859C835.228 556.621 827.149 557.922 818.999 558.627C812.132 559.223 805.317 558.853 798.602 557.173C798.058 557.04 797.871 557.238 797.958 557.812C798.398 560.751 798.612 561.027 801.547 561.646C806.176 562.62 810.884 562.825 815.587 562.675C818.632 562.582 821.676 562.266 824.722 562.071C829.095 561.79 833.434 561.271 837.751 560.583C838.561 560.452 839.373 560.279 840.189 560.126ZM820.39 488.966C820.39 488.966 820.331 488.977 820.302 488.983C821.306 493.577 822.308 498.16 823.32 502.742C823.406 503.143 823.523 503.549 823.685 503.925C823.984 504.653 824.606 504.933 825.537 504.687C826.477 504.439 827.511 504.256 827.778 503.076C827.826 502.843 827.767 502.58 827.732 502.342C827.657 501.939 827.569 501.528 827.464 501.131C827.032 499.37 826.541 497.621 826.158 495.851C825.705 493.759 825.387 491.631 824.912 489.532C824.132 486.077 823.292 482.633 822.433 479.192C822.303 478.657 821.946 478.164 821.625 477.706C821.527 477.561 821.194 477.573 820.969 477.513C820.927 477.725 820.846 477.943 820.845 478.157C820.845 478.371 820.987 478.751 820.96 478.766C820.599 478.905 820.203 479.071 819.832 479.049C819.411 479.026 819.457 478.621 819.465 478.284C819.472 478.16 819.378 478.036 819.334 477.912C819.202 477.967 819.035 477.998 818.932 478.099C818.418 478.562 818.568 479.144 818.675 479.714C819.254 482.8 819.831 485.876 820.41 488.963L820.39 488.966ZM798.954 494.127C798.862 493.635 798.772 493.154 798.68 492.662C798.239 490.476 797.828 488.284 797.33 486.119C797.194 485.503 796.823 484.932 796.522 484.358C796.493 484.312 796.237 484.36 796.103 484.406C796.044 484.417 795.948 484.557 795.966 484.594C796.08 484.878 796.154 485.22 796.362 485.405C796.752 485.749 796.57 485.916 796.263 486.126C795.65 486.546 794.573 486.117 794.308 486.879C794.081 487.512 794.387 488.329 794.443 489.062C794.501 489.804 794.468 490.553 794.585 491.284C795.596 497.646 796.781 503.966 798.487 510.188C798.617 510.662 798.816 511.124 799.048 511.548C799.333 512.095 800.056 512.204 800.522 511.76C800.808 511.493 801.085 511.125 801.169 510.764C801.285 510.294 801.26 509.78 801.191 509.305C800.975 507.666 800.581 506.051 800.496 504.409C800.303 500.935 799.566 497.553 798.946 494.138L798.954 494.127ZM846.86 487.318C846.801 487.329 846.742 487.34 846.683 487.351C847.306 490.673 847.928 493.985 848.551 497.308C848.673 497.956 848.863 498.592 849.099 499.199C849.354 499.853 850.086 500.123 850.752 499.876C851.42 499.639 851.935 499.186 851.93 498.454C851.923 497.55 851.836 496.651 851.68 495.764C850.863 490.973 849.947 486.2 849.415 481.355C849.179 479.232 848.714 477.132 848.268 475.028C848.159 474.499 847.757 474.035 847.472 473.549C847.455 473.512 847.31 473.498 847.255 473.529C847.128 473.614 846.966 473.725 846.939 473.853C846.914 473.99 847 474.177 847.075 474.305C847.281 474.643 847.279 474.959 846.899 475.102C846.536 475.231 846.095 475.374 845.753 475.286C845.315 475.175 845.608 474.784 845.653 474.481C845.68 474.302 845.512 474.11 845.426 473.923C845.273 474.084 844.989 474.249 844.981 474.423C844.956 475.486 844.865 476.572 845.039 477.607C845.578 480.864 846.234 484.088 846.842 487.332L846.86 487.318ZM847.524 468.727C847.619 469.615 847.631 469.948 847.7 470.261C847.724 470.389 847.898 470.559 848 470.561C848.134 470.566 848.302 470.433 848.413 470.32C849.029 469.696 849.342 468.925 849.14 468.068C848.927 467.202 848.703 466.278 848.239 465.541C847.097 463.74 845.808 462.018 844.566 460.278C844.427 460.08 844.217 459.936 844.024 459.779C843.757 459.544 843.322 459.666 843.245 460.017C842.646 462.845 842.306 465.697 842.37 468.585C842.377 469.112 842.761 469.641 842.98 470.159C843.003 470.226 843.122 470.316 843.159 470.299C843.263 470.259 843.412 470.18 843.426 470.096C843.477 469.771 843.477 469.445 843.507 469.114C843.643 467.725 843.779 466.336 843.945 464.942C843.996 464.454 844.075 463.9 844.69 463.815C845.277 463.746 845.567 464.261 845.77 464.691C846.466 466.178 847.095 467.688 847.54 468.704L847.524 468.727ZM795.831 479.105C795.501 477.722 794.872 476.487 794.001 475.368C793.959 475.305 793.824 475.239 793.798 475.264C793.699 475.333 793.557 475.442 793.556 475.544C793.421 477.268 793.277 478.994 793.225 480.723C793.215 481.051 793.559 481.475 793.849 481.715C794.245 482.038 794.567 481.642 794.925 481.432C795.849 480.882 796.045 480.082 795.841 479.103L795.831 479.105ZM817.097 472.115C817.257 472.695 817.274 473.058 817.453 473.309C817.677 473.634 818.003 473.908 818.338 474.12C818.42 474.176 818.828 473.967 818.853 473.83C818.918 473.523 818.769 473.164 818.844 472.855C818.997 472.155 819.545 472.907 819.801 472.645C819.936 472.498 820.049 472.232 820.022 472.034C819.813 470.486 818.829 469.358 817.889 468.201C817.849 468.148 817.706 468.093 817.671 468.12C817.564 468.201 817.413 468.321 817.402 468.425C817.281 469.73 817.19 471.039 817.107 472.113L817.097 472.115ZM844.471 469.808C844.628 470.155 844.686 470.409 844.832 470.595C844.979 470.781 845.21 470.982 845.418 471.004C845.573 471.016 845.92 470.696 845.89 470.59C845.71 469.851 846.734 469.882 846.683 469.393C846.63 468.844 846.317 468.312 846.106 467.782C845.884 467.254 845.671 466.714 845.403 466.205C845.307 466.019 845.081 465.899 844.912 465.758C844.871 465.918 844.808 466.072 844.798 466.237C844.684 467.469 844.579 468.699 844.473 469.818L844.471 469.808ZM795.2 484.799C794.833 484.685 794.478 484.528 794.446 484.574C794.282 484.839 794.186 485.142 794.079 485.437C794.276 485.512 794.566 485.701 794.645 485.636C794.853 485.444 794.982 485.155 795.2 484.799Z" fill="white"/>
<path d="M825.553 521.858C822.093 522.67 818.599 523.244 815.039 523.464C811.9 523.656 808.776 523.489 805.661 523.046C805.254 522.99 804.861 522.85 804.477 522.698C804.346 522.652 804.228 522.46 804.203 522.322C804.19 522.254 804.408 522.06 804.512 522.071C805.826 522.191 807.134 522.383 808.445 522.483C812.58 522.776 816.701 522.562 820.766 521.83C824.83 521.098 828.901 520.345 832.912 519.379C836.757 518.454 840.5 517.142 844.16 515.611C846.131 514.783 848.152 514.058 850.156 513.296C850.28 513.252 850.461 513.35 850.62 513.382C850.54 513.498 850.481 513.672 850.359 513.726C848.652 514.554 846.975 515.429 845.234 516.183C841.07 518.012 836.773 519.459 832.357 520.541C830.11 521.095 827.82 521.413 825.539 521.84L825.553 521.858Z" fill="white"/>
<path d="M849.083 510.882C849.007 510.856 848.929 510.819 848.852 510.793C848.871 510.729 848.887 510.654 848.929 510.606C849.112 510.439 849.279 510.245 849.492 510.134C853.075 508.139 856.649 506.146 860.237 504.171C860.357 504.107 860.528 504.096 860.679 504.088C860.74 504.087 860.827 504.172 860.858 504.227C860.89 504.292 860.928 504.438 860.902 504.463C860.203 505.022 859.536 505.645 858.778 506.103C855.826 507.888 852.733 509.404 849.572 510.78C849.432 510.847 849.258 510.839 849.101 510.869L849.083 510.882Z" fill="white"/>
<path d="M804.256 519.352C802.74 520.002 801.172 519.727 799.631 519.538C799.411 519.508 799.213 519.209 799.007 519.034C799.239 518.97 799.472 518.855 799.698 518.864C801.092 518.918 802.491 519.001 803.892 519.094C804.016 519.102 804.123 519.295 804.234 519.397L804.266 519.35L804.256 519.352Z" fill="white"/>
<path d="M812.113 510.471C812.044 510.698 812.011 510.846 811.944 510.981C811.928 511.004 811.795 510.999 811.729 510.97C811.315 510.824 811.071 510.555 811.068 510.107C811.065 510.037 811.094 509.919 811.141 509.9C811.254 509.849 811.445 509.782 811.515 509.83C811.746 510.031 811.933 510.271 812.113 510.471Z" fill="white"/>
<path d="M840.233 509.103C839.962 509.012 839.775 508.996 839.718 508.905C839.529 508.604 839.771 508.213 840.232 508.066C840.348 508.034 840.509 508.136 840.648 508.171C840.513 508.481 840.368 508.793 840.233 509.103Z" fill="white"/>
<path d="M842.57 509.52C842.363 509.772 842.187 510.029 841.951 510.236C841.872 510.302 841.633 510.275 841.528 510.203C841.433 510.13 841.354 509.87 841.405 509.819C841.62 509.606 841.857 509.409 842.124 509.257C842.179 509.227 842.362 509.386 842.57 509.52Z" fill="white"/>
<path d="M813.846 509.566C813.632 509.728 813.428 509.888 813.417 509.88C813.237 509.68 813.065 509.468 812.93 509.239C812.924 509.21 813.167 508.981 813.19 508.997C813.415 509.168 813.615 509.365 813.848 509.576L813.846 509.566Z" fill="white"/>
<path d="M804.226 519.408C804.373 519.381 804.531 519.3 804.674 519.304C804.766 519.307 804.851 519.433 804.936 519.509C804.885 519.559 804.801 519.656 804.778 519.64C804.6 519.562 804.427 519.452 804.256 519.352L804.224 519.398L804.226 519.408Z" fill="white"/>
<path d="M836.446 578.684C835.543 578.64 834.801 579.349 834.076 578.63C834.755 578.401 835.426 578.072 836.119 577.972C836.921 577.852 837.753 577.462 838.581 577.917C837.819 578.193 837.065 578.456 836.446 578.684Z" fill="white"/>
<path d="M863.994 543.024C863.707 542.905 863.5 542.883 863.428 542.774C863.357 542.665 863.356 542.391 863.447 542.333C863.758 542.092 864.096 541.886 864.441 541.719C864.524 541.673 864.762 541.801 864.831 541.9C864.893 542.011 864.898 542.254 864.81 542.332C864.546 542.605 864.222 542.829 863.984 543.026L863.994 543.024Z" fill="white"/>
<path d="M860.046 541.72C860.164 541.809 860.383 541.89 860.39 541.981C860.405 542.497 860.18 542.925 859.698 543.118C859.566 543.173 859.207 542.996 859.171 542.86C859.009 542.321 859.455 541.769 860.054 541.708L860.046 541.72Z" fill="white"/>
<path d="M826.742 546.369C827.079 546.703 827.348 546.886 827.478 547.147C827.541 547.267 827.357 547.638 827.205 547.697C826.779 547.868 826.625 547.48 826.538 547.181C826.485 547.008 826.635 546.776 826.752 546.367L826.742 546.369Z" fill="white"/>
<path d="M823.806 549.647C824.177 549.618 824.619 550.074 824.532 550.426C824.51 550.522 824.229 550.656 824.193 550.622C823.973 550.429 823.77 550.213 823.602 549.97C823.573 549.924 823.744 549.75 823.804 549.637L823.806 549.647Z" fill="white"/>
<path d="M842.19 566.455C842.763 566.47 843.294 566.971 843.321 567.546C843.325 567.677 842.982 567.965 842.875 567.935C842.403 567.809 841.987 567.542 841.964 566.986C841.951 566.806 842.118 566.612 842.19 566.455Z" fill="white"/>
<path d="M838.812 569.328C838.596 569.531 838.45 569.731 838.405 569.709C838.058 569.54 837.727 569.348 837.42 569.121C837.336 569.055 837.325 568.721 837.364 568.714C837.553 568.638 837.825 568.516 837.954 568.603C838.273 568.788 838.522 569.087 838.815 569.347L838.812 569.328Z" fill="white"/>
</g>
<g clip-path="url(#clip1_239_34)">
<path d="M17.53 240.95C17.63 237.29 17.67 233.56 17.85 229.85C18.09 224.82 18.34 219.78 18.77 214.76C19.17 210.08 19.66 205.39 20.56 200.77C21.2 197.51 22.03 194.32 23.74 191.44C24.13 190.78 23.9 190.41 23.43 189.97C21.73 188.38 20.27 186.6 19.19 184.52C18.04 182.3 17.25 179.95 16.76 177.52C15.65 171.98 15.37 166.36 15.8 160.75C16.11 156.64 16.68 152.54 17.34 148.46C18.35 142.19 19.77 135.97 20.45 129.65C20.89 125.54 20.86 121.39 20.47 117.27C20.09 113.24 19.6 109.22 19.17 105.2C18.89 102.57 18.55 99.95 18.35 97.31C17.98 92.36 17.87 87.42 18.51 82.47C19.01 78.61 19.65 74.8 20.87 71.1C21.06 70.53 20.93 70.43 20.26 70.55C18.07 70.95 17.38 70.47 17.09 68.35C17.05 68.02 17.11 67.67 17.01 67.37C16.95 67.19 16.67 66.96 16.5 66.96C16.09 66.96 15.69 67.15 15.29 67.17C13.31 67.3 12.13 65.78 12.88 63.95C13.25 63.05 13.91 62.27 14.44 61.43C14.81 60.85 14.79 60.64 14.22 60.2C13.43 59.6 12.62 59.02 11.85 58.4C5.88 53.59 2.27 47.36 0.75 39.88C-0.83 32.08 0.0799999 24.59 3.63 17.46C7.12 10.45 12.42 5.35 19.68 2.31C22.21 1.25 24.78 0.45 27.53 0.16C33.76 -0.5 39.53 0.85 44.84 4.07C51.57 8.15 55.91 14.12 58.26 21.57C59.11 24.26 59.54 27.03 59.81 29.83C60.08 32.66 59.71 35.46 59.2 38.22C57.8 45.87 54.22 52.33 48.37 57.51C44.9 60.58 40.87 62.59 36.43 63.84C36.11 63.93 35.78 63.97 35.46 64.06C34.94 64.21 34.6 64.52 34.62 65.12C34.67 66.55 34.34 67.92 33.8 69.22C33.46 70.04 33.01 70.86 32.43 71.54C31.12 73.08 29.65 73.13 28.14 71.8C27.95 71.64 27.78 71.45 27.63 71.26C27.23 70.77 26.83 70.76 26.4 71.21C26.34 71.27 26.27 71.32 26.21 71.37C25 72.35 24.15 72.59 22.89 71C22.44 70.44 22.34 70.49 22.13 71.09C21.24 73.59 20.7 76.19 20.34 78.8C19.92 81.82 19.65 84.87 19.38 87.92C19.29 88.99 19.33 90.07 19.4 91.14C19.61 94.11 19.84 97.07 20.14 100.03C20.54 103.97 20.95 107.92 21.45 111.85C22.19 117.6 22.54 123.38 22.08 129.16C21.79 132.77 21.17 136.37 20.53 139.94C19.55 145.38 18.51 150.82 17.85 156.31C17.2 161.65 16.97 167.01 17.61 172.39C17.95 175.27 18.36 178.12 19.26 180.88C20.27 184 21.95 186.72 24.39 188.95C24.82 189.34 25.2 189.38 25.71 189.06C26.33 188.66 26.96 188.21 27.66 188.02C28.9 187.69 30.09 187.98 31.23 188.63C32.69 189.47 32.39 191.25 31.59 192.02C30.73 192.84 29.7 193.04 28.6 192.76C27.72 192.54 26.88 192.18 26.03 191.85C25.55 191.66 25.28 191.85 25.02 192.24C23.59 194.43 22.89 196.91 22.34 199.4C21.51 203.11 20.96 206.87 20.66 210.66C20.25 215.84 19.81 221.03 19.41 226.21C19.31 227.44 19.31 228.69 19.28 229.93C19.12 236.37 18.55 242.81 18.87 249.26C19.13 254.56 19.8 259.8 21.8 264.77C22.35 266.14 23.1 267.44 23.8 268.75C24.07 269.26 24.42 269.74 24.8 270.16C26.62 272.17 29.33 273.01 32.37 270.97C33.26 270.37 34.09 269.68 34.96 269.05C35.23 268.86 35.61 268.71 35.82 269.05C35.96 269.29 35.99 269.7 35.88 269.95C35.68 270.39 35.39 270.83 35.03 271.15C33.15 272.83 30.88 273.53 28.42 273.47C26.19 273.41 24.53 272.21 23.29 270.41C21.63 268.01 20.43 265.39 19.6 262.6C18.1 257.57 17.52 252.42 17.52 247.19C17.52 245.13 17.52 243.06 17.52 240.94L17.53 240.95ZM58.01 31.89C57.88 23.28 55.21 15.64 49 9.52C42.82 3.43 35.35 0.71 26.66 1.84C24.55 2.11 22.44 2.64 20.41 3.31C17.96 4.12 15.8 5.55 13.8 7.16C8.34 11.53 4.69 17.08 2.81 23.84C1.1 29.98 1.15 36.13 2.99 42.16C5.45 50.27 10.33 56.53 18.04 60.33C25.21 63.86 32.52 63.9 39.85 60.86C45.46 58.54 49.71 54.56 52.94 49.5C56.36 44.15 58.04 38.26 58.02 31.88L58.01 31.89ZM18.7 67.27C18.7 67.39 18.68 67.8 18.7 68.22C18.74 69.09 19.25 69.37 20.03 68.9C20.73 68.47 21.37 67.95 22.06 67.5C22.86 66.98 23.49 67.23 23.83 68.04C24.14 68.78 23.78 69.97 24.59 70.24C25.65 70.59 25.89 69.22 26.58 68.71C26.98 68.42 27.6 68.44 27.9 68.85C28.37 69.52 28.78 70.24 29.29 70.88C29.65 71.33 30.42 71.36 30.86 70.97C31.23 70.65 31.59 70.29 31.86 69.89C32.6 68.76 32.86 67.45 33.05 66.15C33.29 64.49 32.81 64.39 31.45 64.54C28.8 64.83 26.2 64.54 23.6 64.03C21.31 63.58 19.17 62.79 17.09 61.77C16.11 61.28 15.92 61.35 15.32 62.31C15.1 62.66 14.9 63.02 14.73 63.39C14.44 64.05 13.89 64.75 14.53 65.43C15.1 66.03 15.77 65.51 16.37 65.32C18.66 64.6 18.77 64.67 18.71 67.26L18.7 67.27ZM28.71 189.3C28.25 189.47 27.64 189.66 27.05 189.92C26.74 190.05 26.74 190.56 27.01 190.72C27.86 191.25 28.77 191.58 29.79 191.47C30.31 191.41 30.72 191.14 30.92 190.65C31.06 190.32 30.62 189.76 30.09 189.6C29.7 189.49 29.3 189.43 28.71 189.31V189.3Z" fill="white"/>
<path d="M29.1 6.72C30.72 6.95 32.12 7.08 33.49 7.36C34.84 7.64 35.87 8.47 36.64 9.61C37.64 11.1 37.36 12.74 35.86 13.71C35.18 14.15 34.39 14.46 33.62 14.73C32.92 14.98 32.19 15.14 31.46 15.29C29.17 15.76 27.04 16.63 25.07 17.89C24.37 18.33 23.65 18.74 22.92 19.13C22.49 19.36 22.04 19.61 21.56 19.71C18.96 20.26 17.17 19.28 17.05 16.35C17 15.07 17.27 13.9 17.95 12.81C19.69 9.97 22.3 8.34 25.42 7.46C26.68 7.11 28 6.94 29.09 6.73L29.1 6.72ZM29.92 7.77C26.3 8.18 23.23 9.22 20.68 11.5C19.81 12.27 19.16 13.22 18.67 14.28C18.28 15.14 18.19 16.02 18.38 16.93C18.67 18.27 19.6 18.87 20.94 18.53C21.41 18.41 21.86 18.18 22.29 17.95C23.23 17.44 24.16 16.92 25.07 16.36C26.77 15.32 28.61 14.63 30.55 14.19C31.35 14.01 32.16 13.84 32.94 13.6C33.56 13.41 34.19 13.18 34.76 12.86C36.09 12.1 36.31 11.2 35.37 10.06C34.86 9.44 34.22 8.78 33.51 8.53C32.29 8.1 30.96 7.97 29.92 7.77Z" fill="white"/>
<path d="M14.68 22.53C17.88 22.38 19.39 24.12 19.18 27.12C18.97 30.02 17.85 32.55 15.44 34.31C13.05 36.06 10.03 35.13 8.95 32.41C7.71 29.29 9 25.63 10.98 23.8C12.06 22.8 13.34 22.32 14.68 22.53ZM9.73 29.42C9.69 30.43 9.85 31.39 10.31 32.3C10.75 33.18 11.47 33.65 12.4 33.87C13.17 34.05 13.87 33.81 14.52 33.42C17.09 31.87 18.47 27.77 17.72 25.45C17.6 25.07 17.43 24.66 17.16 24.38C16.22 23.38 14.29 23.07 13.07 23.74C10.84 24.97 9.95 27 9.75 29.41L9.73 29.42Z" fill="white"/>
</g>
<g clip-path="url(#clip2_239_34)">
<path d="M982.295 364.12C982.16 359.182 982.106 354.149 981.862 349.143C981.538 342.356 981.2 335.555 980.618 328.781C980.077 322.466 979.415 316.138 978.198 309.904C977.332 305.505 976.21 301.201 973.898 297.315C973.37 296.424 973.681 295.925 974.317 295.332C976.616 293.186 978.59 290.784 980.05 287.978C981.606 284.982 982.674 281.811 983.336 278.532C984.837 271.057 985.216 263.474 984.635 255.904C984.215 250.359 983.445 244.826 982.552 239.321C981.186 230.861 979.266 222.468 978.347 213.94C977.752 208.394 977.792 202.795 978.32 197.236C978.833 191.798 979.496 186.374 980.077 180.949C980.456 177.4 980.916 173.865 981.186 170.303C981.687 163.624 981.835 156.958 980.97 150.279C980.294 145.071 979.428 139.93 977.779 134.937C977.522 134.168 977.698 134.033 978.604 134.195C981.565 134.735 982.498 134.087 982.89 131.227C982.944 130.781 982.863 130.309 982.998 129.904C983.079 129.661 983.458 129.351 983.688 129.351C984.242 129.351 984.783 129.607 985.324 129.634C988.002 129.81 989.597 127.759 988.583 125.29C988.083 124.075 987.19 123.023 986.474 121.889C985.973 121.107 986 120.823 986.771 120.23C987.839 119.42 988.935 118.637 989.976 117.801C998.049 111.311 1002.93 102.904 1004.99 92.8113C1007.12 82.2866 1005.89 72.1801 1001.09 62.5594C996.372 53.1007 989.205 46.2191 979.388 42.1171C975.967 40.6869 972.491 39.6074 968.773 39.2161C960.348 38.3255 952.546 40.1471 945.365 44.492C936.264 49.9972 930.396 58.0527 927.218 68.1052C926.068 71.7348 925.487 75.4725 925.122 79.2506C924.757 83.0692 925.257 86.8473 925.947 90.5714C927.84 100.894 932.681 109.61 940.592 116.6C945.284 120.742 950.734 123.454 956.738 125.141C957.17 125.263 957.617 125.317 958.049 125.438C958.752 125.64 959.212 126.059 959.185 126.868C959.118 128.798 959.564 130.646 960.294 132.401C960.754 133.507 961.362 134.613 962.147 135.531C963.918 137.609 965.906 137.676 967.948 135.882C968.205 135.666 968.435 135.41 968.637 135.153C969.178 134.492 969.719 134.478 970.301 135.086C970.382 135.167 970.476 135.234 970.558 135.302C972.194 136.624 973.343 136.948 975.047 134.802C975.656 134.047 975.791 134.114 976.075 134.924C977.278 138.297 978.009 141.805 978.495 145.327C979.063 149.402 979.428 153.517 979.794 157.633C979.915 159.077 979.861 160.534 979.766 161.978C979.482 165.985 979.171 169.979 978.766 173.973C978.225 179.29 977.67 184.619 976.994 189.922C975.994 197.681 975.52 205.48 976.142 213.279C976.535 218.15 977.373 223.008 978.238 227.825C979.564 235.165 980.97 242.505 981.862 249.913C982.741 257.119 983.052 264.351 982.187 271.61C981.727 275.496 981.173 279.342 979.956 283.066C978.59 287.276 976.318 290.946 973.019 293.955C972.437 294.481 971.923 294.535 971.234 294.104C970.395 293.564 969.543 292.957 968.597 292.7C966.92 292.255 965.311 292.646 963.769 293.523C961.795 294.657 962.201 297.059 963.282 298.098C964.445 299.204 965.838 299.474 967.326 299.096C968.516 298.799 969.652 298.314 970.801 297.868C971.45 297.612 971.815 297.868 972.167 298.395C974.101 301.35 975.047 304.696 975.791 308.056C976.913 313.062 977.657 318.135 978.063 323.249C978.617 330.239 979.212 337.242 979.753 344.231C979.888 345.891 979.888 347.577 979.929 349.251C980.145 357.94 980.916 366.63 980.483 375.333C980.132 382.484 979.226 389.555 976.521 396.261C975.777 398.11 974.763 399.864 973.817 401.631C973.451 402.32 972.978 402.967 972.464 403.534C970.003 406.246 966.339 407.38 962.228 404.627C961.024 403.817 959.902 402.886 958.725 402.036C958.36 401.78 957.846 401.577 957.562 402.036C957.373 402.36 957.333 402.913 957.481 403.251C957.752 403.844 958.144 404.438 958.631 404.87C961.173 407.137 964.243 408.081 967.569 408C970.585 407.919 972.829 406.3 974.506 403.871C976.751 400.633 978.374 397.098 979.496 393.333C981.524 386.546 982.309 379.597 982.309 372.54C982.309 369.76 982.309 366.967 982.309 364.107L982.295 364.12ZM927.556 82.0302C927.732 70.4125 931.342 60.1037 939.74 51.8458C948.097 43.6284 958.198 39.9582 969.949 41.483C972.802 41.8473 975.656 42.5624 978.401 43.4665C981.714 44.5594 984.635 46.489 987.339 48.6614C994.722 54.5579 999.658 62.0467 1002.2 71.1681C1004.51 79.453 1004.45 87.7513 1001.96 95.8878C998.63 106.831 992.031 115.278 981.606 120.405C971.91 125.168 962.025 125.222 952.113 121.12C944.527 117.99 938.78 112.619 934.412 105.792C929.787 98.5729 927.515 90.6254 927.542 82.0167L927.556 82.0302ZM980.713 129.769C980.713 129.931 980.74 130.484 980.713 131.051C980.659 132.225 979.969 132.603 978.915 131.969C977.968 131.389 977.103 130.687 976.169 130.08C975.088 129.378 974.236 129.715 973.776 130.808C973.357 131.807 973.844 133.412 972.748 133.777C971.315 134.249 970.99 132.4 970.057 131.712C969.516 131.321 968.678 131.348 968.272 131.901C967.637 132.805 967.082 133.777 966.393 134.64C965.906 135.248 964.865 135.288 964.27 134.762C963.769 134.33 963.282 133.844 962.917 133.305C961.917 131.78 961.565 130.012 961.308 128.258C960.984 126.018 961.633 125.883 963.472 126.086C967.055 126.477 970.571 126.086 974.087 125.397C977.184 124.79 980.077 123.724 982.89 122.348C984.215 121.687 984.472 121.781 985.284 123.077C985.581 123.549 985.852 124.035 986.081 124.534C986.474 125.424 987.217 126.369 986.352 127.287C985.581 128.096 984.675 127.395 983.864 127.138C980.767 126.167 980.618 126.261 980.7 129.756L980.713 129.769ZM967.177 294.427C967.799 294.657 968.624 294.913 969.422 295.264C969.841 295.439 969.841 296.128 969.476 296.344C968.326 297.059 967.096 297.504 965.717 297.356C965.013 297.275 964.459 296.91 964.188 296.249C963.999 295.804 964.594 295.048 965.311 294.832C965.838 294.684 966.379 294.603 967.177 294.441V294.427Z" fill="white"/>
<path d="M966.649 48.0675C964.459 48.3778 962.566 48.5532 960.713 48.931C958.888 49.3088 957.495 50.4288 956.453 51.967C955.101 53.9775 955.48 56.1904 957.508 57.4993C958.428 58.093 959.496 58.5112 960.537 58.8756C961.484 59.2129 962.471 59.4288 963.458 59.6312C966.555 60.2654 969.435 61.4393 972.099 63.1394C973.046 63.7331 974.019 64.2864 975.006 64.8126C975.588 65.1229 976.196 65.4603 976.845 65.5952C980.361 66.3373 982.782 65.015 982.944 61.0615C983.012 59.3343 982.647 57.7556 981.727 56.2849C979.374 52.4528 975.845 50.2534 971.626 49.066C969.922 48.5937 968.137 48.3643 966.663 48.081L966.649 48.0675ZM965.541 49.4843C970.436 50.0375 974.587 51.4408 978.035 54.5172C979.212 55.5562 980.091 56.8381 980.753 58.2684C981.281 59.4288 981.403 60.6162 981.146 61.8441C980.753 63.6522 979.496 64.4618 977.684 64.003C977.048 63.8411 976.44 63.5307 975.858 63.2204C974.587 62.5322 973.33 61.8306 972.099 61.075C969.8 59.6717 967.312 58.7406 964.689 58.1469C963.607 57.904 962.512 57.6747 961.457 57.3508C960.618 57.0945 959.766 56.7841 958.996 56.3523C957.197 55.3268 956.9 54.1124 958.171 52.5742C958.86 51.7376 959.726 50.8471 960.686 50.5097C962.336 49.9295 964.134 49.7541 965.541 49.4843Z" fill="white"/>
<path d="M986.149 69.4003C981.822 69.1979 979.78 71.5457 980.064 75.5937C980.348 79.5068 981.862 82.9205 985.121 85.2954C988.353 87.6567 992.437 86.4018 993.897 82.7316C995.574 78.5217 993.83 73.5832 991.152 71.1139C989.692 69.7646 987.961 69.1169 986.149 69.4003ZM992.843 78.6972C992.897 80.06 992.68 81.3553 992.058 82.5832C991.463 83.7706 990.49 84.4048 989.232 84.7017C988.191 84.9445 987.244 84.6207 986.365 84.0945C982.89 82.003 981.024 76.4708 982.038 73.3403C982.2 72.8276 982.43 72.2744 982.795 71.8966C984.066 70.5472 986.676 70.1289 988.326 71.033C991.342 72.6927 992.545 75.4318 992.816 78.6837L992.843 78.6972Z" fill="white"/>
</g>
<g clip-path="url(#clip3_239_34)">
<path d="M203.121 103.072C197.302 104.569 191.532 105.113 185.67 104.653C184.159 104.542 182.716 104.243 181.388 103.545C179.782 102.702 178.8 101.618 178.92 99.5064C179.384 91.9895 179.613 84.4451 180.017 76.9146C180.806 62.5284 182.515 48.2283 184.254 33.935C184.343 33.257 184.401 32.5721 184.477 31.8974C184.529 31.3569 184.089 31.3089 183.823 31.4459C182.815 31.9808 181.873 32.6132 180.871 33.175C179.439 33.9573 177.933 34.4441 176.275 34.2555C174.073 34.0019 173.057 32.1427 174.266 30.2886C175.001 29.1655 176.091 28.2682 177.067 27.3135C177.605 26.7809 177.33 26.6493 176.824 26.4466C175.653 25.9805 174.476 25.5446 173.362 24.9645C172.021 24.2696 170.959 23.2061 170.351 21.7877C169.596 20.0063 170.551 18.2726 172.429 17.8505C173.618 17.5847 174.882 18.37 176.032 17.6004C175.709 16.411 175.232 15.2313 175.087 14.0121C174.896 12.4335 174.866 10.815 175.393 9.25822C176.083 7.26196 177.807 6.6213 179.416 7.93459C180.451 8.77645 181.228 9.95349 182.125 10.9864C182.467 11.3868 182.933 11.314 183.19 10.7942C183.736 9.66051 184.179 8.45275 184.867 7.42688C185.554 6.40101 186.419 5.4595 187.358 4.6424C188.377 3.74826 189.784 4.01346 190.695 5.04306C191.488 5.9448 191.68 7.06674 191.943 8.18549C192.166 9.14298 192.029 10.2608 192.947 10.9748C193.714 10.4998 194.477 10.0113 195.257 9.53299C196.643 8.67664 198.188 8.17995 199.784 8.05609C202.417 7.86078 204.07 10.2184 202.973 12.6435C202.554 13.5458 201.851 14.3332 201.184 15.0972C200.662 15.6971 199.973 16.1387 199.434 16.7284C199.3 16.8758 199.349 17.4199 199.493 17.5411C200.036 17.9487 200.747 18.1719 201.22 18.6398C201.873 19.2625 202.489 19.9657 202.883 20.7523C203.465 21.892 203.116 23.0765 202.047 23.769C201.186 24.3244 200.198 24.6545 199.294 25.1493C198.517 25.584 197.454 24.9201 196.824 25.8319C197.249 26.5112 197.734 27.1469 198.095 27.8562C198.737 29.1236 198.012 30.5154 196.608 30.6632C195.829 30.742 195.02 30.5856 194.224 30.5972C193.482 30.5955 192.735 29.996 192.005 30.6189C192.319 31.1971 192.589 31.829 192.978 32.3605C197.667 38.8586 201.431 45.9423 205.69 52.7181C210.49 60.3582 215.318 67.9916 220.071 75.6719C222.168 79.0748 224.165 82.5313 226.124 86.0112C227.445 88.3512 227.319 89.224 225.421 91.1771C223.435 93.2375 221.258 95.0456 218.753 96.5071C211.981 100.437 208.211 101.855 203.114 103.045L203.121 103.072ZM188.375 102.272C190.652 100.981 193.488 99.7084 195.967 97.9111C200.515 94.6177 204.613 90.7793 208.334 86.5639C211.539 82.9181 214.177 78.942 215.723 74.2951C215.949 73.5972 216.061 73.0132 215.643 72.3608C214.027 69.8656 212.448 67.3469 210.819 64.855C210.732 64.7339 210.188 64.7259 210.063 64.8566C209.76 65.1883 209.568 65.621 209.352 66.0167C205.791 72.3747 201.175 77.8673 195.697 82.646C191.858 85.978 187.652 88.688 182.595 89.8111C182.38 89.8643 182.155 89.9343 181.93 90.0043C181.188 90.2309 180.797 90.7269 180.745 91.4957C180.567 94.1211 180.417 96.7398 180.182 99.365C180.086 100.473 180.678 101.196 181.483 101.567C183.496 102.495 185.658 102.645 188.372 102.258L188.375 102.272ZM198.31 23.4816C199.09 23.2316 199.641 23.0952 200.175 22.8916C201.641 22.3007 201.795 20.9647 200.461 20.0113C199.821 19.5565 199.083 19.2257 198.348 18.9084C197.546 18.5506 196.273 18.7659 196.034 17.7412C195.748 16.5284 197.008 16.1452 197.792 15.509C198.932 14.585 200.08 13.6307 201.066 12.5451C201.864 11.6773 201.853 10.596 201.33 10.0408C200.63 9.28701 199.7 9.33184 198.787 9.44387C198.467 9.48006 198.145 9.67405 197.862 9.85807C196.537 10.728 195.219 11.6248 193.897 12.5082C193.336 12.8896 192.817 13.3316 192.229 13.6627C191.765 13.9201 190.933 13.5556 190.847 13.0349C190.668 11.9096 190.587 10.7745 190.412 9.66269C190.223 8.55418 190.031 7.43224 189.704 6.34356C189.488 5.64128 188.588 5.52166 188.02 5.99041C186.267 7.43687 185.396 9.39241 184.793 11.5098C184.509 12.4929 184.315 13.4964 184.001 14.4728C183.791 15.1237 182.703 15.2219 182.301 14.6367C181.92 14.0751 181.622 13.4498 181.238 12.8748C180.538 11.8356 179.849 10.7796 179.042 9.82414C178.717 9.43388 178.053 8.99917 177.63 9.07541C176.864 9.20793 176.859 10.0507 176.74 10.722C176.474 12.2424 176.871 13.6704 177.28 15.0951C177.637 16.3047 178.124 17.4676 178.491 18.6605C178.734 19.4703 177.97 20.2441 177.087 20.1346C175.744 19.9535 174.395 19.6885 173.046 19.5947C172.696 19.567 172.138 19.9619 171.993 20.2973C171.855 20.6026 172.011 21.1771 172.232 21.4932C173.36 23.0539 175.034 23.7663 176.812 24.3245C177.896 24.6695 179 24.981 180.057 25.3898C180.717 25.6398 180.876 26.6844 180.355 27.113C179.837 27.555 179.255 27.9129 178.697 28.3078C177.957 28.8333 177.18 29.3251 176.483 29.911C175.706 30.5741 175.378 31.6108 175.76 32.0012C176.39 32.644 177.202 32.6426 177.989 32.4194C178.526 32.2864 179.061 32.0257 179.541 31.7213C181.344 30.5335 183.257 29.4467 184.875 28.0335C186.191 26.8949 187.38 26.6862 188.927 27.2304C190.319 27.7273 191.759 28.1268 193.212 28.4089C194.051 28.5721 194.961 28.4466 195.844 28.4419C196.24 27.2744 195.072 26.9359 194.637 26.2163C194.467 25.9305 194.172 25.7182 193.988 25.4358C193.482 24.7194 193.918 23.7131 194.798 23.6379C196.04 23.53 197.3 23.4893 198.314 23.4379L198.31 23.4816ZM182.426 79.0423C182.796 78.8652 183.229 78.7152 183.596 78.4675C190.396 73.9035 196.137 68.2322 200.72 61.4501C201.919 59.67 202.74 57.627 203.735 55.712C204.13 54.944 204.175 54.2054 203.717 53.4489C202.245 51.0178 200.794 48.5531 199.308 46.1253C198.991 45.5907 198.601 45.6301 198.301 46.1465C198.193 46.3443 198.085 46.5422 197.981 46.7535C194.675 53.2766 190.183 58.8098 184.28 63.1376C183.133 63.9777 182.737 64.974 182.657 66.3203C182.416 70.1879 182.088 74.0486 181.804 77.9127C181.787 78.1309 181.779 78.3894 181.87 78.581C181.956 78.7592 182.181 78.8605 182.429 79.0558L182.426 79.0423ZM194.02 37.3223C192.083 34.279 190.492 31.25 187.885 28.9572C187.523 28.6475 186.952 28.8745 186.833 29.3745C186.653 30.1464 186.49 30.9283 186.388 31.7239C185.762 36.7994 185.152 41.885 184.556 46.9672C184.347 48.7732 184.138 50.5792 183.972 52.3886C183.945 52.6807 184.179 52.9935 184.283 53.296C184.451 53.1688 184.673 53.0853 184.804 52.9245C186.4 50.8464 188.05 48.8121 189.56 46.67C191.268 44.2363 192.627 41.6036 193.648 38.8123C193.833 38.2956 193.925 37.7452 194.02 37.3223ZM224.943 87.2306C224.321 86.158 223.712 85.0821 223.07 84.0431C222.816 83.6496 222.241 83.749 222.029 84.2152C220.129 88.2938 217.377 91.756 214.318 95.0092C213.853 95.495 213.462 96.0481 213.038 96.581C213.897 96.996 214.509 96.3595 215.138 96.0185C218.342 94.2699 221.432 92.3497 224.101 89.8208C224.841 89.1242 225.102 88.3323 224.96 87.2407L224.943 87.2306Z" fill="white"/>
</g>
<g clip-path="url(#clip4_239_34)">
<path d="M214.745 526C220.055 525.803 223.886 527.625 226.327 532.103C228.601 536.309 230.631 540.621 232.157 545.13C234.843 553.086 237.422 561.072 240.077 569.043C240.428 570.105 241.008 571.092 241.374 572.155C242.214 574.645 242.595 577.089 240.016 578.927C239.314 579.428 239.268 580.172 239.192 580.931C238.627 586.412 238.032 591.892 237.452 597.373C237.254 599.256 236.796 599.696 234.858 599.894C232.706 600.121 230.6 599.879 228.479 599.423C219.369 597.48 211.555 593.016 204.642 586.973C201.239 583.998 198.187 580.627 194.982 577.423C194.448 576.892 193.99 576.285 193.487 575.723C190.892 572.808 190.007 569.392 190.618 565.581C191.167 562.241 191.808 558.916 192.403 555.591C192.51 554.968 192.663 554.361 192.739 553.739C192.815 553.071 192.647 552.645 191.9 552.311C189.32 551.233 188.832 550.383 189.046 547.848C189.076 547.468 189.107 547.089 189.214 546.739C190.953 540.378 194.112 534.958 199.484 530.919C202.689 528.52 206.336 527.26 210.197 526.516C211.799 526.213 213.447 526.152 214.745 526.015V526ZM213.966 551.446C213.966 550.96 213.783 550.626 213.234 550.657C213.142 549.138 211.86 548.349 211.067 547.271C208.35 543.566 204.856 540.317 204.062 535.474C203.986 535.003 203.223 534.958 202.841 535.337C202.261 535.914 201.941 536.613 202.17 537.372C202.46 538.313 202.857 539.254 203.36 540.12C205.802 544.265 209.19 547.59 212.898 550.596C212.974 550.657 213.142 550.626 213.264 550.641C213.524 550.884 213.783 551.142 214.043 551.385C214.073 551.492 214.088 551.598 214.134 551.689C214.165 551.735 214.272 551.734 214.348 551.75C214.226 551.659 214.088 551.552 213.966 551.461V551.446ZM232.996 588.264C233.363 588.583 233.805 588.841 234.065 589.22C234.721 590.131 235.285 591.118 235.896 592.059C235.942 592.135 236.109 592.166 236.232 592.166C236.308 592.166 236.445 592.075 236.445 592.014C236.476 590.648 236.491 589.281 236.506 587.93C235.621 587.505 234.766 587.034 233.866 586.654C233.179 586.351 232.447 586.153 231.745 585.88C231.043 585.607 230.371 585.258 229.669 585C229.471 584.924 229.151 584.954 229.013 585.075C228.906 585.167 228.937 585.501 228.998 585.713C229.09 586.078 229.212 586.442 229.395 586.761C230.265 588.279 231.073 589.828 232.065 591.27C232.355 591.695 233.271 592.075 233.698 591.923C234.66 591.574 233.775 590.951 233.622 590.481C233.424 589.767 233.134 589.084 232.889 588.4L232.981 588.325L232.996 588.264ZM207.236 572.428C206.275 571.639 205.329 570.834 204.352 570.075C204.184 569.938 203.833 569.817 203.696 569.893C203.528 569.984 203.406 570.348 203.452 570.546C203.833 572.231 204.184 573.931 204.688 575.586C205.039 576.725 206.046 577.332 207.069 577.818C207.16 577.864 207.542 577.59 207.526 577.545C207.236 576.467 206.901 575.404 206.611 574.326C206.397 573.522 206.702 572.869 207.297 572.322C207.374 574.615 208.503 576.604 209.266 578.684C209.541 579.428 210.289 580.065 210.945 580.597C211.387 580.961 212.196 581.401 212.593 581.234C213.341 580.931 212.761 580.187 212.639 579.625C212.562 579.261 212.456 578.881 212.486 578.517C212.517 578.167 212.684 577.833 212.807 577.499C212.944 577.697 213.127 577.879 213.203 578.091C213.539 579.033 213.905 579.959 214.134 580.931C214.592 582.874 216.057 583.724 217.751 584.347C218.285 584.544 218.392 584.104 218.453 583.77C218.544 583.284 218.544 582.783 218.575 582.282L218.499 582.343C219.277 582.479 219.369 583.178 219.521 583.739C220.055 585.607 221.429 586.579 223.123 587.231C223.336 587.307 223.642 587.383 223.809 587.292C223.947 587.216 224.008 586.882 223.993 586.67C223.947 585.941 223.84 585.212 223.748 584.468C225.03 584.939 224.939 586.229 225.335 587.201C225.686 588.051 226.129 588.75 226.968 589.129C227.747 589.478 228.54 589.782 229.334 590.116C229.975 589.16 228.967 588.552 228.8 587.778C228.662 587.186 228.25 586.639 228.159 586.047C227.853 583.952 226.221 583.345 224.542 582.798C224.435 582.768 224.099 583.223 223.993 583.497C223.87 583.831 223.886 584.225 223.84 584.59C223.642 584.453 223.306 584.347 223.291 584.195C223.062 582.449 222.085 581.341 220.513 580.566C215.843 578.243 211.555 575.313 207.206 572.459L207.236 572.428ZM201.376 550.125C201.544 548.789 200.842 548.075 199.682 548.288C197.988 548.592 196.34 549.412 195.608 550.763C194.738 552.342 194.524 554.316 194.234 556.153C194.051 557.352 194.967 558.233 195.684 559.113C200.491 565.004 206.199 569.878 212.547 574.053C219.613 578.699 227.182 582.358 235.041 585.47C236.705 586.123 237.162 586.032 237.361 584.013C237.513 582.525 237.758 581.037 237.925 579.549C238.002 578.805 237.04 577.773 236.262 577.803C235.774 577.818 235.301 578.046 234.828 578.152C233.027 578.593 232.294 578.289 231.516 576.68C231.302 576.239 231.211 575.723 231.028 575.268C230.707 574.478 230.234 574.235 229.273 574.417C226.739 574.903 226.251 574.584 225.213 572.322C225.168 572.216 225.137 572.079 225.091 571.973C224.552 570.758 223.545 570.323 222.07 570.667C221.948 570.698 221.841 570.773 221.719 570.789C220.01 571.138 218.712 570.485 218.209 568.785C217.858 567.6 217.843 566.325 217.598 565.095C217.492 564.579 217.11 564.23 216.5 564.458C216.149 564.594 215.798 564.761 215.508 564.974C213.936 566.112 212.593 565.718 211.219 564.139C210.563 563.395 210.105 562.484 209.648 561.588C208.32 558.931 208.335 558.931 205.558 559.645C202.582 560.404 200.934 559.341 200.552 556.32C200.445 555.469 200.583 554.574 200.72 553.708C200.903 552.478 201.193 551.249 201.422 550.11L201.376 550.125ZM233.347 598.117C233.729 598.117 234.11 598.133 234.477 598.117C235.743 598.041 236.354 597.495 236.521 596.356C236.689 595.233 236.308 594.732 235.011 594.231C226.205 590.83 217.766 586.7 209.739 581.735C203.696 578 198.385 573.461 194.234 567.646C193.883 567.16 193.731 565.976 192.754 566.538C192.388 566.75 192.22 567.707 192.327 568.253C192.586 569.589 192.876 570.971 193.502 572.155C194.25 573.582 195.226 574.949 196.356 576.087C199.896 579.64 203.452 583.208 207.236 586.503C212.013 590.648 217.492 593.76 223.458 595.916C226.648 597.07 229.914 598.011 233.363 598.102L233.347 598.117ZM219.857 542.094C221.475 542.063 222.97 540.287 222.94 538.435C222.909 537.007 221.154 535.58 219.475 535.626C218.224 535.656 216.484 537.706 216.515 539.087C216.545 540.53 218.331 542.124 219.857 542.109V542.094ZM197.973 568.329C197.805 567.616 197.424 566.796 197.424 565.961C197.424 563.501 196.035 561.816 194.448 560.191C194.005 559.751 193.716 559.903 193.426 560.556C192.891 561.785 192.846 562.97 193.67 564.063C194.86 565.642 196.081 567.206 197.302 568.754C197.378 568.86 197.668 568.83 197.836 568.8C197.882 568.8 197.897 568.587 197.973 568.314V568.329ZM198.797 567.266H198.752C199.026 568.359 199.27 569.453 199.606 570.515C199.789 571.092 200.094 571.654 200.445 572.14C201.193 573.157 202.368 573.78 202.414 573.415C202.521 572.702 202.521 571.943 202.414 571.229C202.078 568.83 201.285 566.674 199.072 565.338C198.98 565.277 198.767 565.232 198.721 565.277C198.584 565.444 198.37 565.672 198.401 565.839C198.477 566.325 198.66 566.796 198.797 567.266Z" fill="white"/>
</g>
<defs>
<clipPath id="clip0_239_34">
<rect width="125.76" height="129.56" fill="white" transform="translate(757 472.185) rotate(-10.624)"/>
</clipPath>
<clipPath id="clip1_239_34">
<rect width="59.9" height="273.47" fill="white"/>
</clipPath>
<clipPath id="clip2_239_34">
<rect width="81" height="369" fill="white" transform="matrix(-1 0 0 1 1006 39)"/>
</clipPath>
<clipPath id="clip3_239_34">
<rect width="49.646" height="99.555" fill="white" transform="translate(157 11.9283) rotate(-13.9023)"/>
</clipPath>
<clipPath id="clip4_239_34">
<rect width="53" height="74" fill="white" transform="translate(189 526)"/>
</clipPath>
</defs>
</svg>
