<?xml version="1.0" encoding="UTF-8"?>
<svg id="Layer_1" xmlns="http://www.w3.org/2000/svg" version="1.1" viewBox="0 0 170 71">
  <!-- Generator: Adobe Illustrator 30.1.0, SVG Export Plug-In . SVG Version: 2.1.1 Build 136)  -->
  <defs>
    <style>
      .st0 {
        fill: #ac8a02;
      }

      .st1 {
        fill: #e40084;
      }
    </style>
  </defs>
  <g>
    <path class="st1" d="M81.99,33.46c.44.56.79,1.15,1.27,1.62.57.56.68,1.18.5,1.91-.47,1.95-.93,3.9-1.99,5.63-1,1.62-2.31,2.9-4.26,3.29-2.96.59-5.38-.35-7.29-2.66-.84-1.02-1.39-2.2-1.68-3.49-.02-.09-.04-.18-.06-.27-.01-.09-.02-.18-.03-.31,1.37-.37,2.72-.74,4-1.1.29.73.49,1.46.86,2.08.28.48.72.92,1.19,1.22,1.15.74,2.53.39,3.5-.8.84-1.02,1.16-2.25,1.4-3.51.68-3.51,1.29-7.03,2.02-10.53.6-2.89,1.33-5.76,2-8.64.41-1.78,1.55-2.76,3.3-3.12.12-.02.23-.08.33-.22-.37.03-.74.04-1.1.1-3.08.46-5.91,1.55-8.37,3.47-.7.55-1.35,1.22-1.84,1.96-1.2,1.83-.85,3.8.43,5.44.53.68,1.19,1.26,1.81,1.91-.85,1.07-1.71,2.16-2.6,3.28-1.45-1.16-2.75-2.44-3.65-4.07-.77-1.4-1.19-2.89-1.1-4.49.13-2.13,1-3.95,2.39-5.53,2.13-2.42,4.83-3.96,7.84-5,2.61-.9,5.3-1.35,8.06-1.2,3.21.17,6.23.97,8.78,3.03,2.09,1.69,3.34,3.89,3.71,6.57.41,3.03-.05,5.93-1.6,8.58-2.01,3.44-5.03,5.46-8.98,6.04-2.01.3-4.03.37-6.02-.1-.93-.22-1.81-.68-2.82-1.08ZM85,30.23c1.51.4,3.97.48,5.4.23,1.69-.31,3.23-.96,4.41-2.23,1.97-2.11,2.66-4.66,2.36-7.51-.24-2.28-1.48-3.86-3.5-4.87-1.32-.66-2.76-.91-4.2-1.13-.59-.09-.82.23-.96.69-.38,1.23-.82,2.44-1.12,3.69-.67,2.83-1.27,5.68-1.89,8.52-.19.86-.34,1.73-.51,2.62Z"/>
    <g>
      <path class="st0" d="M94.78,8.76c-.67.37-1.37.08-1.7-.63-.33-.7-.33-1.44-.24-2.19.03-.24.13-.36.39-.42.49-.13.68-.54.5-.96-.17-.39-.6-.54-.97-.35-.39.21-.48.65-.24,1.08.06.11.1.3.05.39-.47.8-1.06,1.5-1.88,1.96-.66.36-1.26.23-1.73-.37-.78-.99-1.04-2.2-1.35-3.38-.02-.08.13-.25.24-.31.4-.22.66-.53.63-1-.03-.53-.4-.93-.89-.99-.51-.06-1.01.23-1.15.67-.17.51.06,1.04.54,1.32.12.07.28.25.26.34-.28,1.15-.57,2.29-1.27,3.28-.49.69-1.13.81-1.87.39-.87-.5-1.43-1.26-1.93-2.11.32-.35.45-.74.13-1.09-.16-.17-.54-.29-.73-.21-.21.09-.4.41-.46.66-.08.35.19.56.5.69.14.06.38.15.38.24.05.8.18,1.62-.2,2.38-.34.68-1.05.96-1.72.6-.53-.29-.98-.72-1.38-1.03.38.98.81,2.07,1.23,3.16,5.04-1.8,10.09-2.17,15.2-.26.05-.14.09-.26.14-.37.36-.9.73-1.79,1.09-2.69-.08.06-.17.11-.25.17-.43.35-.82.77-1.3,1.04Z"/>
      <path class="st0" d="M78.27,6.59c-.14,0-.41.21-.41.34,0,.16.2.33.41.62.21-.29.42-.45.4-.58-.02-.15-.25-.37-.4-.37Z"/>
      <polygon class="st0" points="96.33 7.54 96.32 7.55 96.33 7.55 96.33 7.54 96.33 7.54 96.33 7.54"/>
      <path class="st0" d="M97.01,6.87c-.15-.1-.29-.27-.45-.29-.26-.03-.38.17-.34.43.03.18.08.35.12.53.12-.07.26-.11.35-.2.13-.14.22-.31.33-.48Z"/>
    </g>
  </g>
  <g>
    <g>
      <path class="st1" d="M150.41,60.38c.33-.12.6-.27.85-.48.63-.54,1.04-1.23,1.33-1.99.34-.89.76-1.74,1.26-2.55.04-.06.07-.12.17-.09.58.15,1.17.3,1.75.44.02,0,.04.02.08.03-.06.1-.12.19-.17.29-.61,1.02-1.17,2.06-1.5,3.21-.11.4-.16.82-.22,1.24-.02.13,0,.28.03.41.07.44.44.67.87.55.34-.09.6-.31.83-.56.61-.64,1.04-1.41,1.34-2.24.41-1.13.91-2.22,1.52-3.25.06-.1.11-.14.24-.1.57.15,1.14.3,1.71.44.03,0,.06.02.11.04-.06.09-.11.18-.16.26-.63,1.02-1.19,2.07-1.54,3.22-.14.46-.23.93-.21,1.41,0,.07,0,.14.02.21.1.52.53.74,1.01.51.35-.16.6-.44.83-.74.58-.74,1.01-1.56,1.43-2.4.56-1.13.97-2.31,1.21-3.54.05-.28.08-.55.13-.85.66.08,1.32.16,2,.24-.03.1-.05.19-.08.28-.08.27-.17.54-.22.81-.06.3.05.46.35.54.23.06.47.1.7.17.83.24,1.23.82,1.19,1.68-.03.64-.27,1.21-.57,1.75-.2.36-.42.72-.61,1.09-.08.15-.12.31-.15.48-.05.29.07.46.36.52.38.08.71-.02,1.02-.23.35-.25.61-.57.84-.93.03-.04.06-.09.09-.15.48.33.96.66,1.46,1-.23.32-.45.64-.68.93-.49.61-1.08,1.07-1.85,1.27-.64.16-1.28.17-1.9-.09-.88-.37-1.37-1.18-1.32-2.14.03-.65.27-1.23.59-1.78.2-.33.41-.66.59-1,.09-.18.13-.39.15-.59.02-.19-.08-.32-.26-.36-.19-.04-.4-.06-.6-.07-.04,0-.09.06-.11.1-.16.35-.3.7-.46,1.05-.49,1.08-1.02,2.15-1.75,3.1-.47.61-.99,1.17-1.68,1.54-.8.43-1.63.43-2.46.09-.44-.18-.76-.51-.96-.94-.02-.04-.04-.08-.07-.14-.08.09-.15.18-.23.25-.49.49-1.03.9-1.73,1.01-.82.14-1.61.04-2.26-.54-.34-.3-.51-.71-.61-1.15-.01-.05-.02-.1-.04-.15,0,0,0,0-.02-.02-.02.01-.05.02-.08.04-.84.54-1.77.79-2.75.83-.15,0-.26.05-.38.14-.59.44-1.23.76-1.96.86-1.04.15-2-.04-2.79-.78-.24-.23-.43-.52-.65-.8-.02.02-.06.05-.1.09-.67.68-1.44,1.2-2.38,1.42-.78.18-1.55.17-2.29-.18-.59-.28-.98-.74-1.25-1.33-.01-.03-.03-.07-.05-.11-.19.22-.37.44-.56.65-.47.5-1.01.9-1.69,1.04-.99.21-2-.22-2.44-1.06-.35-.66-.34-1.34-.13-2.03.14-.45.38-.84.62-1.24.18-.29.35-.58.49-.89.07-.14.07-.31.08-.47,0-.15-.09-.27-.24-.31-.2-.05-.41-.06-.62-.08-.04,0-.09.07-.12.12-.2.44-.38.9-.59,1.34-.52,1.06-1.04,2.12-1.79,3.04-.49.6-1.05,1.13-1.79,1.41-.7.27-1.42.3-2.13.02-.4-.16-.69-.44-.9-.81-.02-.03-.04-.06-.06-.1-.15.12-.28.24-.43.34-.72.53-1.52.79-2.42.75-1.36-.05-2.42-.94-2.66-2.28-.16-.89-.01-1.75.36-2.56.7-1.51,1.83-2.57,3.42-3.08,1.03-.33,2.06-.31,3.07.21.07-.12.14-.25.21-.36.03-.04.09-.08.13-.07.62.15,1.23.3,1.85.46,0,0,.02.01.03.02-.11.19-.23.37-.34.56-.55.94-1.04,1.91-1.35,2.95-.14.47-.25.94-.22,1.44,0,.1.03.21.06.31.12.38.4.53.78.43.33-.09.58-.29.8-.53.49-.51.85-1.12,1.18-1.74.56-1.05,1.07-2.13,1.4-3.28.19-.66.34-1.33.41-2.04.67.08,1.33.16,2.01.24-.07.22-.13.41-.19.61-.05.16-.1.33-.12.5-.05.29.06.45.35.52.23.06.47.1.7.17.81.24,1.21.79,1.19,1.64,0,.58-.2,1.1-.46,1.59-.2.37-.42.72-.61,1.09-.1.2-.19.41-.24.63-.1.46.22.74.66.56.22-.09.43-.25.6-.42.5-.51.84-1.13,1.17-1.75.17-.32.35-.65.49-.99.17-.42.28-.85.43-1.27.75-2.08,1.81-3.97,3.33-5.59.55-.59,1.17-1.1,1.9-1.46.54-.26,1.1-.39,1.7-.27.79.16,1.35.75,1.49,1.59.12.73-.05,1.41-.39,2.05-.46.87-1.12,1.55-1.9,2.14-1.2.9-2.54,1.48-3.99,1.8-.06.01-.13.06-.15.12-.3.79-.54,1.6-.63,2.45-.03.32-.03.63.07.94.13.41.43.65.86.69.62.05,1.16-.17,1.64-.54.89-.68,1.49-1.58,1.97-2.59.64-1.34,1.63-2.31,3.05-2.8.71-.25,1.45-.29,2.17-.05.92.3,1.48.96,1.75,1.87.29.97.24,1.94-.11,2.9-.02.05-.03.1-.06.19ZM148.79,58.73s.02,0,.04,0c-.06-.28-.09-.57-.18-.85-.12-.35-.38-.59-.75-.62-.24-.02-.49,0-.72.07-.57.17-1.01.55-1.37,1.01-.44.57-.72,1.2-.71,1.94.01.65.39,1.08,1.04,1.16.61.08,1.17-.08,1.65-.47.7-.58.99-1.35,1.01-2.24ZM125.07,57.22c-.19.02-.38.03-.57.07-1.16.26-1.95.97-2.43,2.03-.19.43-.29.88-.18,1.36.08.37.31.62.67.71.49.13.96.08,1.4-.18.45-.27.73-.69.97-1.13.44-.8.73-1.66,1.02-2.52.03-.09,0-.12-.07-.16-.25-.14-.52-.17-.81-.19ZM140.71,55.13c.06-.02.09-.02.12-.04.37-.19.75-.35,1.11-.57.76-.46,1.42-1.04,1.91-1.79.18-.27.32-.57.33-.9,0-.17-.06-.24-.23-.23-.12.01-.25.04-.36.09-.38.15-.68.42-.97.71-.7.71-1.24,1.54-1.73,2.4-.06.1-.11.21-.18.34Z"/>
      <path class="st1" d="M105.5,57.7c.54.43,1.04.84,1.56,1.25-.06.08-.1.15-.16.23-.62.82-.35,2.42,1.21,2.62,1.11.14,1.96-.31,2.65-1.15.53-.64.89-1.38,1.18-2.16.42-1.16.8-2.34,1.22-3.5.54-1.5,1.18-2.95,2-4.31.02-.03.04-.07.07-.12-.11-.01-.2-.03-.29-.03-1.24-.05-2.38.23-3.41.93-1.01.69-1.68,1.61-1.86,2.84-.06.45-.04.9.13,1.33.24.59.79.93,1.44.89.04,0,.08,0,.14,0,0,.05.01.09.01.13,0,.58,0,1.17,0,1.75,0,.13-.05.15-.16.15-1.66.01-3.07-1.09-3.45-2.73-.34-1.46-.05-2.83.75-4.07,1.06-1.64,2.6-2.6,4.48-3.02,1.09-.24,2.19-.22,3.29,0,.11.02.17,0,.24-.09.45-.49.91-.97,1.36-1.46.08-.08.13-.09.23-.02.49.38.98.75,1.47,1.12-.42.42-.84.84-1.27,1.27.2.15.37.27.53.4,1.44,1.24,2.18,2.81,2.04,4.71-.17,2.28-1.41,3.8-3.5,4.65-.82.33-1.68.44-2.56.42-.22,0-.22,0-.2-.23.03-.54.06-1.08.1-1.62,0-.05,0-.09.01-.15.08,0,.15,0,.22,0,.64.03,1.27-.04,1.87-.29,1.18-.49,1.86-1.38,2.04-2.63.17-1.22-.15-2.31-1.06-3.17-.19-.18-.41-.32-.64-.5-.18.3-.35.57-.51.85-.79,1.38-1.35,2.85-1.85,4.34-.4,1.19-.79,2.39-1.31,3.53-.42.92-.91,1.79-1.61,2.53-1.38,1.47-3.34,1.73-4.92,1.16-2.3-.83-2.91-3.3-1.93-5.11.13-.25.31-.48.47-.73Z"/>
    </g>
    <g>
      <path class="st1" d="M63.58,63.69c-.63-.13-1.25-.26-1.87-.39.02-.41.11-.79.23-1.16.27-.84.68-1.61,1.06-2.4.22-.46.44-.92.63-1.4.07-.18.09-.4.1-.6,0-.21-.11-.28-.32-.27-.2.01-.37.11-.48.26-.19.26-.38.54-.54.83-.41.76-.77,1.54-1.19,2.29-.43.77-.96,1.48-1.65,2.04-.82.66-1.74.93-2.78.68-.53-.13-.94-.44-1.2-.92-.01-.02-.02-.04-.04-.06,0,0-.02,0-.03-.02-.14.11-.28.23-.42.34-.72.53-1.53.79-2.43.75-1.36-.06-2.4-.95-2.65-2.28-.16-.88-.02-1.74.35-2.55.69-1.52,1.82-2.57,3.42-3.09.92-.3,2.09-.33,3.09.21.07-.12.13-.25.21-.36.03-.04.09-.08.13-.07.61.15,1.23.3,1.84.45.01,0,.02.01.05.02-.11.18-.23.37-.33.55-.61,1.04-1.15,2.12-1.45,3.29-.11.42-.18.85-.1,1.29.09.51.45.7.93.52.27-.1.49-.29.68-.49.51-.54.88-1.18,1.23-1.83.38-.71.73-1.44,1.12-2.15.25-.46.57-.87,1-1.18.77-.56,1.99-.63,2.7-.11.21.15.38.35.58.53.1-.08.21-.18.34-.27.5-.39,1.06-.62,1.71-.6.72.02,1.31.28,1.71.91,0,.02.02.03.05.06.04-.04.09-.08.13-.11.61-.56,1.32-.85,2.15-.85,1,0,1.77.62,1.97,1.6.15.76.02,1.48-.29,2.18-.17.37-.36.72-.52,1.09-.09.22-.17.46-.19.7-.04.47.36.75.79.53.24-.13.48-.31.66-.52.7-.78,1.22-1.68,1.59-2.65.41-1.08.79-2.17,1.19-3.26.04-.12.09-.14.21-.11.56.14,1.12.28,1.68.42.04.01.08.03.13.04-.06.15-.12.3-.18.48.15-.07.26-.13.38-.18.67-.3,1.37-.42,2.1-.24.78.19,1.3.69,1.59,1.42.31.78.31,1.59.15,2.4-.1.48-.25.94-.45,1.39-.02.04-.03.08-.05.14.43-.21.79-.47,1.12-.78.51-.49.9-1.05,1.19-1.69.63-1.35,1.61-2.32,3.05-2.79.68-.22,1.37-.26,2.06-.03.95.31,1.55,1.18,1.5,2.18-.05.97-.51,1.68-1.31,2.2-.69.45-1.45.65-2.26.73-.37.04-.74.04-1.1.05-.05,0-.1,0-.18,0,.16.33.4.54.7.66.86.35,1.71.25,2.52-.18.73-.38,1.27-.98,1.72-1.66.9-1.36,1.47-2.87,1.83-4.46.08-.36.13-.73.2-1.12.65.08,1.31.16,1.99.24-.08.24-.15.47-.21.69-.04.13-.07.26-.09.39-.06.32.05.48.36.56.23.06.46.1.68.16.45.13.82.36,1.03.8.18.37.18.76.14,1.15-.08.62-.36,1.16-.67,1.69-.2.35-.38.7-.56,1.06-.05.1-.07.23-.08.35-.02.25.09.4.33.46.3.07.58.04.85-.11.4-.21.69-.54.94-.9.06-.09.12-.18.19-.29.48.33.95.66,1.45,1-.17.24-.32.48-.49.71-.42.57-.91,1.06-1.58,1.34-.68.29-1.39.36-2.1.16-1-.27-1.6-1.13-1.57-2.18.02-.66.25-1.24.58-1.79.17-.29.37-.56.52-.86.11-.21.19-.44.23-.67.05-.27-.08-.41-.34-.47-.01,0-.03,0-.04,0-.51-.1-.51-.1-.72.37-.42.99-.85,1.98-1.46,2.87-.68,1-1.49,1.86-2.61,2.37-1.28.59-2.58.67-3.9.12-.8-.33-1.35-.92-1.68-1.72-.01-.03-.03-.07-.05-.11-.09.07-.17.14-.25.21-1.35,1.05-2.87,1.71-4.57,1.92-.61.08-1.22.09-1.83-.02-.68-.12-1.3-.36-1.82-.88-.98,2.34-1.95,4.66-2.92,6.99-.62-.2-1.22-.4-1.8-.6.8-1.85,1.58-3.69,2.39-5.57-.23.04-.4.09-.58.11-1.47.16-2.7-.97-2.51-2.51.08-.62.35-1.18.6-1.74.16-.35.29-.7.42-1.07.04-.13.04-.29.02-.44-.04-.33-.35-.51-.65-.35-.18.09-.35.22-.49.37-.52.52-.89,1.15-1.23,1.79-.59,1.11-1.06,2.27-1.29,3.51-.03.15-.05.31-.07.5-.64-.13-1.28-.26-1.92-.39.06-.46.2-.89.36-1.31.3-.75.62-1.49.92-2.24.19-.49.33-.99.37-1.51,0-.09.01-.19,0-.29-.04-.37-.31-.55-.67-.46-.23.06-.44.19-.59.37-.27.32-.54.65-.75,1.01-.72,1.22-1.32,2.5-1.75,3.85-.09.27-.13.55-.19.82,0,.04-.02.08-.03.14ZM78.12,61.68c.2-.04.43-.05.64-.12.62-.19,1.08-.59,1.44-1.12.44-.65.68-1.35.64-2.14-.02-.43-.22-.69-.58-.77-.28-.06-.54,0-.8.1-.89.35-1.55.96-2.1,1.72-.29.41-.41.89-.6,1.34,0,.02,0,.05,0,.07.09.38.28.7.72.81.2.05.41.07.65.1ZM53.07,61.7c.43-.01.81-.14,1.14-.41.34-.29.58-.66.79-1.05.4-.75.68-1.56.95-2.36.06-.19.06-.19-.12-.28-.35-.16-.73-.16-1.1-.11-1.14.17-1.95.81-2.5,1.8-.25.46-.4.95-.34,1.49.06.51.36.81.86.89.1.02.21.02.31.03ZM86.33,59.17c.57-.02,1.09-.05,1.59-.22.28-.09.56-.22.82-.37.28-.17.45-.43.47-.76.01-.17-.04-.28-.21-.31-.18-.03-.39-.05-.57,0-.76.16-1.34.62-1.8,1.22-.1.13-.18.28-.3.45Z"/>
      <path class="st1" d="M47.18,51.36c-.26.45-.51.86-.73,1.28-.75,1.4-1.28,2.9-1.78,4.41-.41,1.23-.83,2.46-1.43,3.62-.4.79-.88,1.53-1.53,2.15-.99.93-2.17,1.31-3.51,1.22-.74-.05-1.43-.26-2.04-.68-.96-.66-1.47-1.58-1.53-2.74-.05-.95.23-1.8.83-2.55.03-.04.06-.07.1-.12.51.41,1.02.82,1.54,1.23-.05.08-.1.15-.16.22-.62.82-.36,2.43,1.2,2.63,1.11.14,1.96-.31,2.65-1.15.53-.64.89-1.38,1.18-2.16.41-1.13.78-2.28,1.19-3.41.55-1.53,1.2-3.01,2.03-4.41.02-.03.04-.07.07-.12-.07-.01-.13-.03-.19-.03-1.78-.08-3.32.45-4.51,1.83-.63.73-.95,1.59-.88,2.57.02.26.09.53.19.77.23.55.79.86,1.39.81.04,0,.08,0,.14,0,0,.05.01.1.01.14,0,.58,0,1.16,0,1.74,0,.12-.04.15-.15.15-1.8,0-3.15-1.19-3.48-2.87-.33-1.65.1-3.12,1.12-4.43,1.15-1.47,2.69-2.29,4.52-2.6.97-.16,1.94-.13,2.91.07.12.02.18-.01.25-.09.45-.49.91-.97,1.36-1.45.06-.06.1-.1.19-.03.49.38.98.75,1.47,1.12.01,0,.02.02.02.03-.42.42-.84.84-1.27,1.27.07.05.1.08.14.11,1.27.89,2.07,2.1,2.36,3.62.44,2.34-.62,4.59-2.73,5.72-1.02.55-2.11.76-3.25.73-.22,0-.22,0-.21-.22.03-.54.06-1.08.1-1.62,0-.05,0-.1.02-.16.27,0,.54.01.8,0,.79-.05,1.52-.28,2.15-.78.75-.6,1.13-1.4,1.2-2.34.09-1.15-.23-2.16-1.08-2.96-.19-.18-.41-.32-.65-.51Z"/>
    </g>
    <path class="st1" d="M16,60.07l.54-1.07c.15-.3.27-.62.26-.94s-.22-.54-.53-.57c-1.3-.1-2.24,1.75-2.6,2.79-.41,1.14-.63,2.29-.73,3.52l-2-.41c.22-1.84.65-3.64,1.27-5.39.46-1.33,1.03-2.6,1.71-3.83.46-.81.97-1.56,1.55-2.3-.97.2-1.89.28-2.87.25-.6.94-1.1,1.92-1.46,2.97l-.99,2.86c-.46,1.32-1.04,2.81-1.85,3.95s-1.95,2.01-3.44,2.17c-.86.09-1.7-.02-2.47-.37-1.38-.64-2.18-2.02-2.06-3.53.07-.82.36-1.6.94-2.22l1.54,1.25c-.39.39-.53.9-.45,1.43.07.6.43,1.07,1,1.3.93.34,1.96.12,2.71-.52.42-.36.73-.78,1-1.25.39-.68.69-1.37.93-2.11l.55-1.68c.43-1.31.89-2.58,1.49-3.81l.4-.83-1.69-.56c-1.51-.5-3.08-.81-4.46.2-.76.55-1.25,1.43-1.19,2.37.04.74.49,1.38,1.17,1.65.63.25,1.29.14,1.79-.3.31-.27.51-.6.67-.99l1.83.84c-.68,1.58-2.08,2.68-3.83,2.59-1.98-.11-3.53-1.7-3.64-3.68-.07-1.27.39-2.49,1.26-3.44.97-1.06,2.33-1.66,3.77-1.72.96-.04,1.88.13,2.79.43l2.08.68c.85.28,1.68.37,2.57.31,1.5-.09,2.28-.26,3.6-1.02l.72.86c.55-.22,1.08-.3,1.64-.19.77.15,1.34.72,1.5,1.48.26,1.21-.37,2.27-1.38,2.92-1.18.75-2.61.98-4.01,1l-.3.58c1.17-.51,2.87-.37,3.33,1.04.31.96.02,1.96-.42,2.83-.17.33-.33.65-.47,1-.1.25-.13.51-.04.75.11.29.4.42.69.32.63-.22,1.18-.99,1.54-1.55.42-.64.74-1.3,1.07-1.98.27-.56.64-1.01,1.08-1.44,1.02-.96,2.64-1.58,4-1.1.8.28,1.35.96,1.45,1.81.1.93-.27,1.82-1.01,2.41-1.06.86-2.54,1.05-3.89,1.02.24.6.92.89,1.52.95.68.05,1.33-.13,1.91-.48.47-.29.85-.65,1.22-1.08l1.4,1.12c-.51.66-1.1,1.23-1.81,1.67-1.89,1.22-4.86,1.07-5.99-1.12-.97,1.29-2.3,2.28-3.94,1.6-1.35-.64-1.61-2.17-.97-3.44ZM18.95,52.28c.07-.15.15-.35.03-.5-.06-.08-.25-.05-.35-.04-.72.2-1.4,1.01-1.86,1.61.67-.06,1.82-.45,2.17-1.07ZM25.34,58.4c.18-.23.32-.5.23-.78-.04-.13-.25-.18-.37-.18-1-.02-2.05.84-2.48,1.74.83-.02,2.02-.17,2.62-.78Z"/>
  </g>
</svg>