<svg width="170" height="71" viewBox="0 0 170 71" fill="none" xmlns="http://www.w3.org/2000/svg">
<g clip-path="url(#clip0_33_3)">
<path d="M78.58 31.87C79.02 32.43 79.37 33.02 79.85 33.49C80.42 34.05 80.53 34.67 80.35 35.4C79.88 37.35 79.42 39.3 78.36 41.03C77.36 42.65 76.05 43.93 74.1 44.32C71.14 44.91 68.72 43.97 66.81 41.66C65.97 40.64 65.42 39.46 65.13 38.17C65.11 38.08 65.09 37.99 65.07 37.9C65.06 37.81 65.05 37.72 65.04 37.59C66.41 37.22 67.76 36.85 69.04 36.49C69.33 37.22 69.53 37.95 69.9 38.57C70.18 39.05 70.62 39.49 71.09 39.79C72.24 40.53 73.62 40.18 74.59 38.99C75.43 37.97 75.75 36.74 75.99 35.48C76.67 31.97 77.28 28.45 78.01 24.95C78.61 22.06 79.34 19.19 80.01 16.31C80.42 14.53 81.56 13.55 83.31 13.19C83.43 13.17 83.54 13.11 83.64 12.97C83.27 13 82.9 13.01 82.54 13.07C79.46 13.53 76.63 14.62 74.17 16.54C73.47 17.09 72.82 17.76 72.33 18.5C71.13 20.33 71.48 22.3 72.76 23.94C73.29 24.62 73.95 25.2 74.57 25.85C73.72 26.92 72.86 28.01 71.97 29.13C70.52 27.97 69.22 26.69 68.32 25.06C67.55 23.66 67.13 22.17 67.22 20.57C67.35 18.44 68.22 16.62 69.61 15.04C71.74 12.62 74.44 11.08 77.45 10.04C80.06 9.14001 82.75 8.69001 85.51 8.84001C88.72 9.01001 91.74 9.81001 94.29 11.87C96.38 13.56 97.63 15.76 98 18.44C98.41 21.47 97.95 24.37 96.4 27.02C94.39 30.46 91.37 32.48 87.42 33.06C85.41 33.36 83.39 33.43 81.4 32.96C80.47 32.74 79.59 32.28 78.58 31.88V31.87ZM81.59 28.64C83.1 29.04 85.56 29.12 86.99 28.87C88.68 28.56 90.22 27.91 91.4 26.64C93.37 24.53 94.06 21.98 93.76 19.13C93.52 16.85 92.28 15.27 90.26 14.26C88.94 13.6 87.5 13.35 86.06 13.13C85.47 13.04 85.24 13.36 85.1 13.82C84.72 15.05 84.28 16.26 83.98 17.51C83.31 20.34 82.71 23.19 82.09 26.03C81.9 26.89 81.75 27.76 81.58 28.65L81.59 28.64Z" fill="#C30082"/>
<path d="M91.37 7.16997C90.7 7.53997 90 7.24997 89.67 6.53997C89.34 5.83997 89.34 5.09997 89.43 4.34997C89.46 4.10997 89.56 3.98997 89.82 3.92997C90.31 3.79997 90.5 3.38997 90.32 2.96997C90.15 2.57997 89.72 2.42997 89.35 2.61997C88.96 2.82997 88.87 3.26997 89.11 3.69997C89.17 3.80997 89.21 3.99997 89.16 4.08997C88.69 4.88997 88.1 5.58997 87.28 6.04997C86.62 6.40997 86.02 6.27997 85.55 5.67997C84.77 4.68997 84.51 3.47997 84.2 2.29997C84.18 2.21997 84.33 2.04997 84.44 1.98997C84.84 1.76997 85.1 1.45997 85.07 0.989972C85.04 0.459972 84.67 0.0599716 84.18 -2.84351e-05C83.67 -0.0600284 83.17 0.229972 83.03 0.669972C82.86 1.17997 83.09 1.70997 83.57 1.98997C83.69 2.05997 83.85 2.23997 83.83 2.32997C83.55 3.47997 83.26 4.61997 82.56 5.60997C82.07 6.29997 81.43 6.41997 80.69 5.99997C79.82 5.49997 79.26 4.73997 78.76 3.88997C79.08 3.53997 79.21 3.14997 78.89 2.79997C78.73 2.62997 78.35 2.50997 78.16 2.58997C77.95 2.67997 77.76 2.99997 77.7 3.24997C77.62 3.59997 77.89 3.80997 78.2 3.93997C78.34 3.99997 78.58 4.08997 78.58 4.17997C78.63 4.97997 78.76 5.79997 78.38 6.55997C78.04 7.23997 77.33 7.51997 76.66 7.15997C76.13 6.86997 75.68 6.43997 75.28 6.12997C75.66 7.10997 76.09 8.19997 76.51 9.28997C81.55 7.48997 86.6 7.11997 91.71 9.02997C91.76 8.88997 91.8 8.76997 91.85 8.65997C92.21 7.75997 92.58 6.86997 92.94 5.96997C92.86 6.02997 92.77 6.07997 92.69 6.13997C92.26 6.48997 91.87 6.90997 91.39 7.17997L91.37 7.16997Z" fill="#A28A21"/>
<path d="M74.85 5C74.71 5 74.44 5.21 74.44 5.34C74.44 5.5 74.64 5.67 74.85 5.96C75.06 5.67 75.27 5.51 75.25 5.38C75.23 5.23 75 5.01 74.85 5.01V5Z" fill="#A28A21"/>
<path d="M92.92 5.95995L92.91 5.96995L92.92 5.95995V5.94995V5.95995Z" fill="#A28A21"/>
<path d="M93.59 5.27998C93.44 5.17998 93.3 5.00998 93.14 4.98998C92.88 4.95998 92.76 5.15998 92.8 5.41998C92.83 5.59998 92.88 5.76998 92.92 5.94998C93.04 5.87998 93.18 5.83998 93.27 5.74998C93.4 5.60998 93.49 5.43998 93.6 5.26998L93.59 5.27998Z" fill="#A28A21"/>
<path d="M145.16 59.3C145.57 59.15 145.92 58.96 146.22 58.7C147.01 58.03 147.52 57.16 147.89 56.2C148.32 55.08 148.84 54.02 149.47 53C149.52 52.92 149.56 52.86 149.68 52.89C150.41 53.08 151.14 53.26 151.87 53.45C151.9 53.45 151.92 53.47 151.97 53.49C151.89 53.62 151.82 53.73 151.75 53.85C150.99 55.13 150.28 56.44 149.86 57.87C149.72 58.37 149.66 58.9 149.58 59.42C149.56 59.59 149.58 59.77 149.61 59.94C149.7 60.49 150.16 60.78 150.7 60.63C151.13 60.51 151.45 60.24 151.75 59.93C152.52 59.12 153.06 58.17 153.43 57.13C153.94 55.71 154.58 54.35 155.34 53.05C155.42 52.92 155.48 52.88 155.64 52.92C156.35 53.11 157.07 53.29 157.78 53.47C157.82 53.48 157.86 53.5 157.91 53.52C157.84 53.64 157.77 53.74 157.71 53.85C156.92 55.13 156.21 56.44 155.77 57.89C155.6 58.47 155.48 59.05 155.5 59.66C155.5 59.75 155.51 59.84 155.53 59.93C155.65 60.58 156.2 60.85 156.8 60.57C157.24 60.36 157.55 60.01 157.84 59.65C158.57 58.73 159.11 57.69 159.63 56.64C160.33 55.23 160.84 53.75 161.15 52.2C161.22 51.86 161.26 51.5 161.31 51.13C162.14 51.23 162.96 51.33 163.81 51.43C163.77 51.56 163.74 51.67 163.71 51.79C163.61 52.13 163.5 52.47 163.43 52.81C163.35 53.18 163.5 53.39 163.87 53.48C164.16 53.55 164.46 53.6 164.74 53.69C165.77 54 166.28 54.72 166.23 55.8C166.2 56.6 165.9 57.31 165.51 58C165.25 58.45 164.99 58.9 164.75 59.37C164.66 59.55 164.6 59.76 164.56 59.97C164.5 60.33 164.65 60.54 165.01 60.62C165.48 60.72 165.9 60.6 166.29 60.33C166.73 60.02 167.06 59.61 167.34 59.16C167.38 59.11 167.41 59.05 167.46 58.98C168.06 59.4 168.66 59.8 169.29 60.24C169 60.64 168.73 61.04 168.43 61.41C167.82 62.17 167.08 62.76 166.11 63C165.31 63.2 164.5 63.22 163.73 62.89C162.63 62.43 162.02 61.4 162.08 60.21C162.12 59.4 162.41 58.67 162.83 57.98C163.08 57.56 163.35 57.16 163.57 56.72C163.68 56.5 163.73 56.23 163.76 55.98C163.79 55.75 163.66 55.58 163.43 55.53C163.19 55.47 162.93 55.46 162.68 55.44C162.64 55.44 162.56 55.51 162.54 55.57C162.34 56.01 162.16 56.45 161.96 56.89C161.34 58.25 160.68 59.58 159.77 60.78C159.19 61.55 158.53 62.25 157.67 62.71C156.66 63.25 155.62 63.25 154.58 62.83C154.02 62.61 153.63 62.2 153.38 61.65C153.36 61.6 153.33 61.56 153.29 61.47C153.18 61.59 153.1 61.69 153 61.79C152.39 62.4 151.7 62.91 150.83 63.06C149.8 63.23 148.82 63.11 148 62.38C147.57 62 147.36 61.49 147.24 60.94C147.23 60.88 147.21 60.81 147.19 60.75C147.19 60.75 147.19 60.75 147.17 60.73C147.14 60.74 147.1 60.76 147.07 60.78C146.02 61.46 144.86 61.77 143.62 61.82C143.43 61.82 143.29 61.89 143.15 61.99C142.42 62.54 141.6 62.94 140.69 63.07C139.39 63.25 138.18 63.02 137.2 62.1C136.9 61.81 136.67 61.45 136.39 61.1C136.37 61.12 136.32 61.17 136.27 61.22C135.42 62.07 134.46 62.72 133.28 63C132.3 63.23 131.34 63.21 130.42 62.77C129.68 62.42 129.19 61.84 128.86 61.1C128.84 61.06 128.82 61.02 128.8 60.96C128.56 61.24 128.34 61.52 128.1 61.77C127.51 62.4 126.84 62.89 125.98 63.08C124.74 63.34 123.47 62.8 122.92 61.75C122.48 60.93 122.49 60.07 122.76 59.2C122.93 58.64 123.23 58.14 123.53 57.64C123.75 57.28 123.97 56.91 124.14 56.52C124.22 56.34 124.23 56.13 124.24 55.93C124.24 55.74 124.13 55.59 123.94 55.55C123.68 55.49 123.42 55.47 123.16 55.45C123.11 55.45 123.04 55.54 123.02 55.6C122.77 56.16 122.55 56.73 122.28 57.28C121.63 58.61 120.98 59.94 120.03 61.1C119.41 61.86 118.71 62.52 117.78 62.87C116.9 63.21 116 63.25 115.11 62.89C114.61 62.69 114.24 62.34 113.98 61.88C113.96 61.84 113.93 61.8 113.9 61.75C113.71 61.9 113.54 62.05 113.36 62.18C112.46 62.84 111.46 63.17 110.33 63.12C108.62 63.05 107.3 61.95 106.99 60.27C106.78 59.16 106.97 58.08 107.44 57.06C108.31 55.16 109.73 53.84 111.73 53.2C113.03 52.79 114.32 52.81 115.58 53.46C115.67 53.31 115.75 53.15 115.85 53C115.88 52.95 115.96 52.9 116.01 52.91C116.78 53.09 117.56 53.29 118.33 53.48C118.34 53.48 118.35 53.49 118.37 53.51C118.23 53.74 118.08 53.98 117.94 54.21C117.25 55.38 116.64 56.6 116.24 57.91C116.06 58.5 115.92 59.09 115.97 59.71C115.97 59.84 116 59.97 116.04 60.1C116.18 60.57 116.54 60.76 117.02 60.64C117.43 60.53 117.74 60.27 118.03 59.98C118.64 59.34 119.09 58.58 119.51 57.8C120.22 56.48 120.85 55.13 121.26 53.69C121.5 52.86 121.69 52.02 121.77 51.13C122.61 51.23 123.43 51.33 124.29 51.43C124.2 51.7 124.12 51.94 124.05 52.19C123.99 52.4 123.93 52.6 123.89 52.82C123.83 53.19 123.97 53.39 124.33 53.48C124.62 53.55 124.92 53.6 125.2 53.69C126.22 53.99 126.71 54.68 126.69 55.74C126.68 56.46 126.44 57.12 126.11 57.74C125.86 58.2 125.58 58.64 125.34 59.1C125.21 59.35 125.1 59.61 125.04 59.88C124.91 60.46 125.31 60.81 125.86 60.58C126.14 60.46 126.4 60.26 126.61 60.05C127.24 59.42 127.66 58.64 128.07 57.86C128.29 57.45 128.51 57.05 128.68 56.62C128.89 56.1 129.03 55.55 129.22 55.03C130.16 52.43 131.49 50.05 133.4 48.02C134.09 47.28 134.87 46.64 135.79 46.2C136.46 45.88 137.17 45.71 137.92 45.86C138.91 46.05 139.61 46.8 139.78 47.85C139.93 48.76 139.71 49.61 139.29 50.42C138.72 51.51 137.88 52.37 136.91 53.1C135.41 54.23 133.73 54.96 131.9 55.36C131.83 55.38 131.73 55.44 131.71 55.51C131.34 56.51 131.03 57.52 130.93 58.58C130.89 58.98 130.89 59.37 131.02 59.75C131.19 60.27 131.55 60.57 132.09 60.62C132.87 60.69 133.54 60.4 134.14 59.94C135.26 59.08 136.01 57.95 136.61 56.7C137.41 55.02 138.66 53.8 140.44 53.19C141.33 52.88 142.25 52.83 143.16 53.12C144.31 53.5 145.01 54.32 145.35 55.46C145.71 56.68 145.65 57.9 145.21 59.09C145.19 59.15 145.17 59.21 145.13 59.32L145.16 59.3ZM143.13 57.23C143.13 57.23 143.16 57.23 143.17 57.23C143.1 56.87 143.05 56.51 142.94 56.17C142.79 55.73 142.47 55.43 142 55.39C141.7 55.36 141.38 55.39 141.1 55.48C140.38 55.69 139.83 56.17 139.38 56.75C138.83 57.46 138.48 58.26 138.5 59.18C138.52 60 138.99 60.53 139.8 60.63C140.57 60.73 141.27 60.53 141.87 60.04C142.75 59.32 143.11 58.35 143.14 57.24L143.13 57.23ZM113.39 55.34C113.15 55.37 112.91 55.38 112.68 55.43C111.23 55.76 110.23 56.64 109.63 57.98C109.39 58.52 109.27 59.09 109.4 59.68C109.5 60.14 109.78 60.45 110.24 60.57C110.85 60.73 111.44 60.67 111.99 60.34C112.55 60 112.9 59.48 113.2 58.92C113.75 57.92 114.12 56.84 114.48 55.76C114.52 55.65 114.47 55.61 114.39 55.56C114.08 55.38 113.73 55.35 113.38 55.33L113.39 55.34ZM133 52.71C133.08 52.69 133.12 52.68 133.15 52.66C133.61 52.42 134.09 52.22 134.54 51.94C135.49 51.36 136.32 50.64 136.93 49.69C137.15 49.35 137.33 48.98 137.34 48.56C137.34 48.34 137.26 48.25 137.05 48.27C136.9 48.28 136.74 48.32 136.6 48.38C136.12 48.57 135.74 48.91 135.39 49.27C134.51 50.16 133.84 51.2 133.23 52.28C133.16 52.41 133.09 52.54 133 52.7V52.71Z" fill="#C30082"/>
<path d="M88.86 55.94C89.53 56.48 90.17 56.99 90.81 57.5C90.74 57.6 90.68 57.69 90.61 57.78C89.84 58.81 90.17 60.82 92.13 61.07C93.52 61.25 94.59 60.68 95.45 59.63C96.11 58.82 96.57 57.9 96.92 56.93C97.45 55.47 97.93 54 98.45 52.54C99.12 50.67 99.93 48.85 100.95 47.13C100.97 47.09 101 47.05 101.03 46.98C100.89 46.96 100.78 46.94 100.66 46.94C99.11 46.88 97.67 47.23 96.38 48.11C95.12 48.98 94.27 50.12 94.05 51.67C93.97 52.23 94 52.79 94.22 53.33C94.53 54.07 95.22 54.5 96.02 54.44C96.07 54.44 96.13 54.44 96.2 54.44C96.2 54.5 96.21 54.55 96.21 54.6C96.21 55.33 96.21 56.06 96.21 56.79C96.21 56.95 96.15 56.98 96.01 56.98C93.93 56.99 92.16 55.61 91.68 53.55C91.26 51.72 91.62 50.01 92.62 48.44C93.94 46.38 95.88 45.18 98.24 44.65C99.61 44.34 100.99 44.37 102.36 44.65C102.5 44.68 102.57 44.65 102.66 44.54C103.22 43.93 103.8 43.32 104.37 42.72C104.47 42.62 104.54 42.61 104.65 42.7C105.26 43.17 105.88 43.64 106.5 44.11C105.97 44.64 105.44 45.17 104.9 45.7C105.15 45.89 105.37 46.04 105.57 46.21C107.38 47.76 108.3 49.73 108.12 52.11C107.91 54.96 106.35 56.87 103.73 57.94C102.71 58.36 101.62 58.49 100.52 58.46C100.25 58.46 100.25 58.46 100.27 58.18C100.31 57.5 100.35 56.83 100.39 56.15C100.39 56.09 100.4 56.03 100.41 55.96C100.51 55.96 100.59 55.96 100.68 55.96C101.49 55.99 102.27 55.91 103.02 55.6C104.5 54.98 105.36 53.87 105.57 52.3C105.78 50.77 105.39 49.41 104.24 48.32C104 48.1 103.73 47.91 103.44 47.69C103.21 48.07 103 48.41 102.8 48.75C101.82 50.48 101.11 52.32 100.48 54.2C99.98 55.69 99.49 57.19 98.83 58.63C98.3 59.78 97.69 60.87 96.81 61.8C95.08 63.64 92.62 63.97 90.65 63.26C87.77 62.22 87.01 59.12 88.23 56.85C88.4 56.54 88.62 56.25 88.82 55.93L88.86 55.94Z" fill="#C30082"/>
<path d="M36.31 63.44C35.52 63.28 34.75 63.11 33.96 62.95C33.99 62.44 34.1 61.96 34.25 61.5C34.59 60.45 35.1 59.48 35.58 58.5C35.86 57.92 36.13 57.34 36.37 56.75C36.46 56.52 36.49 56.25 36.49 56C36.49 55.73 36.36 55.65 36.09 55.67C35.84 55.69 35.63 55.81 35.49 56C35.25 56.33 35.01 56.67 34.81 57.03C34.3 57.98 33.84 58.96 33.31 59.9C32.77 60.87 32.11 61.75 31.24 62.46C30.21 63.28 29.06 63.62 27.76 63.31C27.09 63.15 26.58 62.76 26.25 62.15C26.24 62.12 26.22 62.1 26.2 62.07C26.2 62.07 26.18 62.06 26.16 62.05C25.99 62.19 25.81 62.34 25.63 62.47C24.72 63.14 23.71 63.46 22.58 63.41C20.88 63.34 19.57 62.22 19.26 60.55C19.06 59.44 19.24 58.37 19.7 57.36C20.57 55.46 21.99 54.14 23.98 53.49C25.14 53.11 26.6 53.07 27.85 53.75C27.94 53.6 28.02 53.44 28.12 53.29C28.15 53.24 28.23 53.19 28.28 53.2C29.05 53.38 29.82 53.57 30.58 53.77C30.6 53.77 30.61 53.79 30.64 53.8C30.5 54.03 30.36 54.26 30.22 54.49C29.45 55.8 28.78 57.14 28.4 58.62C28.26 59.15 28.17 59.69 28.27 60.24C28.39 60.88 28.84 61.12 29.44 60.89C29.78 60.76 30.05 60.53 30.29 60.27C30.93 59.59 31.4 58.8 31.83 57.98C32.3 57.08 32.75 56.18 33.23 55.29C33.54 54.71 33.95 54.2 34.49 53.81C35.45 53.11 36.99 53.02 37.88 53.67C38.14 53.86 38.35 54.1 38.6 54.34C38.72 54.24 38.87 54.12 39.02 54C39.65 53.51 40.35 53.22 41.16 53.24C42.06 53.27 42.81 53.59 43.3 54.38C43.31 54.4 43.33 54.42 43.36 54.45C43.42 54.4 43.47 54.36 43.52 54.31C44.28 53.61 45.17 53.25 46.21 53.24C47.47 53.24 48.43 54.02 48.68 55.25C48.87 56.2 48.71 57.11 48.31 57.98C48.1 58.44 47.85 58.88 47.66 59.34C47.54 59.62 47.45 59.92 47.42 60.22C47.37 60.82 47.88 61.16 48.41 60.89C48.72 60.73 49.01 60.5 49.24 60.24C50.11 59.26 50.77 58.14 51.24 56.91C51.76 55.56 52.24 54.19 52.73 52.82C52.78 52.67 52.85 52.64 52.99 52.68C53.69 52.86 54.4 53.03 55.1 53.21C55.15 53.22 55.2 53.24 55.26 53.26C55.19 53.45 55.12 53.63 55.03 53.86C55.21 53.77 55.36 53.69 55.51 53.63C56.35 53.25 57.23 53.11 58.14 53.34C59.12 53.58 59.76 54.21 60.13 55.13C60.52 56.11 60.52 57.12 60.31 58.14C60.19 58.74 60 59.32 59.74 59.88C59.72 59.93 59.71 59.98 59.68 60.06C60.22 59.8 60.67 59.47 61.08 59.08C61.71 58.47 62.21 57.76 62.58 56.96C63.37 55.26 64.6 54.05 66.41 53.47C67.26 53.2 68.13 53.15 68.99 53.43C70.19 53.82 70.93 54.91 70.87 56.17C70.81 57.38 70.23 58.28 69.23 58.93C68.37 59.49 67.41 59.75 66.4 59.85C65.94 59.9 65.48 59.9 65.02 59.92C64.96 59.92 64.89 59.92 64.8 59.92C65 60.33 65.3 60.59 65.68 60.74C66.76 61.18 67.82 61.05 68.84 60.52C69.76 60.04 70.43 59.29 70.99 58.44C72.12 56.73 72.83 54.84 73.28 52.85C73.38 52.4 73.44 51.93 73.53 51.45C74.35 51.55 75.17 51.65 76.03 51.75C75.93 52.06 75.84 52.33 75.76 52.61C75.71 52.77 75.67 52.93 75.64 53.1C75.57 53.5 75.7 53.7 76.1 53.8C76.39 53.87 76.67 53.92 76.96 54.01C77.52 54.17 77.99 54.47 78.25 55.01C78.47 55.47 78.48 55.96 78.42 56.45C78.33 57.23 77.96 57.91 77.58 58.57C77.33 59.01 77.1 59.45 76.87 59.9C76.81 60.03 76.79 60.19 76.77 60.33C76.74 60.65 76.88 60.83 77.19 60.91C77.56 61 77.92 60.95 78.25 60.78C78.75 60.52 79.11 60.1 79.43 59.65C79.51 59.54 79.58 59.42 79.67 59.29C80.27 59.7 80.87 60.11 81.48 60.54C81.27 60.85 81.08 61.14 80.87 61.42C80.34 62.13 79.72 62.75 78.89 63.1C78.04 63.47 77.15 63.55 76.25 63.3C75 62.96 74.25 61.89 74.28 60.56C74.3 59.74 74.6 59.01 75.01 58.31C75.23 57.95 75.47 57.6 75.66 57.23C75.79 56.97 75.9 56.68 75.95 56.39C76.01 56.06 75.85 55.88 75.52 55.8C75.5 55.8 75.48 55.8 75.47 55.79C74.83 55.66 74.83 55.67 74.57 56.26C74.04 57.5 73.51 58.74 72.74 59.86C71.89 61.11 70.87 62.19 69.47 62.84C67.87 63.57 66.23 63.68 64.59 63C63.59 62.59 62.9 61.85 62.48 60.85C62.46 60.81 62.44 60.76 62.42 60.71C62.31 60.8 62.21 60.89 62.11 60.97C60.42 62.29 58.52 63.11 56.38 63.38C55.61 63.47 54.85 63.49 54.09 63.36C53.24 63.21 52.46 62.91 51.81 62.26C50.58 65.19 49.37 68.1 48.14 71.02C47.37 70.76 46.62 70.51 45.88 70.27C46.88 67.95 47.87 65.64 48.88 63.29C48.59 63.35 48.38 63.4 48.15 63.43C46.3 63.62 44.76 62.22 45 60.28C45.09 59.5 45.44 58.81 45.76 58.1C45.96 57.66 46.13 57.22 46.28 56.76C46.34 56.59 46.33 56.39 46.3 56.21C46.25 55.8 45.86 55.58 45.49 55.77C45.27 55.88 45.05 56.05 44.88 56.23C44.23 56.88 43.77 57.67 43.34 58.48C42.61 59.87 42.01 61.32 41.72 62.88C41.68 63.07 41.66 63.27 41.63 63.5C40.83 63.34 40.03 63.17 39.23 63.01C39.3 62.43 39.47 61.89 39.68 61.37C40.05 60.43 40.45 59.5 40.83 58.56C41.07 57.95 41.25 57.32 41.3 56.67C41.3 56.55 41.31 56.43 41.3 56.31C41.25 55.84 40.91 55.62 40.46 55.74C40.17 55.82 39.91 55.98 39.72 56.2C39.39 56.61 39.04 57.01 38.77 57.46C37.87 58.99 37.11 60.59 36.57 62.29C36.46 62.62 36.41 62.98 36.33 63.32C36.32 63.37 36.3 63.42 36.29 63.49L36.31 63.44ZM54.54 60.92C54.79 60.88 55.08 60.85 55.34 60.77C56.12 60.54 56.7 60.03 57.15 59.36C57.7 58.55 58.01 57.66 57.95 56.67C57.92 56.13 57.67 55.8 57.22 55.71C56.87 55.64 56.54 55.71 56.22 55.84C55.11 56.27 54.27 57.04 53.59 57.99C53.22 58.5 53.08 59.11 52.83 59.67C52.82 59.7 52.83 59.73 52.83 59.76C52.94 60.23 53.18 60.64 53.73 60.78C53.98 60.84 54.25 60.86 54.54 60.91V60.92ZM23.14 60.95C23.67 60.94 24.15 60.78 24.57 60.43C25 60.07 25.3 59.61 25.56 59.12C26.06 58.18 26.42 57.17 26.76 56.16C26.84 55.92 26.84 55.92 26.61 55.81C26.17 55.61 25.7 55.6 25.23 55.67C23.81 55.89 22.78 56.68 22.1 57.92C21.78 58.5 21.6 59.12 21.68 59.78C21.75 60.42 22.13 60.8 22.76 60.9C22.89 60.92 23.02 60.93 23.15 60.94L23.14 60.95ZM64.83 57.78C65.54 57.76 66.2 57.72 66.82 57.51C67.17 57.39 67.52 57.24 67.84 57.04C68.19 56.83 68.4 56.5 68.43 56.08C68.44 55.87 68.38 55.73 68.17 55.7C67.94 55.66 67.69 55.64 67.46 55.69C66.5 55.89 65.79 56.46 65.2 57.22C65.07 57.38 64.97 57.57 64.83 57.78Z" fill="#C30082"/>
<path d="M15.76 47.99C15.43 48.56 15.12 49.07 14.84 49.59C13.89 51.35 13.23 53.22 12.6 55.11C12.09 56.66 11.55 58.2 10.81 59.65C10.3 60.64 9.71 61.57 8.89 62.34C7.65 63.51 6.17 63.98 4.49 63.87C3.56 63.81 2.7 63.55 1.93 63.02C0.730002 62.19 0.0900025 61.04 0.0100025 59.59C-0.0599975 58.4 0.300002 57.33 1.05 56.4C1.09 56.35 1.13 56.31 1.18 56.25C1.82 56.76 2.46 57.27 3.1 57.79C3.03 57.89 2.97 57.98 2.91 58.07C2.13 59.1 2.46 61.11 4.42 61.36C5.81 61.54 6.88 60.97 7.74 59.92C8.4 59.11 8.86 58.19 9.21 57.22C9.73 55.8 10.19 54.37 10.7 52.95C11.39 51.03 12.2 49.18 13.25 47.43C13.27 47.39 13.3 47.35 13.33 47.28C13.24 47.26 13.17 47.24 13.1 47.24C10.86 47.13 8.93 47.81 7.45 49.53C6.66 50.45 6.26 51.53 6.35 52.75C6.37 53.08 6.46 53.42 6.59 53.72C6.88 54.41 7.58 54.79 8.34 54.74C8.39 54.74 8.45 54.74 8.52 54.73C8.52 54.8 8.53 54.85 8.53 54.91C8.53 55.64 8.53 56.36 8.53 57.09C8.53 57.24 8.48 57.28 8.34 57.28C6.09 57.28 4.4 55.78 3.97 53.68C3.56 51.62 4.1 49.76 5.38 48.13C6.82 46.29 8.75 45.25 11.04 44.87C12.26 44.66 13.48 44.71 14.69 44.96C14.84 44.99 14.91 44.95 15.01 44.84C15.57 44.23 16.15 43.62 16.72 43.02C16.79 42.95 16.85 42.9 16.96 42.98C17.57 43.45 18.19 43.92 18.81 44.39C18.82 44.39 18.83 44.42 18.84 44.42C18.31 44.95 17.79 45.47 17.25 46.01C17.33 46.07 17.38 46.11 17.43 46.14C19.03 47.25 20.03 48.77 20.39 50.67C20.94 53.61 19.61 56.42 16.96 57.84C15.69 58.53 14.32 58.79 12.88 58.76C12.6 58.76 12.6 58.76 12.62 58.48C12.66 57.8 12.7 57.13 12.74 56.45C12.74 56.39 12.75 56.32 12.76 56.25C13.1 56.25 13.43 56.27 13.76 56.25C14.75 56.19 15.67 55.9 16.45 55.27C17.38 54.51 17.86 53.51 17.95 52.33C18.06 50.89 17.66 49.63 16.59 48.62C16.35 48.4 16.08 48.21 15.78 47.98L15.76 47.99Z" fill="#C30082"/>
</g>
<defs>
<clipPath id="clip0_33_3">
<rect width="169.29" height="70.96" fill="white"/>
</clipPath>
</defs>
</svg>
