<svg width="65" height="88" viewBox="0 0 65 88" fill="none" xmlns="http://www.w3.org/2000/svg">
<path d="M26.5537 62.5167C27.4166 63.6149 28.103 64.772 29.0444 65.6937C30.1622 66.792 30.3779 68.0079 30.0249 69.4395C29.1032 73.2637 28.2011 77.0879 26.1223 80.4807C24.1611 83.6577 21.5921 86.1679 17.7679 86.9328C11.9629 88.0898 7.21696 86.2464 3.4712 81.7162C1.82385 79.7158 0.745223 77.4017 0.176495 74.8718C0.137272 74.6953 0.0980542 74.5188 0.0588316 74.3423C0.0392202 74.1658 0.0196113 73.9893 0 73.7344C2.68675 73.0087 5.33428 72.2831 7.84453 71.5771C8.41326 73.0088 8.80548 74.4404 9.5311 75.6563C10.0802 76.5976 10.9431 77.4605 11.8648 78.0489C14.1201 79.5001 16.8265 78.8137 18.7288 76.48C20.3762 74.4796 21.0037 72.0674 21.4744 69.5964C22.808 62.7128 24.0043 55.8096 25.4359 48.9457C26.6126 43.278 28.0442 37.6495 29.3581 32.0015C30.1622 28.5107 32.3979 26.5888 35.8299 25.8827C36.0652 25.8435 36.2809 25.7259 36.4771 25.4513C35.7514 25.5101 35.0258 25.5297 34.3198 25.6474C28.2795 26.5495 22.7295 28.6872 17.9051 32.4525C16.5323 33.5312 15.2576 34.8451 14.2967 36.2964C11.9433 39.8852 12.6297 43.7487 15.1399 46.9649C16.1793 48.2985 17.4737 49.4359 18.6896 50.7107C17.0226 52.8091 15.3361 54.9467 13.5906 57.1432C10.747 54.8683 8.19753 52.358 6.43251 49.1614C4.92244 46.4158 4.09877 43.4937 4.27527 40.3559C4.53022 36.1787 6.2364 32.6094 8.96237 29.5108C13.1396 24.7649 18.4346 21.7448 24.3376 19.7052C29.4562 17.9402 34.7317 17.0577 40.1444 17.3518C46.4396 17.6852 52.3622 19.2541 57.3631 23.2941C61.4619 26.6084 63.9133 30.9229 64.6389 36.1787C65.443 42.1209 64.5409 47.8082 61.5011 53.0052C57.5592 59.7515 51.6366 63.713 43.8901 64.8504C39.9483 65.4388 35.9868 65.5761 32.0841 64.6543C30.2603 64.2229 28.5345 63.3208 26.5537 62.5363V62.5167ZM32.4567 56.1822C35.418 56.9667 40.2424 57.1236 43.0468 56.6333C46.3612 56.0253 49.3813 54.7506 51.6954 52.26C55.5589 48.122 56.9121 43.1211 56.3237 37.5319C55.853 33.0605 53.4212 29.9619 49.4598 27.9812C46.8711 26.6868 44.047 26.1965 41.223 25.7651C40.0659 25.5886 39.6149 26.2161 39.3403 27.1183C38.5951 29.5305 37.7322 31.9034 37.1438 34.3548C35.8299 39.9048 34.6532 45.4941 33.4373 51.0637C33.0647 52.7503 32.7705 54.4564 32.4371 56.2018L32.4567 56.1822Z" fill="white"/>
<path d="M51.6369 14.0767C50.3229 14.8023 48.9501 14.2336 48.303 12.8412C47.6558 11.4684 47.6558 10.0172 47.8323 8.54631C47.8911 8.07564 48.0872 7.8403 48.5971 7.72263C49.5581 7.46769 49.9307 6.66362 49.5777 5.83995C49.2443 5.07511 48.401 4.78094 47.6754 5.15355C46.9106 5.56539 46.7341 6.42829 47.2047 7.27157C47.3224 7.4873 47.4009 7.85991 47.3028 8.03641C46.3811 9.60532 45.224 10.9781 43.6159 11.8802C42.3215 12.5862 41.1448 12.3313 40.2231 11.1546C38.6934 9.21309 38.1835 6.84012 37.5756 4.52599C37.5363 4.3691 37.8305 4.03571 38.0462 3.91804C38.8307 3.48659 39.3406 2.87864 39.2818 1.95691C39.2229 0.917506 38.4973 0.133053 37.5364 0.0153853C36.5362 -0.102283 35.5556 0.466446 35.281 1.32934C34.9477 2.32952 35.3987 3.36892 36.3401 3.91804C36.5754 4.05532 36.8892 4.40832 36.85 4.58482C36.3008 6.84012 35.7321 9.07581 34.3593 11.0173C33.3984 12.3705 32.1432 12.6059 30.692 11.7822C28.9858 10.8016 27.8876 9.31115 26.907 7.64419C27.5346 6.95779 27.7895 6.19295 27.162 5.50655C26.8482 5.17316 26.103 4.93783 25.7303 5.09472C25.3185 5.27122 24.9459 5.89878 24.8282 6.38906C24.6713 7.07546 25.2008 7.4873 25.8088 7.74224C26.0833 7.85991 26.554 8.03641 26.554 8.21292C26.6521 9.78182 26.907 11.3899 26.1618 12.8804C25.495 14.214 24.1026 14.7631 22.7886 14.0571C21.7492 13.4884 20.8667 12.6451 20.0823 12.0371C20.8275 13.959 21.6708 16.0967 22.4945 18.2343C32.3786 14.7043 42.2823 13.9786 52.3037 17.7244C52.4017 17.4498 52.4802 17.2145 52.5782 16.9988C53.2842 15.2338 54.0099 13.4884 54.7159 11.7233C54.559 11.841 54.3825 11.9391 54.2256 12.0567C53.3823 12.7431 52.6175 13.5668 51.6761 14.0963L51.6369 14.0767Z" fill="white"/>
<path d="M19.2384 9.82104C18.9638 9.82104 18.4343 10.2329 18.4343 10.4878C18.4343 10.8016 18.8265 11.135 19.2384 11.7037C19.6502 11.135 20.0621 10.8212 20.0228 10.5663C19.9836 10.2721 19.5326 9.84066 19.2384 9.84066V9.82104Z" fill="white"/>
<path d="M54.6758 11.7034L54.6565 11.7226L54.6758 11.7034V11.6841V11.7034Z" fill="white"/>
<path d="M55.9903 10.3702C55.6962 10.1741 55.4216 9.84067 55.1078 9.80144C54.5979 9.74261 54.3626 10.1348 54.4411 10.6447C54.4999 10.9977 54.5979 11.3311 54.6764 11.6841C54.9117 11.5469 55.1863 11.4684 55.3628 11.2919C55.6177 11.0173 55.7942 10.684 56.01 10.3506L55.9903 10.3702Z" fill="white"/>
</svg>
