<svg width="66" height="88" viewBox="0 0 66 88" fill="none" xmlns="http://www.w3.org/2000/svg">
<path d="M27.1057 62.9623C27.9686 64.0605 28.655 65.2176 29.5964 66.1393C30.7142 67.2376 30.9299 68.4535 30.5769 69.8851C29.6552 73.7093 28.7531 77.5335 26.6743 80.9263C24.7131 84.1033 22.1441 86.6136 18.3199 87.3784C12.5149 88.5355 7.76896 86.692 4.0232 82.1618C2.37585 80.1614 1.29722 77.8473 0.728497 75.3174C0.689274 75.1409 0.650056 74.9644 0.610834 74.7879C0.591222 74.6114 0.571613 74.4349 0.552002 74.18C3.23875 73.4544 5.88628 72.7287 8.39653 72.0227C8.96526 73.4544 9.35749 74.886 10.0831 76.1019C10.6322 77.0432 11.4951 77.9061 12.4168 78.4945C14.6721 79.9457 17.3785 79.2593 19.2808 76.9256C20.9282 74.9252 21.5557 72.513 22.0264 70.042C23.36 63.1584 24.5563 56.2552 25.9879 49.3913C27.1646 43.7236 28.5962 38.0952 29.9102 32.4471C30.7142 28.9563 32.9499 27.0344 36.3819 26.3284C36.6172 26.2891 36.8329 26.1715 37.0291 25.8969C36.3034 25.9558 35.5778 25.9754 34.8718 26.093C28.8315 26.9952 23.2815 29.1328 18.4571 32.8982C17.0843 33.9768 15.8096 35.2907 14.8487 36.742C12.4953 40.3308 13.1817 44.1943 15.6919 47.4105C16.7313 48.7441 18.0257 49.8816 19.2416 51.1563C17.5746 53.2547 15.8881 55.3923 14.1426 57.5888C11.299 55.3139 8.74953 52.8036 6.98451 49.607C5.47444 46.8614 4.65077 43.9393 4.82727 40.8015C5.08222 36.6243 6.7884 33.0551 9.51437 29.9565C13.6916 25.2105 18.9866 22.1904 24.8896 20.1508C30.0082 18.3858 35.2837 17.5033 40.6964 17.7974C46.9916 18.1308 52.9142 19.6997 57.9151 23.7397C62.0139 27.054 64.4653 31.3685 65.1909 36.6243C65.995 42.5665 65.0929 48.2538 62.0531 53.4508C58.1112 60.1971 52.1886 64.1586 44.4421 65.2961C40.5003 65.8844 36.5388 66.0217 32.6361 65.0999C30.8123 64.6685 29.0865 63.7664 27.1057 62.9819V62.9623ZM33.0087 56.6279C35.97 57.4123 40.7944 57.5692 43.5988 57.0789C46.9132 56.471 49.9333 55.1962 52.2474 52.7056C56.1109 48.5676 57.4641 43.5667 56.8757 37.9775C56.405 33.5061 53.9732 30.4075 50.0118 28.4268C47.4231 27.1324 44.599 26.6421 41.775 26.2107C40.6179 26.0342 40.1669 26.6618 39.8923 27.5639C39.1471 29.9761 38.2842 32.349 37.6958 34.8005C36.3819 40.3505 35.2052 45.9397 33.9893 51.5093C33.6167 53.1959 33.3225 54.9021 32.9891 56.6475L33.0087 56.6279Z" fill="#C30082"/>
<path d="M52.1889 14.5223C50.8749 15.2479 49.5021 14.6792 48.855 13.2868C48.2078 11.914 48.2078 10.4628 48.3843 8.99193C48.4431 8.52125 48.6392 8.28592 49.1491 8.16825C50.1101 7.9133 50.4827 7.10924 50.1297 6.28556C49.7963 5.52072 48.953 5.22655 48.2274 5.59917C47.4626 6.01101 47.2861 6.8739 47.7567 7.71719C47.8744 7.93291 47.9529 8.30553 47.8548 8.48203C46.9331 10.0509 45.776 11.4237 44.1679 12.3258C42.8735 13.0319 41.6968 12.7769 40.7751 11.6002C39.2454 9.65871 38.7355 7.28574 38.1276 4.97161C38.0883 4.81472 38.3825 4.48132 38.5983 4.36365C39.3827 3.93221 39.8926 3.32426 39.8338 2.40252C39.7749 1.36312 39.0493 0.578671 38.0884 0.461003C37.0882 0.343335 36.1076 0.912063 35.833 1.77496C35.4997 2.77514 35.9507 3.81454 36.8921 4.36365C37.1274 4.50093 37.4412 4.85394 37.402 5.03044C36.8528 7.28574 36.2841 9.52143 34.9113 11.463C33.9504 12.8161 32.6952 13.0515 31.244 12.2278C29.5378 11.2472 28.4396 9.75677 27.459 8.08981C28.0866 7.40341 28.3415 6.63857 27.714 5.95217C27.4002 5.61878 26.655 5.38344 26.2823 5.54033C25.8705 5.71684 25.4979 6.3444 25.3802 6.83468C25.2233 7.52108 25.7528 7.93291 26.3608 8.18786C26.6353 8.30553 27.106 8.48203 27.106 8.65853C27.2041 10.2274 27.459 11.8356 26.7138 13.326C26.047 14.6596 24.6546 15.2087 23.3406 14.5027C22.3012 13.934 21.4187 13.0907 20.6343 12.4827C21.3795 14.4046 22.2228 16.5423 23.0465 18.6799C32.9306 15.1499 42.8343 14.4243 52.8557 18.17C52.9537 17.8955 53.0322 17.6601 53.1302 17.4444C53.8362 15.6794 54.5619 13.934 55.2679 12.169C55.111 12.2866 54.9345 12.3847 54.7776 12.5024C53.9343 13.1887 53.1695 14.0124 52.2281 14.5419L52.1889 14.5223Z" fill="#A28A21"/>
<path d="M19.7904 10.2667C19.5158 10.2667 18.9863 10.6785 18.9863 10.9334C18.9863 11.2472 19.3785 11.5806 19.7904 12.1493C20.2022 11.5806 20.6141 11.2668 20.5748 11.0119C20.5356 10.7177 20.0846 10.2863 19.7904 10.2863V10.2667Z" fill="#A28A21"/>
<path d="M55.2278 12.149L55.2085 12.1683L55.2278 12.149V12.1297V12.149Z" fill="#A28A21"/>
<path d="M56.5423 10.8158C56.2482 10.6197 55.9736 10.2863 55.6598 10.2471C55.1499 10.1882 54.9146 10.5805 54.9931 11.0903C55.0519 11.4434 55.1499 11.7767 55.2284 12.1297C55.4637 11.9925 55.7383 11.914 55.9148 11.7375C56.1697 11.463 56.3462 11.1296 56.562 10.7962L56.5423 10.8158Z" fill="#A28A21"/>
</svg>
