<?xml version="1.0" encoding="utf-8"?>
<!-- Generator: Adobe Illustrator 28.3.0, SVG Export Plug-In . SVG Version: 6.00 Build 0)  -->
<svg version="1.1" id="Layer_1" xmlns="http://www.w3.org/2000/svg" xmlns:xlink="http://www.w3.org/1999/xlink" x="0px" y="0px"
	 viewBox="0 0 31.9 32" style="enable-background:new 0 0 31.9 32;" xml:space="preserve">
<style type="text/css">
	.st0{fill:#C30082;}
	.st1{fill:#A28A21;}
</style>
<g>
	<path class="st0" d="M13.9,22.6c0.3,0.4,0.5,0.8,0.9,1.1c0.4,0.4,0.5,0.8,0.3,1.3c-0.3,1.3-0.6,2.7-1.4,3.9c-0.7,1.1-1.6,2-2.9,2.3
		c-2,0.4-3.7-0.2-5-1.8c-0.6-0.7-1-1.5-1.2-2.4c0-0.1,0-0.1,0-0.2c0-0.1,0-0.1,0-0.2c0.9-0.3,1.9-0.5,2.7-0.8c0.2,0.5,0.3,1,0.6,1.4
		c0.2,0.3,0.5,0.6,0.8,0.8c0.8,0.5,1.7,0.3,2.4-0.5c0.6-0.7,0.8-1.5,1-2.4c0.5-2.4,0.9-4.8,1.4-7.2c0.4-2,0.9-4,1.4-5.9
		c0.3-1.2,1.1-1.9,2.3-2.1c0.1,0,0.2-0.1,0.2-0.2c-0.3,0-0.5,0-0.8,0.1c-2.1,0.3-4.1,1.1-5.7,2.4c-0.5,0.4-0.9,0.8-1.3,1.3
		C8.8,14.7,9,16,9.9,17.2c0.4,0.5,0.8,0.9,1.2,1.3c-0.6,0.7-1.2,1.5-1.8,2.3c-1-0.8-1.9-1.7-2.5-2.8c-0.5-1-0.8-2-0.8-3.1
		c0.1-1.5,0.7-2.7,1.6-3.8c1.5-1.7,3.3-2.7,5.4-3.4c1.8-0.6,3.6-0.9,5.5-0.8c2.2,0.1,4.3,0.7,6,2.1c1.4,1.2,2.3,2.7,2.5,4.5
		c0.3,2.1,0,4.1-1.1,5.9c-1.4,2.4-3.5,3.7-6.2,4.1c-1.4,0.2-2.8,0.3-4.1-0.1C15.2,23.2,14.6,22.9,13.9,22.6L13.9,22.6z M15.9,20.4
		c1,0.3,2.7,0.3,3.7,0.2c1.2-0.2,2.2-0.7,3-1.5c1.4-1.4,1.8-3.2,1.6-5.2c-0.2-1.6-1-2.6-2.4-3.3C21,10.1,20,9.9,19,9.7
		c-0.4-0.1-0.6,0.2-0.7,0.5c-0.3,0.8-0.6,1.7-0.8,2.5c-0.5,1.9-0.9,3.9-1.3,5.8C16.2,19.2,16,19.8,15.9,20.4L15.9,20.4z"/>
	<path class="st1" d="M22.7,5.7c-0.5,0.3-0.9,0.1-1.2-0.4c-0.2-0.5-0.2-1-0.2-1.5c0-0.2,0.1-0.2,0.3-0.3c0.3-0.1,0.5-0.4,0.3-0.7
		c-0.1-0.3-0.4-0.4-0.7-0.2C21,2.7,20.9,3,21.1,3.3c0,0.1,0.1,0.2,0,0.3c-0.3,0.5-0.7,1-1.3,1.3C19.4,5.1,19,5,18.7,4.6
		c-0.5-0.7-0.7-1.5-0.9-2.3c0-0.1,0.1-0.2,0.2-0.2c0.3-0.2,0.5-0.4,0.4-0.7c0-0.4-0.3-0.6-0.6-0.7c-0.3,0-0.7,0.2-0.8,0.5
		c-0.1,0.3,0,0.7,0.4,0.9c0.1,0,0.2,0.2,0.2,0.2c-0.2,0.8-0.4,1.6-0.9,2.3c-0.3,0.5-0.8,0.6-1.3,0.3c-0.6-0.3-1-0.9-1.3-1.4
		c0.2-0.2,0.3-0.5,0.1-0.7c-0.1-0.1-0.4-0.2-0.5-0.1c-0.1,0.1-0.3,0.3-0.3,0.5c-0.1,0.2,0.1,0.4,0.3,0.5c0.1,0,0.3,0.1,0.3,0.2
		c0,0.5,0.1,1.1-0.1,1.6c-0.2,0.5-0.7,0.7-1.2,0.4c-0.4-0.2-0.7-0.5-0.9-0.7c0.3,0.7,0.6,1.4,0.8,2.2c3.5-1.2,6.9-1.5,10.4-0.2
		c0-0.1,0.1-0.2,0.1-0.3c0.2-0.6,0.5-1.2,0.7-1.8c-0.1,0-0.1,0.1-0.2,0.1C23.3,5.2,23,5.5,22.7,5.7L22.7,5.7z"/>
	<path class="st1" d="M11.3,4.2c-0.1,0-0.3,0.1-0.3,0.2c0,0.1,0.1,0.2,0.3,0.4c0.1-0.2,0.3-0.3,0.3-0.4C11.6,4.3,11.4,4.2,11.3,4.2
		L11.3,4.2z"/>
	<path class="st1" d="M23.7,4.8L23.7,4.8L23.7,4.8L23.7,4.8L23.7,4.8z"/>
	<path class="st1" d="M24.2,4.4c-0.1-0.1-0.2-0.2-0.3-0.2c-0.2,0-0.3,0.1-0.2,0.3c0,0.1,0.1,0.2,0.1,0.4c0.1,0,0.2-0.1,0.2-0.1
		C24,4.6,24.1,4.5,24.2,4.4L24.2,4.4z"/>
</g>
</svg>
